<?xml version="1.0" encoding="UTF-8" standalone="no"?>
<!-- Created with Inkscape (http://www.inkscape.org/) -->

<svg
   xmlns:ns1="http://www.iki.fi/pav/software/textext/"
   xmlns:dc="http://purl.org/dc/elements/1.1/"
   xmlns:cc="http://creativecommons.org/ns#"
   xmlns:rdf="http://www.w3.org/1999/02/22-rdf-syntax-ns#"
   xmlns:svg="http://www.w3.org/2000/svg"
   xmlns="http://www.w3.org/2000/svg"
   xmlns:sodipodi="http://sodipodi.sourceforge.net/DTD/sodipodi-0.dtd"
   xmlns:inkscape="http://www.inkscape.org/namespaces/inkscape"
   version="1.1"
   id="svg20918"
   xml:space="preserve"
   width="641.02686"
   height="576.05585"
   viewBox="0 0 641.02686 576.05585"
   sodipodi:docname="mctarget1.svg"
   inkscape:version="0.92.5 (2060ec1f9f, 2020-04-08)"><metadata
     id="metadata20924"><rdf:RDF><cc:Work
         rdf:about=""><dc:format>image/svg+xml</dc:format><dc:type
           rdf:resource="http://purl.org/dc/dcmitype/StillImage" /><dc:title /></cc:Work></rdf:RDF></metadata><defs
     id="defs20922"><clipPath
       clipPathUnits="userSpaceOnUse"
       id="clipPath20936"><path
         d="M 59.04,73.44 H 473.76 V 444.96 H 59.04 Z"
         id="path20934"
         inkscape:connector-curvature="0" /></clipPath></defs><sodipodi:namedview
     pagecolor="#ffffff"
     bordercolor="#666666"
     borderopacity="1"
     objecttolerance="10"
     gridtolerance="10"
     guidetolerance="10"
     inkscape:pageopacity="0"
     inkscape:pageshadow="2"
     inkscape:window-width="1848"
     inkscape:window-height="1016"
     id="namedview20920"
     showgrid="false"
     fit-margin-top="0"
     fit-margin-left="0"
     fit-margin-right="0"
     fit-margin-bottom="0"
     inkscape:zoom="1.4047619"
     inkscape:cx="322.05213"
     inkscape:cy="316.27588"
     inkscape:window-x="1992"
     inkscape:window-y="27"
     inkscape:window-maximized="1"
     inkscape:current-layer="g20926" /><g
     id="g20926"
     inkscape:groupmode="layer"
     inkscape:label="mctarget"
     transform="matrix(1.3333333,0,0,-1.3333333,6.8468634,595.77999)"><g
   id="g20928"
   style="stroke-width:3.75;stroke-miterlimit:10;stroke-dasharray:none" /><g
   style="stroke:#ce9326;stroke-width:3.75;stroke-miterlimit:10;stroke-dasharray:none;stroke-opacity:1"
   clip-path="url(#clipPath20936)"
   id="g20932"><path
     inkscape:connector-curvature="0"
     id="path20938"
     style="fill:none;stroke:#ce9326;stroke-width:3.75;stroke-linecap:round;stroke-linejoin:round;stroke-miterlimit:10;stroke-dasharray:none;stroke-opacity:1"
     d="m 74.4,87.2 3.84,3.44 3.84,3.44 3.84,3.44 3.84,3.44 3.84,3.44 3.84,3.44 3.84,3.44 3.84,3.44 3.84,3.44 3.84,3.44 3.84,3.44 3.84,3.44 3.84,3.44 3.84,3.44 3.84,3.44 3.84,3.44 3.84,3.44 3.84,3.44 3.84,3.44 3.84,3.44 3.84,3.44 3.84,3.44 3.84,3.44 3.84,3.44 3.84,3.44 3.84,3.44 3.84,3.44 3.84,3.44 3.84,3.44 3.84,3.44 3.84,3.44 3.84,3.44 3.84,3.44 3.84,3.44 3.84,3.44 3.84,3.44 3.84,3.44 3.84,3.44 3.84,3.44 3.84,3.44 3.84,3.44 3.84,3.44 3.84,3.44 3.84,3.44 3.84,3.44 3.84,3.44 3.84,3.44 3.84,3.44 3.84,3.44 3.84,3.44 3.84,3.44 3.84,3.44 3.84,3.44 3.84,3.44 3.84,3.44 3.84,3.44 3.84,3.44 3.84,3.44 3.84,3.44 3.84,3.44 3.84,3.44 3.84,3.44 3.84,3.44 3.84,3.44 3.84,3.44 3.84,3.44 3.84,3.44 3.84,3.44 3.84,3.44 3.84,3.44 3.84,3.44 3.84,3.44 3.84,3.44 3.84,3.44 3.84,3.44 3.84,3.44 3.84,3.44 3.84,3.44 3.84,3.44 3.84,3.44 3.84,3.44 3.84,3.44 3.84,3.44 3.84,3.44 3.84,3.44 3.84,3.44 3.84,3.44 3.84,3.44 3.84,3.44 3.84,3.44 3.84,3.44 3.84,3.44 3.84,3.44 3.84,3.44 3.84,3.44 3.84,3.44 3.84,3.44 3.84,3.44 3.84,3.44 3.84,3.44" /></g><path
   inkscape:connector-curvature="0"
   id="path20942"
   style="fill:none;stroke:#000000;stroke-width:3.75;stroke-linecap:round;stroke-linejoin:round;stroke-miterlimit:10;stroke-dasharray:none;stroke-opacity:1"
   d="m 74.4,73.44 h 384" /><path
   inkscape:connector-curvature="0"
   id="path20944"
   style="fill:none;stroke:#000000;stroke-width:3.75;stroke-linecap:round;stroke-linejoin:round;stroke-miterlimit:10;stroke-dasharray:none;stroke-opacity:1"
   d="m 74.4,73.44 v -7.2" /><path
   inkscape:connector-curvature="0"
   id="path20946"
   style="fill:none;stroke:#000000;stroke-width:3.75;stroke-linecap:round;stroke-linejoin:round;stroke-miterlimit:10;stroke-dasharray:none;stroke-opacity:1"
   d="m 170.4,73.44 v -7.2" /><path
   inkscape:connector-curvature="0"
   id="path20948"
   style="fill:none;stroke:#000000;stroke-width:3.75;stroke-linecap:round;stroke-linejoin:round;stroke-miterlimit:10;stroke-dasharray:none;stroke-opacity:1"
   d="m 266.4,73.44 v -7.2" /><path
   inkscape:connector-curvature="0"
   id="path20950"
   style="fill:none;stroke:#000000;stroke-width:3.75;stroke-linecap:round;stroke-linejoin:round;stroke-miterlimit:10;stroke-dasharray:none;stroke-opacity:1"
   d="m 362.4,73.44 v -7.2" /><path
   inkscape:connector-curvature="0"
   id="path20952"
   style="fill:none;stroke:#000000;stroke-width:3.75;stroke-linecap:round;stroke-linejoin:round;stroke-miterlimit:10;stroke-dasharray:none;stroke-opacity:1"
   d="m 458.4,73.44 v -7.2" /><text
   id="text20956"
   style="font-variant:normal;font-weight:normal;font-size:12px;font-family:Helvetica;-inkscape-font-specification:Helvetica;writing-mode:lr-tb;fill:#000000;fill-opacity:1;fill-rule:nonzero;stroke:none;stroke-width:3.75;stroke-miterlimit:10;stroke-dasharray:none"
   transform="scale(1,-1)"
   x="66.059998"
   y="-47.52"><tspan
     id="tspan20954"
     sodipodi:role="line"
     y="-47.52"
     x="66.059998 72.732002 76.068001">1.0</tspan></text>

<text
   id="text20960"
   style="font-variant:normal;font-weight:normal;font-size:12px;font-family:Helvetica;-inkscape-font-specification:Helvetica;writing-mode:lr-tb;fill:#000000;fill-opacity:1;fill-rule:nonzero;stroke:none;stroke-width:3.75;stroke-miterlimit:10;stroke-dasharray:none"
   transform="scale(1,-1)"
   x="162.06"
   y="-47.52"><tspan
     id="tspan20958"
     sodipodi:role="line"
     y="-47.52"
     x="162.06 168.73199 172.06799">1.5</tspan></text>

<text
   id="text20964"
   style="font-variant:normal;font-weight:normal;font-size:12px;font-family:Helvetica;-inkscape-font-specification:Helvetica;writing-mode:lr-tb;fill:#000000;fill-opacity:1;fill-rule:nonzero;stroke:none;stroke-width:3.75;stroke-miterlimit:10;stroke-dasharray:none"
   transform="scale(1,-1)"
   x="258.06"
   y="-47.52"><tspan
     id="tspan20962"
     sodipodi:role="line"
     y="-47.52"
     x="258.06 264.73199 268.06799">2.0</tspan></text>

<text
   id="text20968"
   style="font-variant:normal;font-weight:normal;font-size:12px;font-family:Helvetica;-inkscape-font-specification:Helvetica;writing-mode:lr-tb;fill:#000000;fill-opacity:1;fill-rule:nonzero;stroke:none;stroke-width:3.75;stroke-miterlimit:10;stroke-dasharray:none"
   transform="scale(1,-1)"
   x="354.06"
   y="-47.52"><tspan
     id="tspan20966"
     sodipodi:role="line"
     y="-47.52"
     x="354.06 360.73199 364.06799">2.5</tspan></text>

<text
   id="text20972"
   style="font-variant:normal;font-weight:normal;font-size:12px;font-family:Helvetica;-inkscape-font-specification:Helvetica;writing-mode:lr-tb;fill:#000000;fill-opacity:1;fill-rule:nonzero;stroke:none;stroke-width:3.75;stroke-miterlimit:10;stroke-dasharray:none"
   transform="scale(1,-1)"
   x="450.06"
   y="-47.52"><tspan
     id="tspan20970"
     sodipodi:role="line"
     y="-47.52"
     x="450.06 456.73199 460.06799">3.0</tspan></text>

<path
   inkscape:connector-curvature="0"
   id="path20974"
   style="fill:none;stroke:#000000;stroke-width:3.75;stroke-linecap:round;stroke-linejoin:round;stroke-miterlimit:10;stroke-dasharray:none;stroke-opacity:1"
   d="m 59.04,87.2 v 344" /><path
   inkscape:connector-curvature="0"
   id="path20976"
   style="fill:none;stroke:#000000;stroke-width:3.75;stroke-linecap:round;stroke-linejoin:round;stroke-miterlimit:10;stroke-dasharray:none;stroke-opacity:1"
   d="m 59.04,87.2 h -7.2" /><path
   inkscape:connector-curvature="0"
   id="path20978"
   style="fill:none;stroke:#000000;stroke-width:3.75;stroke-linecap:round;stroke-linejoin:round;stroke-miterlimit:10;stroke-dasharray:none;stroke-opacity:1"
   d="m 59.04,156 h -7.2" /><path
   inkscape:connector-curvature="0"
   id="path20980"
   style="fill:none;stroke:#000000;stroke-width:3.75;stroke-linecap:round;stroke-linejoin:round;stroke-miterlimit:10;stroke-dasharray:none;stroke-opacity:1"
   d="m 59.04,224.8 h -7.2" /><path
   inkscape:connector-curvature="0"
   id="path20982"
   style="fill:none;stroke:#000000;stroke-width:3.75;stroke-linecap:round;stroke-linejoin:round;stroke-miterlimit:10;stroke-dasharray:none;stroke-opacity:1"
   d="m 59.04,293.6 h -7.2" /><path
   inkscape:connector-curvature="0"
   id="path20984"
   style="fill:none;stroke:#000000;stroke-width:3.75;stroke-linecap:round;stroke-linejoin:round;stroke-miterlimit:10;stroke-dasharray:none;stroke-opacity:1"
   d="m 59.04,362.4 h -7.2" /><path
   inkscape:connector-curvature="0"
   id="path20986"
   style="fill:none;stroke:#000000;stroke-width:3.75;stroke-linecap:round;stroke-linejoin:round;stroke-miterlimit:10;stroke-dasharray:none;stroke-opacity:1"
   d="m 59.04,431.2 h -7.2" /><text
   id="text20990"
   style="font-variant:normal;font-weight:normal;font-size:12px;font-family:Helvetica;-inkscape-font-specification:Helvetica;writing-mode:lr-tb;fill:#000000;fill-opacity:1;fill-rule:nonzero;stroke:none;stroke-width:3.75;stroke-miterlimit:10;stroke-dasharray:none"
   transform="matrix(0,1,1,0,0,0)"
   x="78.860001"
   y="41.759998"><tspan
     id="tspan20988"
     sodipodi:role="line"
     y="41.759998"
     x="78.860001 85.531998 88.868004">0.0</tspan></text>

<text
   id="text20994"
   style="font-variant:normal;font-weight:normal;font-size:12px;font-family:Helvetica;-inkscape-font-specification:Helvetica;writing-mode:lr-tb;fill:#000000;fill-opacity:1;fill-rule:nonzero;stroke:none;stroke-width:3.75;stroke-miterlimit:10;stroke-dasharray:none"
   transform="matrix(0,1,1,0,0,0)"
   x="147.66"
   y="41.759998"><tspan
     id="tspan20992"
     sodipodi:role="line"
     y="41.759998"
     x="147.66 154.332 157.668">0.2</tspan></text>

<text
   id="text20998"
   style="font-variant:normal;font-weight:normal;font-size:12px;font-family:Helvetica;-inkscape-font-specification:Helvetica;writing-mode:lr-tb;fill:#000000;fill-opacity:1;fill-rule:nonzero;stroke:none;stroke-width:3.75;stroke-miterlimit:10;stroke-dasharray:none"
   transform="matrix(0,1,1,0,0,0)"
   x="216.46001"
   y="41.759998"><tspan
     id="tspan20996"
     sodipodi:role="line"
     y="41.759998"
     x="216.46001 223.132 226.468">0.4</tspan></text>

<text
   id="text21002"
   style="font-variant:normal;font-weight:normal;font-size:12px;font-family:Helvetica;-inkscape-font-specification:Helvetica;writing-mode:lr-tb;fill:#000000;fill-opacity:1;fill-rule:nonzero;stroke:none;stroke-width:3.75;stroke-miterlimit:10;stroke-dasharray:none"
   transform="matrix(0,1,1,0,0,0)"
   x="285.26001"
   y="41.759998"><tspan
     id="tspan21000"
     sodipodi:role="line"
     y="41.759998"
     x="285.26001 291.93201 295.26801">0.6</tspan></text>

<text
   id="text21006"
   style="font-variant:normal;font-weight:normal;font-size:12px;font-family:Helvetica;-inkscape-font-specification:Helvetica;writing-mode:lr-tb;fill:#000000;fill-opacity:1;fill-rule:nonzero;stroke:none;stroke-width:3.75;stroke-miterlimit:10;stroke-dasharray:none"
   transform="matrix(0,1,1,0,0,0)"
   x="354.06"
   y="41.759998"><tspan
     id="tspan21004"
     sodipodi:role="line"
     y="41.759998"
     x="354.06 360.73199 364.06799">0.8</tspan></text>

<text
   id="text21010"
   style="font-variant:normal;font-weight:normal;font-size:12px;font-family:Helvetica;-inkscape-font-specification:Helvetica;writing-mode:lr-tb;fill:#000000;fill-opacity:1;fill-rule:nonzero;stroke:none;stroke-width:3.75;stroke-miterlimit:10;stroke-dasharray:none"
   transform="matrix(0,1,1,0,0,0)"
   x="422.85999"
   y="41.759998"><tspan
     id="tspan21008"
     sodipodi:role="line"
     y="41.759998"
     x="422.85999 429.53201 432.86801">1.0</tspan></text>

<path
   inkscape:connector-curvature="0"
   id="path21012"
   style="fill:none;stroke:#ce9326;stroke-width:3.75;stroke-linecap:round;stroke-linejoin:round;stroke-miterlimit:10;stroke-dasharray:none;stroke-opacity:1"
   d="M 59.04,73.44 H 473.76 V 444.96 H 59.04 V 73.44" /><g
   id="g21014"
   style="stroke-width:3.75;stroke-miterlimit:10;stroke-dasharray:none" /><g
   id="g5651"
   ns1:jacobian_sqrt="3.146075"
   inkscapeversion="0.92.5"
   ns1:alignment="middle center"
   ns1:scale="2.35955653969"
   ns1:preamble="/home/guindon/.config/inkscape/extensions/textext/default_packages.tex"
   ns1:text="$x$\n"
   ns1:pdfconverter="pdf2svg"
   ns1:texconverter="pdflatex"
   ns1:version="0.11.1"
   transform="matrix(3.146075,0,0,-3.146075,-197.21744,439.11799)"
   style="fill:#e0c593;fill-opacity:1"><g
     id="g5649"
     style="fill:#e0c593;fill-opacity:1"><g
       id="g5647"
       style="fill:#e0c593;fill-opacity:1"><path
         id="path5645"
         transform="translate(148.712,134.765)"
         d="M 3.328125,-3.015625 C 3.390625,-3.265625 3.625,-4.1875 4.3125,-4.1875 c 0.046875,0 0.296875,0 0.5,0.125 C 4.53125,-4 4.34375,-3.765625 4.34375,-3.515625 c 0,0.15625 0.109375,0.34375 0.375,0.34375 0.21875,0 0.53125,-0.171875 0.53125,-0.578125 0,-0.515625 -0.578125,-0.65625 -0.921875,-0.65625 -0.578125,0 -0.921875,0.53125 -1.046875,0.75 -0.25,-0.65625 -0.78125,-0.75 -1.078125,-0.75 -1.03125,0 -1.609375,1.28125 -1.609375,1.53125 0,0.109375 0.109375,0.109375 0.125,0.109375 0.078125,0 0.109375,-0.03125 0.125,-0.109375 0.34375,-1.0625 1,-1.3125 1.34375,-1.3125 0.1875,0 0.53125,0.09375 0.53125,0.671875 0,0.3125 -0.171875,0.96875 -0.53125,2.375 -0.15625,0.609375 -0.515625,1.03125 -0.953125,1.03125 -0.0625,0 -0.28125,0 -0.5,-0.125 0.25,-0.0625 0.46875,-0.265625 0.46875,-0.546875 0,-0.265625 -0.21875,-0.34375 -0.359375,-0.34375 -0.3125,0 -0.546875,0.25 -0.546875,0.578125 0,0.453125 0.484375,0.65625 0.921875,0.65625 0.671875,0 1.03125,-0.703125 1.046875,-0.75 0.125,0.359375 0.484375,0.75 1.078125,0.75 1.03125,0 1.59375,-1.28125 1.59375,-1.53125 0,-0.109375 -0.078125,-0.109375 -0.109375,-0.109375 -0.09375,0 -0.109375,0.046875 -0.140625,0.109375 -0.328125,1.078125 -1,1.3125 -1.3125,1.3125 -0.390625,0 -0.546875,-0.3125 -0.546875,-0.65625 0,-0.21875 0.046875,-0.4375 0.15625,-0.875 z m 0,0"
         style="fill:#e0c593;fill-opacity:1;stroke:none;stroke-width:0"
         inkscape:connector-curvature="0" /></g></g></g><ellipse
   style="opacity:1;fill:#32ff00;fill-opacity:0.70588237;fill-rule:nonzero;stroke:none;stroke-width:3.75;stroke-linecap:round;stroke-linejoin:round;stroke-miterlimit:10;stroke-dasharray:none;stroke-dashoffset:0;stroke-opacity:1;paint-order:fill markers stroke"
   id="path22755"
   cx="222.13376"
   cy="-333.80014"
   transform="scale(1,-1)"
   rx="3.020185"
   ry="3.3977079" /><ellipse
   style="opacity:1;fill:#32ff00;fill-opacity:0.70588237;fill-rule:nonzero;stroke:none;stroke-width:3.75;stroke-linecap:round;stroke-linejoin:round;stroke-miterlimit:10;stroke-dasharray:none;stroke-dashoffset:0;stroke-opacity:1;paint-order:fill markers stroke"
   id="path22755-8"
   cx="83.205261"
   cy="-330.40244"
   rx="3.020185"
   ry="3.3977079"
   transform="scale(1,-1)" /><ellipse
   style="opacity:1;fill:#32ff00;fill-opacity:0.70588237;fill-rule:nonzero;stroke:none;stroke-width:3.75;stroke-linecap:round;stroke-linejoin:round;stroke-miterlimit:10;stroke-dasharray:none;stroke-dashoffset:0;stroke-opacity:1;paint-order:fill markers stroke"
   id="path22755-5"
   cx="167.0154"
   cy="-384.01071"
   rx="3.020185"
   ry="3.3977079"
   transform="scale(1,-1)" /><ellipse
   style="opacity:1;fill:#32ff00;fill-opacity:0.70588237;fill-rule:nonzero;stroke:none;stroke-width:3.75;stroke-linecap:round;stroke-linejoin:round;stroke-miterlimit:10;stroke-dasharray:none;stroke-dashoffset:0;stroke-opacity:1;paint-order:fill markers stroke"
   id="path22755-9"
   cx="163.99521"
   cy="-300.95563"
   rx="3.020185"
   ry="3.3977079"
   transform="scale(1,-1)" /><ellipse
   style="opacity:1;fill:#32ff00;fill-opacity:0.70588237;fill-rule:nonzero;stroke:none;stroke-width:3.75;stroke-linecap:round;stroke-linejoin:round;stroke-miterlimit:10;stroke-dasharray:none;stroke-dashoffset:0;stroke-opacity:1;paint-order:fill markers stroke"
   id="path22755-7"
   cx="289.33289"
   cy="-353.80887"
   rx="3.020185"
   ry="3.3977079"
   transform="scale(1,-1)" /><ellipse
   style="opacity:1;fill:#32ff00;fill-opacity:0.70588237;fill-rule:nonzero;stroke:none;stroke-width:3.75;stroke-linecap:round;stroke-linejoin:round;stroke-miterlimit:10;stroke-dasharray:none;stroke-dashoffset:0;stroke-opacity:1;paint-order:fill markers stroke"
   id="path22755-53"
   cx="321.04483"
   cy="-337.95291"
   rx="3.020185"
   ry="3.3977079"
   transform="scale(1,-1)" /><ellipse
   style="opacity:1;fill:#32ff00;fill-opacity:0.70588237;fill-rule:nonzero;stroke:none;stroke-width:3.75;stroke-linecap:round;stroke-linejoin:round;stroke-miterlimit:10;stroke-dasharray:none;stroke-dashoffset:0;stroke-opacity:1;paint-order:fill markers stroke"
   id="path22755-88"
   cx="348.98154"
   cy="-381.74557"
   rx="3.020185"
   ry="3.3977079"
   transform="scale(1,-1)" /><ellipse
   style="opacity:1;fill:#32ff00;fill-opacity:0.70588237;fill-rule:nonzero;stroke:none;stroke-width:3.75;stroke-linecap:round;stroke-linejoin:round;stroke-miterlimit:10;stroke-dasharray:none;stroke-dashoffset:0;stroke-opacity:1;paint-order:fill markers stroke"
   id="path22755-3"
   cx="296.88336"
   cy="-414.21259"
   rx="3.020185"
   ry="3.3977079"
   transform="scale(1,-1)" /><ellipse
   style="opacity:1;fill:#32ff00;fill-opacity:0.70588237;fill-rule:nonzero;stroke:none;stroke-width:3.75;stroke-linecap:round;stroke-linejoin:round;stroke-miterlimit:10;stroke-dasharray:none;stroke-dashoffset:0;stroke-opacity:1;paint-order:fill markers stroke"
   id="path22755-1"
   cx="221.37872"
   cy="-415.72266"
   rx="3.020185"
   ry="3.3977079"
   transform="scale(1,-1)" /><ellipse
   style="opacity:1;fill:#32ff00;fill-opacity:0.70588237;fill-rule:nonzero;stroke:none;stroke-width:3.75;stroke-linecap:round;stroke-linejoin:round;stroke-miterlimit:10;stroke-dasharray:none;stroke-dashoffset:0;stroke-opacity:1;paint-order:fill markers stroke"
   id="path22755-89"
   cx="134.5484"
   cy="-419.49789"
   rx="3.020185"
   ry="3.3977079"
   transform="scale(1,-1)" /><ellipse
   style="opacity:1;fill:#32ff00;fill-opacity:0.70588237;fill-rule:nonzero;stroke:none;stroke-width:3.75;stroke-linecap:round;stroke-linejoin:round;stroke-miterlimit:10;stroke-dasharray:none;stroke-dashoffset:0;stroke-opacity:1;paint-order:fill markers stroke"
   id="path22755-6"
   cx="110.38692"
   cy="-377.2153"
   rx="3.020185"
   ry="3.3977079"
   transform="scale(1,-1)" /><ellipse
   style="opacity:1;fill:#32ff00;fill-opacity:0.70588237;fill-rule:nonzero;stroke:none;stroke-width:3.75;stroke-linecap:round;stroke-linejoin:round;stroke-miterlimit:10;stroke-dasharray:none;stroke-dashoffset:0;stroke-opacity:1;paint-order:fill markers stroke"
   id="path22755-4"
   cx="96.796097"
   cy="-263.20331"
   rx="3.020185"
   ry="3.3977079"
   transform="scale(1,-1)" /><ellipse
   style="opacity:1;fill:#32ff00;fill-opacity:0.70588237;fill-rule:nonzero;stroke:none;stroke-width:3.75;stroke-linecap:round;stroke-linejoin:round;stroke-miterlimit:10;stroke-dasharray:none;stroke-dashoffset:0;stroke-opacity:1;paint-order:fill markers stroke"
   id="path22755-33"
   cx="80.940125"
   cy="-198.26935"
   rx="3.020185"
   ry="3.3977079"
   transform="scale(1,-1)" /><ellipse
   style="opacity:1;fill:#32ff00;fill-opacity:0.70588237;fill-rule:nonzero;stroke:none;stroke-width:3.75;stroke-linecap:round;stroke-linejoin:round;stroke-miterlimit:10;stroke-dasharray:none;stroke-dashoffset:0;stroke-opacity:1;paint-order:fill markers stroke"
   id="path22755-38"
   cx="192.68697"
   cy="-229.98129"
   rx="3.020185"
   ry="3.3977079"
   transform="scale(1,-1)" /><ellipse
   style="opacity:1;fill:#32ff00;fill-opacity:0.70588237;fill-rule:nonzero;stroke:none;stroke-width:3.75;stroke-linecap:round;stroke-linejoin:round;stroke-miterlimit:10;stroke-dasharray:none;stroke-dashoffset:0;stroke-opacity:1;paint-order:fill markers stroke"
   id="path22755-60"
   cx="148.13924"
   cy="-244.32716"
   rx="3.020185"
   ry="3.3977079"
   transform="scale(1,-1)" /><ellipse
   style="opacity:1;fill:#32ff00;fill-opacity:0.70588237;fill-rule:nonzero;stroke:none;stroke-width:3.75;stroke-linecap:round;stroke-linejoin:round;stroke-miterlimit:10;stroke-dasharray:none;stroke-dashoffset:0;stroke-opacity:1;paint-order:fill markers stroke"
   id="path22755-48"
   cx="223.64386"
   cy="-282.07947"
   rx="3.020185"
   ry="3.3977079"
   transform="scale(1,-1)" /><ellipse
   style="opacity:1;fill:#32ff00;fill-opacity:0.70588237;fill-rule:nonzero;stroke:none;stroke-width:3.75;stroke-linecap:round;stroke-linejoin:round;stroke-miterlimit:10;stroke-dasharray:none;stroke-dashoffset:0;stroke-opacity:1;paint-order:fill markers stroke"
   id="path22755-889"
   cx="388.99899"
   cy="-402.13184"
   rx="3.020185"
   ry="3.3977079"
   transform="scale(1,-1)" /><ellipse
   style="opacity:1;fill:#32ff00;fill-opacity:0.70588237;fill-rule:nonzero;stroke:none;stroke-width:3.75;stroke-linecap:round;stroke-linejoin:round;stroke-miterlimit:10;stroke-dasharray:none;stroke-dashoffset:0;stroke-opacity:1;paint-order:fill markers stroke"
   id="path22755-77"
   cx="352.00174"
   cy="-424.7832"
   rx="3.020185"
   ry="3.3977079"
   transform="scale(1,-1)" /><ellipse
   style="opacity:1;fill:#32ff00;fill-opacity:0.70588237;fill-rule:nonzero;stroke:none;stroke-width:3.75;stroke-linecap:round;stroke-linejoin:round;stroke-miterlimit:10;stroke-dasharray:none;stroke-dashoffset:0;stroke-opacity:1;paint-order:fill markers stroke"
   id="path22755-64"
   cx="257.62094"
   cy="-390.05109"
   rx="3.020185"
   ry="3.3977079"
   transform="scale(1,-1)" /><ellipse
   style="opacity:1;fill:#32ff00;fill-opacity:0.70588235;fill-rule:nonzero;stroke:none;stroke-width:3.75;stroke-linecap:round;stroke-linejoin:round;stroke-miterlimit:10;stroke-dasharray:none;stroke-dashoffset:0;stroke-opacity:1;paint-order:fill markers stroke"
   id="path22755-30"
   cx="399.56964"
   cy="-214.88036"
   rx="3.020185"
   ry="3.3977079"
   transform="scale(1,-1)" /><ellipse
   style="opacity:1;fill:#32ff00;fill-opacity:0.70588235;fill-rule:nonzero;stroke:none;stroke-width:3.75;stroke-linecap:round;stroke-linejoin:round;stroke-miterlimit:10;stroke-dasharray:none;stroke-dashoffset:0;stroke-opacity:1;paint-order:fill markers stroke"
   id="path22755-309"
   cx="314.24942"
   cy="-223.18587"
   rx="3.020185"
   ry="3.3977079"
   transform="scale(1,-1)" /><ellipse
   style="opacity:1;fill:#32ff00;fill-opacity:0.70588235;fill-rule:nonzero;stroke:none;stroke-width:3.75;stroke-linecap:round;stroke-linejoin:round;stroke-miterlimit:10;stroke-dasharray:none;stroke-dashoffset:0;stroke-opacity:1;paint-order:fill markers stroke"
   id="path22755-2"
   cx="412.40543"
   cy="-295.67032"
   rx="3.020185"
   ry="3.3977079"
   transform="scale(1,-1)" /><ellipse
   style="opacity:1;fill:#32ff00;fill-opacity:0.70588235;fill-rule:nonzero;stroke:none;stroke-width:3.75;stroke-linecap:round;stroke-linejoin:round;stroke-miterlimit:10;stroke-dasharray:none;stroke-dashoffset:0;stroke-opacity:1;paint-order:fill markers stroke"
   id="path22755-54"
   cx="444.11737"
   cy="-210.35008"
   rx="3.020185"
   ry="3.3977079"
   transform="scale(1,-1)" /><ellipse
   style="opacity:1;fill:#32ff00;fill-opacity:0.70588235;fill-rule:nonzero;stroke:none;stroke-width:3.75;stroke-linecap:round;stroke-linejoin:round;stroke-miterlimit:10;stroke-dasharray:none;stroke-dashoffset:0;stroke-opacity:1;paint-order:fill markers stroke"
   id="path22755-0"
   cx="354.26688"
   cy="-131.82527"
   rx="3.020185"
   ry="3.3977079"
   transform="scale(1,-1)" /><ellipse
   style="opacity:1;fill:#32ff00;fill-opacity:0.70588235;fill-rule:nonzero;stroke:none;stroke-width:3.75;stroke-linecap:round;stroke-linejoin:round;stroke-miterlimit:10;stroke-dasharray:none;stroke-dashoffset:0;stroke-opacity:1;paint-order:fill markers stroke"
   id="path22755-59"
   cx="176.07596"
   cy="-127.295"
   rx="3.020185"
   ry="3.3977079"
   transform="scale(1,-1)" /><ellipse
   style="opacity:1;fill:#32ff00;fill-opacity:0.70588235;fill-rule:nonzero;stroke:none;stroke-width:3.75;stroke-linecap:round;stroke-linejoin:round;stroke-miterlimit:10;stroke-dasharray:none;stroke-dashoffset:0;stroke-opacity:1;paint-order:fill markers stroke"
   id="path22755-46"
   cx="245.54021"
   cy="-196.00421"
   rx="3.020185"
   ry="3.3977079"
   transform="scale(1,-1)" /><ellipse
   style="opacity:1;fill:#32ff00;fill-opacity:0.70588235;fill-rule:nonzero;stroke:none;stroke-width:3.75;stroke-linecap:round;stroke-linejoin:round;stroke-miterlimit:10;stroke-dasharray:none;stroke-dashoffset:0;stroke-opacity:1;paint-order:fill markers stroke"
   id="path22755-92"
   cx="252.33562"
   cy="-129.56013"
   rx="3.020185"
   ry="3.3977079"
   transform="scale(1,-1)" /><ellipse
   style="opacity:1;fill:#32ff00;fill-opacity:0.70588235;fill-rule:nonzero;stroke:none;stroke-width:3.75;stroke-linecap:round;stroke-linejoin:round;stroke-miterlimit:10;stroke-dasharray:none;stroke-dashoffset:0;stroke-opacity:1;paint-order:fill markers stroke"
   id="path22755-24"
   cx="438.077"
   cy="-124.27481"
   rx="3.020185"
   ry="3.3977079"
   transform="scale(1,-1)" /><ellipse
   style="opacity:1;fill:#32ff00;fill-opacity:0.70588235;fill-rule:nonzero;stroke:none;stroke-width:3.75;stroke-linecap:round;stroke-linejoin:round;stroke-miterlimit:10;stroke-dasharray:none;stroke-dashoffset:0;stroke-opacity:1;paint-order:fill markers stroke"
   id="path22755-775"
   cx="444.87241"
   cy="-348.52356"
   rx="3.020185"
   ry="3.3977079"
   transform="scale(1,-1)" /><ellipse
   style="opacity:1;fill:#32ff00;fill-opacity:0.70588235;fill-rule:nonzero;stroke:none;stroke-width:3.75;stroke-linecap:round;stroke-linejoin:round;stroke-miterlimit:10;stroke-dasharray:none;stroke-dashoffset:0;stroke-opacity:1;paint-order:fill markers stroke"
   id="path22755-481"
   cx="399.56964"
   cy="-340.97308"
   rx="3.020185"
   ry="3.3977079"
   transform="scale(1,-1)" /><ellipse
   style="opacity:1;fill:#32ff00;fill-opacity:0.70588235;fill-rule:nonzero;stroke:none;stroke-width:3.75;stroke-linecap:round;stroke-linejoin:round;stroke-miterlimit:10;stroke-dasharray:none;stroke-dashoffset:0;stroke-opacity:1;paint-order:fill markers stroke"
   id="path22755-28"
   cx="352.00174"
   cy="-276.79416"
   rx="3.020185"
   ry="3.3977079"
   transform="scale(1,-1)" /><ellipse
   style="opacity:1;fill:#32ff00;fill-opacity:0.70588235;fill-rule:nonzero;stroke:none;stroke-width:3.75;stroke-linecap:round;stroke-linejoin:round;stroke-miterlimit:10;stroke-dasharray:none;stroke-dashoffset:0;stroke-opacity:1;paint-order:fill markers stroke"
   id="path22755-93"
   cx="361.06229"
   cy="-234.51157"
   rx="3.020185"
   ry="3.3977079"
   transform="scale(1,-1)" /><ellipse
   style="opacity:1;fill:#32ff00;fill-opacity:0.70588235;fill-rule:nonzero;stroke:none;stroke-width:3.75;stroke-linecap:round;stroke-linejoin:round;stroke-miterlimit:10;stroke-dasharray:none;stroke-dashoffset:0;stroke-opacity:1;paint-order:fill markers stroke"
   id="path22755-68"
   cx="126.2429"
   cy="-103.13351"
   rx="3.020185"
   ry="3.3977079"
   transform="scale(1,-1)" /><ellipse
   style="opacity:1;fill:#32ff00;fill-opacity:0.70588235;fill-rule:nonzero;stroke:none;stroke-width:3.75;stroke-linecap:round;stroke-linejoin:round;stroke-miterlimit:10;stroke-dasharray:none;stroke-dashoffset:0;stroke-opacity:1;paint-order:fill markers stroke"
   id="path22755-02"
   cx="289.33289"
   cy="-160.51703"
   rx="3.020185"
   ry="3.3977079"
   transform="scale(1,-1)" /><ellipse
   style="opacity:1;fill:#32ff00;fill-opacity:0.70588235;fill-rule:nonzero;stroke:none;stroke-width:3.75;stroke-linecap:round;stroke-linejoin:round;stroke-miterlimit:10;stroke-dasharray:none;stroke-dashoffset:0;stroke-opacity:1;paint-order:fill markers stroke"
   id="path22755-10"
   cx="318.02466"
   cy="-110.68398"
   rx="3.020185"
   ry="3.3977079"
   transform="scale(1,-1)" /><ellipse
   style="opacity:1;fill:#32ff00;fill-opacity:0.70588235;fill-rule:nonzero;stroke:none;stroke-width:3.75;stroke-linecap:round;stroke-linejoin:round;stroke-miterlimit:10;stroke-dasharray:none;stroke-dashoffset:0;stroke-opacity:1;paint-order:fill markers stroke"
   id="path22755-51"
   cx="380.69348"
   cy="-177.12805"
   rx="3.020185"
   ry="3.3977079"
   transform="scale(1,-1)" /><g
   id="g34152"
   style="fill:#e0c593;fill-opacity:1"
   ns1:jacobian_sqrt="3.146075"
   inkscapeversion="0.92.5"
   ns1:alignment="middle center"
   ns1:scale="2.35955653969"
   ns1:preamble="/home/guindon/.config/inkscape/extensions/textext/default_packages.tex"
   ns1:text="$\\pi(x)$\n\n"
   ns1:pdfconverter="pdf2svg"
   ns1:texconverter="pdflatex"
   ns1:version="0.11.1"
   transform="matrix(0,3.146075,3.146075,0,-405.79228,-240.16373)"><g
     style="fill:#e0c593;fill-opacity:1"
     id="surface1"><g
       id="g34137"
       style="fill:#e0c593;fill-opacity:1"><path
         inkscape:connector-curvature="0"
         id="path34135"
         transform="translate(148.712,134.765)"
         d="m 2.640625,-3.71875 h 1.125 C 3.4375,-2.25 3.34375,-1.8125 3.34375,-1.140625 c 0,0.140625 0,0.40625 0.078125,0.75 0.109375,0.4375 0.21875,0.5 0.359375,0.5 0.203125,0 0.421875,-0.171875 0.421875,-0.375 0,-0.0625 0,-0.078125 -0.0625,-0.21875 -0.296875,-0.71875 -0.296875,-1.375 -0.296875,-1.65625 0,-0.515625 0.078125,-1.0625 0.1875,-1.578125 h 1.125 c 0.140625,0 0.5,0 0.5,-0.34375 0,-0.234375 -0.21875,-0.234375 -0.40625,-0.234375 H 1.90625 c -0.21875,0 -0.59375,0 -1.03125,0.46875 -0.34375,0.390625 -0.609375,0.84375 -0.609375,0.890625 0,0.015625 0,0.109375 0.125,0.109375 0.078125,0 0.09375,-0.046875 0.15625,-0.125 C 1.03125,-3.71875 1.609375,-3.71875 1.8125,-3.71875 H 2.375 C 2.0625,-2.515625 1.53125,-1.3125 1.109375,-0.40625 1.03125,-0.25 1.03125,-0.234375 1.03125,-0.15625 c 0,0.1875 0.15625,0.265625 0.28125,0.265625 0.296875,0 0.375,-0.28125 0.5,-0.640625 C 1.953125,-1 1.953125,-1.015625 2.078125,-1.515625 Z m 0,0"
         style="fill:#e0c593;fill-opacity:1;stroke:none;stroke-width:0" /></g><g
       id="g34141"
       style="fill:#e0c593;fill-opacity:1"><path
         inkscape:connector-curvature="0"
         id="path34139"
         transform="translate(154.749,134.765)"
         d="m 3.296875,2.390625 c 0,-0.03125 0,-0.046875 -0.171875,-0.21875 C 1.890625,0.921875 1.5625,-0.96875 1.5625,-2.5 c 0,-1.734375 0.375,-3.46875 1.609375,-4.703125 0.125,-0.125 0.125,-0.140625 0.125,-0.171875 0,-0.078125 -0.03125,-0.109375 -0.09375,-0.109375 -0.109375,0 -1,0.6875 -1.59375,1.953125 -0.5,1.09375 -0.625,2.203125 -0.625,3.03125 0,0.78125 0.109375,1.984375 0.65625,3.125 C 2.25,1.84375 3.09375,2.5 3.203125,2.5 c 0.0625,0 0.09375,-0.03125 0.09375,-0.109375 z m 0,0"
         style="fill:#e0c593;fill-opacity:1;stroke:none;stroke-width:0" /></g><g
       id="g34145"
       style="fill:#e0c593;fill-opacity:1"><path
         inkscape:connector-curvature="0"
         id="path34143"
         transform="translate(158.623,134.765)"
         d="M 3.328125,-3.015625 C 3.390625,-3.265625 3.625,-4.1875 4.3125,-4.1875 c 0.046875,0 0.296875,0 0.5,0.125 C 4.53125,-4 4.34375,-3.765625 4.34375,-3.515625 c 0,0.15625 0.109375,0.34375 0.375,0.34375 0.21875,0 0.53125,-0.171875 0.53125,-0.578125 0,-0.515625 -0.578125,-0.65625 -0.921875,-0.65625 -0.578125,0 -0.921875,0.53125 -1.046875,0.75 -0.25,-0.65625 -0.78125,-0.75 -1.078125,-0.75 -1.03125,0 -1.609375,1.28125 -1.609375,1.53125 0,0.109375 0.109375,0.109375 0.125,0.109375 0.078125,0 0.109375,-0.03125 0.125,-0.109375 0.34375,-1.0625 1,-1.3125 1.34375,-1.3125 0.1875,0 0.53125,0.09375 0.53125,0.671875 0,0.3125 -0.171875,0.96875 -0.53125,2.375 -0.15625,0.609375 -0.515625,1.03125 -0.953125,1.03125 -0.0625,0 -0.28125,0 -0.5,-0.125 0.25,-0.0625 0.46875,-0.265625 0.46875,-0.546875 0,-0.265625 -0.21875,-0.34375 -0.359375,-0.34375 -0.3125,0 -0.546875,0.25 -0.546875,0.578125 0,0.453125 0.484375,0.65625 0.921875,0.65625 0.671875,0 1.03125,-0.703125 1.046875,-0.75 0.125,0.359375 0.484375,0.75 1.078125,0.75 1.03125,0 1.59375,-1.28125 1.59375,-1.53125 0,-0.109375 -0.078125,-0.109375 -0.109375,-0.109375 -0.09375,0 -0.109375,0.046875 -0.140625,0.109375 -0.328125,1.078125 -1,1.3125 -1.3125,1.3125 -0.390625,0 -0.546875,-0.3125 -0.546875,-0.65625 0,-0.21875 0.046875,-0.4375 0.15625,-0.875 z m 0,0"
         style="fill:#e0c593;fill-opacity:1;stroke:none;stroke-width:0" /></g><g
       id="g34149"
       style="fill:#e0c593;fill-opacity:1"><path
         inkscape:connector-curvature="0"
         id="path34147"
         transform="translate(164.317,134.765)"
         d="m 2.875,-2.5 c 0,-0.765625 -0.109375,-1.96875 -0.65625,-3.109375 -0.59375,-1.21875 -1.453125,-1.875 -1.546875,-1.875 -0.0625,0 -0.109375,0.046875 -0.109375,0.109375 0,0.03125 0,0.046875 0.1875,0.234375 0.984375,0.984375 1.546875,2.5625 1.546875,4.640625 0,1.71875 -0.359375,3.46875 -1.59375,4.71875 C 0.5625,2.34375 0.5625,2.359375 0.5625,2.390625 0.5625,2.453125 0.609375,2.5 0.671875,2.5 0.765625,2.5 1.671875,1.8125 2.25,0.546875 2.765625,-0.546875 2.875,-1.65625 2.875,-2.5 Z m 0,0"
         style="fill:#e0c593;fill-opacity:1;stroke:none;stroke-width:0" /></g></g></g></g></svg>