<?xml version="1.0" encoding="UTF-8" standalone="no"?>
<!-- Created with Inkscape (http://www.inkscape.org/) -->

<svg
   xmlns:ns1="http://www.iki.fi/pav/software/textext/"
   xmlns:dc="http://purl.org/dc/elements/1.1/"
   xmlns:cc="http://creativecommons.org/ns#"
   xmlns:rdf="http://www.w3.org/1999/02/22-rdf-syntax-ns#"
   xmlns:svg="http://www.w3.org/2000/svg"
   xmlns="http://www.w3.org/2000/svg"
   xmlns:sodipodi="http://sodipodi.sourceforge.net/DTD/sodipodi-0.dtd"
   xmlns:inkscape="http://www.inkscape.org/namespaces/inkscape"
   version="1.1"
   id="svg885"
   xml:space="preserve"
   width="641.40399"
   height="570.97064"
   viewBox="0 0 641.40399 570.97064"
   sodipodi:docname="expcdf.svg"
   inkscape:version="0.92.5 (2060ec1f9f, 2020-04-08)"><metadata
     id="metadata891"><rdf:RDF><cc:Work
         rdf:about=""><dc:format>image/svg+xml</dc:format><dc:type
           rdf:resource="http://purl.org/dc/dcmitype/StillImage" /><dc:title /></cc:Work></rdf:RDF></metadata><defs
     id="defs889"><clipPath
       clipPathUnits="userSpaceOnUse"
       id="clipPath903"><path
         d="M 59.04,73.44 H 473.76 V 444.96 H 59.04 Z"
         id="path901"
         inkscape:connector-curvature="0" /></clipPath></defs><sodipodi:namedview
     pagecolor="#ffffff"
     bordercolor="#666666"
     borderopacity="1"
     objecttolerance="10"
     gridtolerance="10"
     guidetolerance="10"
     inkscape:pageopacity="0"
     inkscape:pageshadow="2"
     inkscape:window-width="1848"
     inkscape:window-height="1016"
     id="namedview887"
     showgrid="false"
     inkscape:zoom="1.2738095"
     inkscape:cx="343.224"
     inkscape:cy="311.19064"
     inkscape:window-x="1992"
     inkscape:window-y="27"
     inkscape:window-maximized="1"
     inkscape:current-layer="g893"
     fit-margin-top="0"
     fit-margin-left="0"
     fit-margin-right="0"
     fit-margin-bottom="0" /><g
     id="g893"
     inkscape:groupmode="layer"
     inkscape:label="expcdf"
     transform="matrix(1.3333333,0,0,-1.3333333,7.2239957,595.77999)"><g
   id="g895"
   style="stroke-width:3.75;stroke-miterlimit:10;stroke-dasharray:none" /><path
   d="m 74.4,87.2 3.84,13.74 3.84,13.2 3.84,12.69 3.84,12.18 3.84,11.71 3.84,11.25 3.84,10.81 3.84,10.38 3.84,9.98 3.84,9.59 3.84,9.21 3.84,8.85 3.84,8.5 3.84,8.17 3.84,7.84 3.84,7.55 3.84,7.24 3.84,6.96 3.84,6.69 3.84,6.43 3.84,6.17 3.84,5.93 3.84,5.7 3.84,5.48 3.84,5.26 3.84,5.05 3.84,4.86 3.84,4.66 3.84,4.49 3.84,4.3 3.84,4.14 3.84,3.98 3.84,3.82 3.84,3.67 3.84,3.53 3.84,3.38 3.84,3.26 3.84,3.13 3.84,3 3.84,2.89 3.84,2.77 3.84,2.67 3.84,2.56 3.84,2.46 3.84,2.36 3.84,2.28 3.84,2.18 3.84,2.09 3.84,2.02 3.84,1.93 3.84,1.86 3.84,1.79 3.84,1.72 3.84,1.65 3.84,1.58 3.84,1.52 3.84,1.47 3.84,1.4 3.84,1.35 3.84,1.3 3.84,1.25 3.84,1.19 3.84,1.15 3.84,1.11 3.84,1.06 3.84,1.02 3.84,0.98 3.84,0.94 3.84,0.91 3.84,0.87 3.84,0.83 3.84,0.81 3.84,0.77 3.84,0.74 3.84,0.71 3.84,0.69 3.84,0.65 3.84,0.63 3.84,0.61 3.84,0.58 3.84,0.56 3.84,0.54 3.84,0.52 3.84,0.5 3.84,0.47 3.84,0.46 3.84,0.44 3.84,0.43 3.84,0.4 3.84,0.39 3.84,0.38 3.84,0.36 3.84,0.35 3.84,0.33 3.84,0.32 3.84,0.31 3.84,0.29 3.84,0.29 3.84,0.27 3.84,0.26"
   style="fill:none;stroke:#ce9326;stroke-width:3.75;stroke-linecap:round;stroke-linejoin:round;stroke-miterlimit:10;stroke-dasharray:none;stroke-opacity:1"
   id="path905"
   inkscape:connector-curvature="0" /><path
   inkscape:connector-curvature="0"
   id="path909"
   style="fill:none;stroke:#000000;stroke-width:3.75;stroke-linecap:round;stroke-linejoin:round;stroke-miterlimit:10;stroke-dasharray:none;stroke-opacity:1"
   d="m 74.4,73.44 h 384" /><path
   inkscape:connector-curvature="0"
   id="path911"
   style="fill:none;stroke:#000000;stroke-width:3.75;stroke-linecap:round;stroke-linejoin:round;stroke-miterlimit:10;stroke-dasharray:none;stroke-opacity:1"
   d="m 74.4,73.44 v -7.2" /><path
   inkscape:connector-curvature="0"
   id="path913"
   style="fill:none;stroke:#000000;stroke-width:3.75;stroke-linecap:round;stroke-linejoin:round;stroke-miterlimit:10;stroke-dasharray:none;stroke-opacity:1"
   d="m 170.4,73.44 v -7.2" /><path
   inkscape:connector-curvature="0"
   id="path915"
   style="fill:none;stroke:#000000;stroke-width:3.75;stroke-linecap:round;stroke-linejoin:round;stroke-miterlimit:10;stroke-dasharray:none;stroke-opacity:1"
   d="m 266.4,73.44 v -7.2" /><path
   inkscape:connector-curvature="0"
   id="path917"
   style="fill:none;stroke:#000000;stroke-width:3.75;stroke-linecap:round;stroke-linejoin:round;stroke-miterlimit:10;stroke-dasharray:none;stroke-opacity:1"
   d="m 362.4,73.44 v -7.2" /><path
   inkscape:connector-curvature="0"
   id="path919"
   style="fill:none;stroke:#000000;stroke-width:3.75;stroke-linecap:round;stroke-linejoin:round;stroke-miterlimit:10;stroke-dasharray:none;stroke-opacity:1"
   d="m 458.4,73.44 v -7.2" /><text
   id="text923"
   style="font-variant:normal;font-weight:normal;font-size:12px;font-family:Helvetica;-inkscape-font-specification:Helvetica;writing-mode:lr-tb;fill:#000000;fill-opacity:1;fill-rule:nonzero;stroke:none;stroke-width:3.75;stroke-miterlimit:10;stroke-dasharray:none"
   transform="scale(1,-1)"
   x="71.059998"
   y="-47.52"><tspan
     style="stroke-width:3.75;stroke-miterlimit:10;stroke-dasharray:none"
     id="tspan921"
     y="-47.52"
     x="71.059998">0</tspan></text>



<text
   id="text927"
   style="font-variant:normal;font-weight:normal;font-size:12px;font-family:Helvetica;-inkscape-font-specification:Helvetica;writing-mode:lr-tb;fill:#000000;fill-opacity:1;fill-rule:nonzero;stroke:none;stroke-width:3.75;stroke-miterlimit:10;stroke-dasharray:none"
   transform="scale(1,-1)"
   x="167.06"
   y="-47.52"><tspan
     style="stroke-width:3.75;stroke-miterlimit:10;stroke-dasharray:none"
     id="tspan925"
     y="-47.52"
     x="167.06">1</tspan></text>



<text
   id="text931"
   style="font-variant:normal;font-weight:normal;font-size:12px;font-family:Helvetica;-inkscape-font-specification:Helvetica;writing-mode:lr-tb;fill:#000000;fill-opacity:1;fill-rule:nonzero;stroke:none;stroke-width:3.75;stroke-miterlimit:10;stroke-dasharray:none"
   transform="scale(1,-1)"
   x="263.06"
   y="-47.52"><tspan
     style="stroke-width:3.75;stroke-miterlimit:10;stroke-dasharray:none"
     id="tspan929"
     y="-47.52"
     x="263.06">2</tspan></text>



<text
   id="text935"
   style="font-variant:normal;font-weight:normal;font-size:12px;font-family:Helvetica;-inkscape-font-specification:Helvetica;writing-mode:lr-tb;fill:#000000;fill-opacity:1;fill-rule:nonzero;stroke:none;stroke-width:3.75;stroke-miterlimit:10;stroke-dasharray:none"
   transform="scale(1,-1)"
   x="359.06"
   y="-47.52"><tspan
     style="stroke-width:3.75;stroke-miterlimit:10;stroke-dasharray:none"
     id="tspan933"
     y="-47.52"
     x="359.06">3</tspan></text>



<text
   id="text939"
   style="font-variant:normal;font-weight:normal;font-size:12px;font-family:Helvetica;-inkscape-font-specification:Helvetica;writing-mode:lr-tb;fill:#000000;fill-opacity:1;fill-rule:nonzero;stroke:none;stroke-width:3.75;stroke-miterlimit:10;stroke-dasharray:none"
   transform="scale(1,-1)"
   x="455.06"
   y="-47.52"><tspan
     style="stroke-width:3.75;stroke-miterlimit:10;stroke-dasharray:none"
     id="tspan937"
     y="-47.52"
     x="455.06">4</tspan></text>



<path
   inkscape:connector-curvature="0"
   id="path941"
   style="fill:none;stroke:#000000;stroke-width:3.75;stroke-linecap:round;stroke-linejoin:round;stroke-miterlimit:10;stroke-dasharray:none;stroke-opacity:1"
   d="M 59.04,87.2 V 437.62" /><path
   inkscape:connector-curvature="0"
   id="path943"
   style="fill:none;stroke:#000000;stroke-width:3.75;stroke-linecap:round;stroke-linejoin:round;stroke-miterlimit:10;stroke-dasharray:none;stroke-opacity:1"
   d="m 59.04,87.2 h -7.2" /><path
   inkscape:connector-curvature="0"
   id="path945"
   style="fill:none;stroke:#000000;stroke-width:3.75;stroke-linecap:round;stroke-linejoin:round;stroke-miterlimit:10;stroke-dasharray:none;stroke-opacity:1"
   d="m 59.04,157.28 h -7.2" /><path
   inkscape:connector-curvature="0"
   id="path947"
   style="fill:none;stroke:#000000;stroke-width:3.75;stroke-linecap:round;stroke-linejoin:round;stroke-miterlimit:10;stroke-dasharray:none;stroke-opacity:1"
   d="m 59.04,227.37 h -7.2" /><path
   inkscape:connector-curvature="0"
   id="path949"
   style="fill:none;stroke:#000000;stroke-width:3.75;stroke-linecap:round;stroke-linejoin:round;stroke-miterlimit:10;stroke-dasharray:none;stroke-opacity:1"
   d="m 59.04,297.45 h -7.2" /><path
   inkscape:connector-curvature="0"
   id="path951"
   style="fill:none;stroke:#000000;stroke-width:3.75;stroke-linecap:round;stroke-linejoin:round;stroke-miterlimit:10;stroke-dasharray:none;stroke-opacity:1"
   d="m 59.04,367.53 h -7.2" /><path
   inkscape:connector-curvature="0"
   id="path953"
   style="fill:none;stroke:#000000;stroke-width:3.75;stroke-linecap:round;stroke-linejoin:round;stroke-miterlimit:10;stroke-dasharray:none;stroke-opacity:1"
   d="m 59.04,437.62 h -7.2" /><text
   id="text957"
   style="font-variant:normal;font-weight:normal;font-size:12px;font-family:Helvetica;-inkscape-font-specification:Helvetica;writing-mode:lr-tb;fill:#000000;fill-opacity:1;fill-rule:nonzero;stroke:none;stroke-width:3.75;stroke-miterlimit:10;stroke-dasharray:none"
   transform="matrix(0,1,1,0,0,0)"
   x="78.860001"
   y="41.759998"><tspan
     id="tspan955"
     sodipodi:role="line"
     y="41.759998"
     x="78.860001 85.531998 88.868004">0.0</tspan></text>



<text
   id="text961"
   style="font-variant:normal;font-weight:normal;font-size:12px;font-family:Helvetica;-inkscape-font-specification:Helvetica;writing-mode:lr-tb;fill:#000000;fill-opacity:1;fill-rule:nonzero;stroke:none;stroke-width:3.75;stroke-miterlimit:10;stroke-dasharray:none"
   transform="matrix(0,1,1,0,0,0)"
   x="148.94"
   y="41.759998"><tspan
     id="tspan959"
     sodipodi:role="line"
     y="41.759998"
     x="148.94 155.612 158.948">0.2</tspan></text>



<text
   id="text965"
   style="font-variant:normal;font-weight:normal;font-size:12px;font-family:Helvetica;-inkscape-font-specification:Helvetica;writing-mode:lr-tb;fill:#000000;fill-opacity:1;fill-rule:nonzero;stroke:none;stroke-width:3.75;stroke-miterlimit:10;stroke-dasharray:none"
   transform="matrix(0,1,1,0,0,0)"
   x="219.03"
   y="41.759998"><tspan
     id="tspan963"
     sodipodi:role="line"
     y="41.759998"
     x="219.03 225.702 229.03799">0.4</tspan></text>



<text
   id="text969"
   style="font-variant:normal;font-weight:normal;font-size:12px;font-family:Helvetica;-inkscape-font-specification:Helvetica;writing-mode:lr-tb;fill:#000000;fill-opacity:1;fill-rule:nonzero;stroke:none;stroke-width:3.75;stroke-miterlimit:10;stroke-dasharray:none"
   transform="matrix(0,1,1,0,0,0)"
   x="289.10999"
   y="41.759998"><tspan
     id="tspan967"
     sodipodi:role="line"
     y="41.759998"
     x="289.10999 295.78201 299.11801">0.6</tspan></text>



<text
   id="text973"
   style="font-variant:normal;font-weight:normal;font-size:12px;font-family:Helvetica;-inkscape-font-specification:Helvetica;writing-mode:lr-tb;fill:#000000;fill-opacity:1;fill-rule:nonzero;stroke:none;stroke-width:3.75;stroke-miterlimit:10;stroke-dasharray:none"
   transform="matrix(0,1,1,0,0,0)"
   x="359.19"
   y="41.759998"><tspan
     id="tspan971"
     sodipodi:role="line"
     y="41.759998"
     x="359.19 365.862 369.198">0.8</tspan></text>



<text
   id="text977"
   style="font-variant:normal;font-weight:normal;font-size:12px;font-family:Helvetica;-inkscape-font-specification:Helvetica;writing-mode:lr-tb;fill:#000000;fill-opacity:1;fill-rule:nonzero;stroke:none;stroke-width:3.75;stroke-miterlimit:10;stroke-dasharray:none"
   transform="matrix(0,1,1,0,0,0)"
   x="429.28"
   y="41.759998"><tspan
     id="tspan975"
     sodipodi:role="line"
     y="41.759998"
     x="429.28 435.952 439.28799">1.0</tspan></text>



<path
   inkscape:connector-curvature="0"
   id="path979"
   style="fill:none;stroke:#ce9326;stroke-width:3.75;stroke-linecap:round;stroke-linejoin:round;stroke-miterlimit:10;stroke-dasharray:none;stroke-opacity:1"
   d="M 59.04,73.44 H 473.76 V 444.96 H 59.04 V 73.44" /><g
   id="g981"
   style="stroke-width:3.75;stroke-miterlimit:10;stroke-dasharray:none" /><g
   id="g5651"
   ns1:jacobian_sqrt="3.146075"
   inkscapeversion="0.92.5"
   ns1:alignment="middle center"
   ns1:scale="2.35955653969"
   ns1:preamble="/home/guindon/.config/inkscape/extensions/textext/default_packages.tex"
   ns1:text="$x$\n"
   ns1:pdfconverter="pdf2svg"
   ns1:texconverter="pdflatex"
   ns1:version="0.11.1"
   transform="matrix(3.146075,0,0,-3.146075,-210.64997,442.93192)"
   style="fill:#e0c593;fill-opacity:1"><g
   id="g5649"
   style="fill:#e0c593;fill-opacity:1">
<g
   id="g5647"
   style="fill:#e0c593;fill-opacity:1">
  <path
   id="path5645"
   transform="translate(148.712,134.765)"
   d="M 3.328125,-3.015625 C 3.390625,-3.265625 3.625,-4.1875 4.3125,-4.1875 c 0.046875,0 0.296875,0 0.5,0.125 C 4.53125,-4 4.34375,-3.765625 4.34375,-3.515625 c 0,0.15625 0.109375,0.34375 0.375,0.34375 0.21875,0 0.53125,-0.171875 0.53125,-0.578125 0,-0.515625 -0.578125,-0.65625 -0.921875,-0.65625 -0.578125,0 -0.921875,0.53125 -1.046875,0.75 -0.25,-0.65625 -0.78125,-0.75 -1.078125,-0.75 -1.03125,0 -1.609375,1.28125 -1.609375,1.53125 0,0.109375 0.109375,0.109375 0.125,0.109375 0.078125,0 0.109375,-0.03125 0.125,-0.109375 0.34375,-1.0625 1,-1.3125 1.34375,-1.3125 0.1875,0 0.53125,0.09375 0.53125,0.671875 0,0.3125 -0.171875,0.96875 -0.53125,2.375 -0.15625,0.609375 -0.515625,1.03125 -0.953125,1.03125 -0.0625,0 -0.28125,0 -0.5,-0.125 0.25,-0.0625 0.46875,-0.265625 0.46875,-0.546875 0,-0.265625 -0.21875,-0.34375 -0.359375,-0.34375 -0.3125,0 -0.546875,0.25 -0.546875,0.578125 0,0.453125 0.484375,0.65625 0.921875,0.65625 0.671875,0 1.03125,-0.703125 1.046875,-0.75 0.125,0.359375 0.484375,0.75 1.078125,0.75 1.03125,0 1.59375,-1.28125 1.59375,-1.53125 0,-0.109375 -0.078125,-0.109375 -0.109375,-0.109375 -0.09375,0 -0.109375,0.046875 -0.140625,0.109375 -0.328125,1.078125 -1,1.3125 -1.3125,1.3125 -0.390625,0 -0.546875,-0.3125 -0.546875,-0.65625 0,-0.21875 0.046875,-0.4375 0.15625,-0.875 z m 0,0"
   style="fill:#e0c593;fill-opacity:1;stroke:none;stroke-width:0"
   inkscape:connector-curvature="0" />
</g>
</g>
</g><g
   id="g5998"
   ns1:jacobian_sqrt="3.146075"
   inkscapeversion="0.92.5"
   ns1:alignment="middle center"
   ns1:scale="2.35955653969"
   ns1:preamble="/home/guindon/.config/inkscape/extensions/textext/default_packages.tex"
   ns1:text="$F(x)$\n"
   ns1:pdfconverter="pdf2svg"
   ns1:texconverter="pdflatex"
   ns1:version="0.11.1"
   transform="matrix(0,3.146075,3.146075,0,-405.72792,-263.07289)"
   style="fill:#e0c593;fill-opacity:1"><g
   id="surface1"
   style="fill:#e0c593;fill-opacity:1">
<g
   id="g5983"
   style="fill:#e0c593;fill-opacity:1">
  <path
   id="path5981"
   transform="translate(148.712,134.765)"
   d="m 3.015625,-3.234375 h 0.96875 c 0.75,0 0.828125,0.15625 0.828125,0.4375 0,0.078125 0,0.1875 -0.0625,0.5 C 4.71875,-2.25 4.71875,-2.21875 4.71875,-2.1875 c 0,0.078125 0.0625,0.109375 0.109375,0.109375 0.109375,0 0.109375,-0.03125 0.15625,-0.203125 L 5.53125,-4.453125 C 5.5625,-4.5625 5.5625,-4.578125 5.5625,-4.609375 5.5625,-4.625 5.546875,-4.71875 5.4375,-4.71875 5.34375,-4.71875 5.328125,-4.671875 5.296875,-4.5 5.078125,-3.734375 4.859375,-3.546875 4,-3.546875 H 3.09375 l 0.640625,-2.53125 C 3.828125,-6.4375 3.84375,-6.46875 4.28125,-6.46875 h 1.3125 c 1.21875,0 1.453125,0.328125 1.453125,1.09375 0,0.234375 0,0.265625 -0.03125,0.546875 C 7,-4.703125 7,-4.6875 7,-4.65625 c 0,0.046875 0.03125,0.125 0.125,0.125 0.109375,0 0.109375,-0.0625 0.125,-0.25 L 7.453125,-6.515625 C 7.484375,-6.78125 7.4375,-6.78125 7.1875,-6.78125 H 2.296875 c -0.1875,0 -0.296875,0 -0.296875,0.203125 0,0.109375 0.09375,0.109375 0.28125,0.109375 0.375,0 0.65625,0 0.65625,0.171875 0,0.046875 0,0.0625 -0.0625,0.25 L 1.5625,-0.78125 c -0.09375,0.390625 -0.109375,0.46875 -0.90625,0.46875 -0.171875,0 -0.28125,0 -0.28125,0.1875 C 0.375,0 0.5,0 0.53125,0 0.8125,0 1.5625,-0.03125 1.84375,-0.03125 2.171875,-0.03125 3,0 3.328125,0 3.421875,0 3.53125,0 3.53125,-0.1875 3.53125,-0.265625 3.484375,-0.296875 3.484375,-0.296875 3.453125,-0.3125 3.421875,-0.3125 3.203125,-0.3125 c -0.21875,0 -0.265625,0 -0.515625,-0.015625 -0.296875,-0.03125 -0.328125,-0.078125 -0.328125,-0.203125 0,-0.015625 0,-0.078125 0.046875,-0.21875 z m 0,0"
   style="stroke:none;stroke-width:0;fill:#e0c593;fill-opacity:1"
   inkscape:connector-curvature="0" />
</g>
<g
   id="g5987"
   style="fill:#e0c593;fill-opacity:1">
  <path
   id="path5985"
   transform="translate(156.503,134.765)"
   d="m 3.296875,2.390625 c 0,-0.03125 0,-0.046875 -0.171875,-0.21875 C 1.890625,0.921875 1.5625,-0.96875 1.5625,-2.5 c 0,-1.734375 0.375,-3.46875 1.609375,-4.703125 0.125,-0.125 0.125,-0.140625 0.125,-0.171875 0,-0.078125 -0.03125,-0.109375 -0.09375,-0.109375 -0.109375,0 -1,0.6875 -1.59375,1.953125 -0.5,1.09375 -0.625,2.203125 -0.625,3.03125 0,0.78125 0.109375,1.984375 0.65625,3.125 C 2.25,1.84375 3.09375,2.5 3.203125,2.5 c 0.0625,0 0.09375,-0.03125 0.09375,-0.109375 z m 0,0"
   style="stroke:none;stroke-width:0;fill:#e0c593;fill-opacity:1"
   inkscape:connector-curvature="0" />
</g>
<g
   id="g5991"
   style="fill:#e0c593;fill-opacity:1">
  <path
   id="path5989"
   transform="translate(160.377,134.765)"
   d="M 3.328125,-3.015625 C 3.390625,-3.265625 3.625,-4.1875 4.3125,-4.1875 c 0.046875,0 0.296875,0 0.5,0.125 C 4.53125,-4 4.34375,-3.765625 4.34375,-3.515625 c 0,0.15625 0.109375,0.34375 0.375,0.34375 0.21875,0 0.53125,-0.171875 0.53125,-0.578125 0,-0.515625 -0.578125,-0.65625 -0.921875,-0.65625 -0.578125,0 -0.921875,0.53125 -1.046875,0.75 -0.25,-0.65625 -0.78125,-0.75 -1.078125,-0.75 -1.03125,0 -1.609375,1.28125 -1.609375,1.53125 0,0.109375 0.109375,0.109375 0.125,0.109375 0.078125,0 0.109375,-0.03125 0.125,-0.109375 0.34375,-1.0625 1,-1.3125 1.34375,-1.3125 0.1875,0 0.53125,0.09375 0.53125,0.671875 0,0.3125 -0.171875,0.96875 -0.53125,2.375 -0.15625,0.609375 -0.515625,1.03125 -0.953125,1.03125 -0.0625,0 -0.28125,0 -0.5,-0.125 0.25,-0.0625 0.46875,-0.265625 0.46875,-0.546875 0,-0.265625 -0.21875,-0.34375 -0.359375,-0.34375 -0.3125,0 -0.546875,0.25 -0.546875,0.578125 0,0.453125 0.484375,0.65625 0.921875,0.65625 0.671875,0 1.03125,-0.703125 1.046875,-0.75 0.125,0.359375 0.484375,0.75 1.078125,0.75 1.03125,0 1.59375,-1.28125 1.59375,-1.53125 0,-0.109375 -0.078125,-0.109375 -0.109375,-0.109375 -0.09375,0 -0.109375,0.046875 -0.140625,0.109375 -0.328125,1.078125 -1,1.3125 -1.3125,1.3125 -0.390625,0 -0.546875,-0.3125 -0.546875,-0.65625 0,-0.21875 0.046875,-0.4375 0.15625,-0.875 z m 0,0"
   style="stroke:none;stroke-width:0;fill:#e0c593;fill-opacity:1"
   inkscape:connector-curvature="0" />
</g>
<g
   id="g5995"
   style="fill:#e0c593;fill-opacity:1">
  <path
   id="path5993"
   transform="translate(166.071,134.765)"
   d="m 2.875,-2.5 c 0,-0.765625 -0.109375,-1.96875 -0.65625,-3.109375 -0.59375,-1.21875 -1.453125,-1.875 -1.546875,-1.875 -0.0625,0 -0.109375,0.046875 -0.109375,0.109375 0,0.03125 0,0.046875 0.1875,0.234375 0.984375,0.984375 1.546875,2.5625 1.546875,4.640625 0,1.71875 -0.359375,3.46875 -1.59375,4.71875 C 0.5625,2.34375 0.5625,2.359375 0.5625,2.390625 0.5625,2.453125 0.609375,2.5 0.671875,2.5 0.765625,2.5 1.671875,1.8125 2.25,0.546875 2.765625,-0.546875 2.875,-1.65625 2.875,-2.5 Z m 0,0"
   style="stroke:none;stroke-width:0;fill:#e0c593;fill-opacity:1"
   inkscape:connector-curvature="0" />
</g>
</g>
</g></g></svg>