<?xml version="1.0" encoding="UTF-8" standalone="no"?>
<!-- Created with Inkscape (http://www.inkscape.org/) -->

<svg
   xmlns:ns1="http://www.iki.fi/pav/software/textext/"
   xmlns:dc="http://purl.org/dc/elements/1.1/"
   xmlns:cc="http://creativecommons.org/ns#"
   xmlns:rdf="http://www.w3.org/1999/02/22-rdf-syntax-ns#"
   xmlns:svg="http://www.w3.org/2000/svg"
   xmlns="http://www.w3.org/2000/svg"
   xmlns:sodipodi="http://sodipodi.sourceforge.net/DTD/sodipodi-0.dtd"
   xmlns:inkscape="http://www.inkscape.org/namespaces/inkscape"
   version="1.1"
   id="svg983"
   xml:space="preserve"
   width="642"
   height="580"
   viewBox="0 0 642 580"
   sodipodi:docname="expdensprob.svg"
   inkscape:version="0.92.5 (2060ec1f9f, 2020-04-08)"><metadata
     id="metadata989"><rdf:RDF><cc:Work
         rdf:about=""><dc:format>image/svg+xml</dc:format><dc:type
           rdf:resource="http://purl.org/dc/dcmitype/StillImage" /><dc:title /></cc:Work></rdf:RDF></metadata><defs
     id="defs987"><clipPath
       clipPathUnits="userSpaceOnUse"
       id="clipPath1001"><path
         d="M 59.04,73.44 H 473.76 V 444.96 H 59.04 Z"
         id="path999"
         inkscape:connector-curvature="0" /></clipPath></defs><sodipodi:namedview
     pagecolor="#ffffff"
     bordercolor="#666666"
     borderopacity="1"
     objecttolerance="10"
     gridtolerance="10"
     guidetolerance="10"
     inkscape:pageopacity="0"
     inkscape:pageshadow="2"
     inkscape:window-width="1848"
     inkscape:window-height="1016"
     id="namedview985"
     showgrid="false"
     inkscape:zoom="0.99331667"
     inkscape:cx="-197.02227"
     inkscape:cy="319.29017"
     inkscape:window-x="1992"
     inkscape:window-y="27"
     inkscape:window-maximized="1"
     inkscape:current-layer="g991"
     fit-margin-top="0"
     fit-margin-left="0"
     fit-margin-right="0"
     fit-margin-bottom="0" /><g
     id="g991"
     inkscape:groupmode="layer"
     inkscape:label="expdens"
     transform="matrix(1.3333333,0,0,-1.3333333,4.552847,596.70986)"><g
   id="g993"
   style="stroke-width:3.75;stroke-miterlimit:10;stroke-dasharray:none" /><g
   id="g995"
   style="stroke:#ce9326;stroke-width:3.75;stroke-miterlimit:10;stroke-dasharray:none;stroke-opacity:1"><g
     id="g997"
     clip-path="url(#clipPath1001)"
     style="stroke:#ce9326;stroke-width:3.75;stroke-miterlimit:10;stroke-dasharray:none;stroke-opacity:1"><path
       d="m 74.4,431.2 3.84,-13.74 3.84,-13.2 3.84,-12.69 3.84,-12.18 3.84,-11.71 3.84,-11.25 3.84,-10.81 3.84,-10.38 3.84,-9.98 3.84,-9.59 3.84,-9.21 3.84,-8.85 3.84,-8.5 3.84,-8.17 3.84,-7.84 3.84,-7.55 3.84,-7.24 3.84,-6.96 3.84,-6.69 3.84,-6.43 3.84,-6.17 3.84,-5.93 3.84,-5.7 3.84,-5.48 3.84,-5.26 3.84,-5.05 3.84,-4.86 3.84,-4.66 3.84,-4.49 3.84,-4.3 3.84,-4.14 3.84,-3.98 3.84,-3.82 3.84,-3.67 3.84,-3.53 3.84,-3.38 3.84,-3.26 3.84,-3.13 3.84,-3 3.84,-2.89 3.84,-2.77 3.84,-2.67 3.84,-2.56 3.84,-2.46 3.84,-2.36 3.84,-2.28 3.84,-2.18 3.84,-2.09 3.84,-2.02 3.84,-1.93 3.84,-1.86 3.84,-1.79 3.84,-1.72 3.84,-1.65 3.84,-1.58 3.84,-1.52 3.84,-1.47 3.84,-1.4 3.84,-1.35 3.84,-1.3 3.84,-1.25 3.84,-1.19 3.84,-1.15 3.84,-1.11 3.84,-1.06 3.84,-1.02 3.84,-0.98 3.84,-0.94 3.84,-0.91 3.84,-0.87 3.84,-0.83 3.84,-0.81 3.84,-0.77 3.84,-0.74 3.84,-0.71 3.84,-0.69 3.84,-0.65 3.84,-0.63 3.84,-0.61 3.84,-0.58 3.84,-0.56 3.84,-0.54 3.84,-0.52 3.84,-0.5 3.84,-0.47 3.84,-0.46 3.84,-0.44 3.84,-0.43 3.84,-0.4 3.84,-0.39 3.84,-0.38 3.84,-0.36 3.84,-0.35 3.84,-0.33 3.84,-0.32 3.84,-0.31 3.84,-0.29 3.84,-0.29 3.84,-0.27 3.84,-0.26"
       style="fill:none;stroke:#ce9326;stroke-width:3.75;stroke-linecap:round;stroke-linejoin:round;stroke-miterlimit:10;stroke-dasharray:none;stroke-opacity:1"
       id="path1003"
       inkscape:connector-curvature="0" /></g></g><path
   inkscape:connector-curvature="0"
   id="path1007"
   style="fill:none;stroke:#000000;stroke-width:3.75;stroke-linecap:round;stroke-linejoin:round;stroke-miterlimit:10;stroke-dasharray:none;stroke-opacity:1"
   d="m 74.4,73.44 h 384" /><path
   inkscape:connector-curvature="0"
   id="path1009"
   style="fill:none;stroke:#000000;stroke-width:3.75;stroke-linecap:round;stroke-linejoin:round;stroke-miterlimit:10;stroke-dasharray:none;stroke-opacity:1"
   d="m 74.4,73.44 v -7.2" /><path
   inkscape:connector-curvature="0"
   id="path1011"
   style="fill:none;stroke:#000000;stroke-width:3.75;stroke-linecap:round;stroke-linejoin:round;stroke-miterlimit:10;stroke-dasharray:none;stroke-opacity:1"
   d="m 170.4,73.44 v -7.2" /><path
   inkscape:connector-curvature="0"
   id="path1013"
   style="fill:none;stroke:#000000;stroke-width:3.75;stroke-linecap:round;stroke-linejoin:round;stroke-miterlimit:10;stroke-dasharray:none;stroke-opacity:1"
   d="m 266.4,73.44 v -7.2" /><path
   inkscape:connector-curvature="0"
   id="path1015"
   style="fill:none;stroke:#000000;stroke-width:3.75;stroke-linecap:round;stroke-linejoin:round;stroke-miterlimit:10;stroke-dasharray:none;stroke-opacity:1"
   d="m 362.4,73.44 v -7.2" /><path
   inkscape:connector-curvature="0"
   id="path1017"
   style="fill:none;stroke:#000000;stroke-width:3.75;stroke-linecap:round;stroke-linejoin:round;stroke-miterlimit:10;stroke-dasharray:none;stroke-opacity:1"
   d="m 458.4,73.44 v -7.2" /><text
   id="text1021"
   style="font-variant:normal;font-weight:normal;font-size:12px;font-family:Helvetica;-inkscape-font-specification:Helvetica;writing-mode:lr-tb;fill:#000000;fill-opacity:1;fill-rule:nonzero;stroke:none;stroke-width:3.75;stroke-miterlimit:10;stroke-dasharray:none"
   transform="scale(1,-1)"
   x="71.059998"
   y="-47.52"><tspan
     id="tspan1019"
     y="-47.52"
     x="71.059998"
     style="stroke-width:3.75;stroke-miterlimit:10;stroke-dasharray:none">0</tspan></text>





<text
   id="text1025"
   style="font-variant:normal;font-weight:normal;font-size:12px;font-family:Helvetica;-inkscape-font-specification:Helvetica;writing-mode:lr-tb;fill:#000000;fill-opacity:1;fill-rule:nonzero;stroke:none;stroke-width:3.75;stroke-miterlimit:10;stroke-dasharray:none"
   transform="scale(1,-1)"
   x="167.06"
   y="-47.52"><tspan
     id="tspan1023"
     y="-47.52"
     x="167.06"
     style="stroke-width:3.75;stroke-miterlimit:10;stroke-dasharray:none">1</tspan></text>





<text
   id="text1029"
   style="font-variant:normal;font-weight:normal;font-size:12px;font-family:Helvetica;-inkscape-font-specification:Helvetica;writing-mode:lr-tb;fill:#000000;fill-opacity:1;fill-rule:nonzero;stroke:none;stroke-width:3.75;stroke-miterlimit:10;stroke-dasharray:none"
   transform="scale(1,-1)"
   x="263.06"
   y="-47.52"><tspan
     id="tspan1027"
     y="-47.52"
     x="263.06"
     style="stroke-width:3.75;stroke-miterlimit:10;stroke-dasharray:none">2</tspan></text>





<text
   id="text1033"
   style="font-variant:normal;font-weight:normal;font-size:12px;font-family:Helvetica;-inkscape-font-specification:Helvetica;writing-mode:lr-tb;fill:#000000;fill-opacity:1;fill-rule:nonzero;stroke:none;stroke-width:3.75;stroke-miterlimit:10;stroke-dasharray:none"
   transform="scale(1,-1)"
   x="359.06"
   y="-47.52"><tspan
     id="tspan1031"
     y="-47.52"
     x="359.06"
     style="stroke-width:3.75;stroke-miterlimit:10;stroke-dasharray:none">3</tspan></text>





<text
   id="text1037"
   style="font-variant:normal;font-weight:normal;font-size:12px;font-family:Helvetica;-inkscape-font-specification:Helvetica;writing-mode:lr-tb;fill:#000000;fill-opacity:1;fill-rule:nonzero;stroke:none;stroke-width:3.75;stroke-miterlimit:10;stroke-dasharray:none"
   transform="scale(1,-1)"
   x="455.06"
   y="-47.52"><tspan
     id="tspan1035"
     y="-47.52"
     x="455.06"
     style="stroke-width:3.75;stroke-miterlimit:10;stroke-dasharray:none">4</tspan></text>





<path
   inkscape:connector-curvature="0"
   id="path1039"
   style="fill:none;stroke:#000000;stroke-width:3.75;stroke-linecap:round;stroke-linejoin:round;stroke-miterlimit:10;stroke-dasharray:none;stroke-opacity:1"
   d="M 59.04,80.78 V 431.2" /><path
   inkscape:connector-curvature="0"
   id="path1041"
   style="fill:none;stroke:#000000;stroke-width:3.75;stroke-linecap:round;stroke-linejoin:round;stroke-miterlimit:10;stroke-dasharray:none;stroke-opacity:1"
   d="m 59.04,80.78 h -7.2" /><path
   inkscape:connector-curvature="0"
   id="path1043"
   style="fill:none;stroke:#000000;stroke-width:3.75;stroke-linecap:round;stroke-linejoin:round;stroke-miterlimit:10;stroke-dasharray:none;stroke-opacity:1"
   d="m 59.04,150.87 h -7.2" /><path
   inkscape:connector-curvature="0"
   id="path1045"
   style="fill:none;stroke:#000000;stroke-width:3.75;stroke-linecap:round;stroke-linejoin:round;stroke-miterlimit:10;stroke-dasharray:none;stroke-opacity:1"
   d="m 59.04,220.95 h -7.2" /><path
   inkscape:connector-curvature="0"
   id="path1047"
   style="fill:none;stroke:#000000;stroke-width:3.75;stroke-linecap:round;stroke-linejoin:round;stroke-miterlimit:10;stroke-dasharray:none;stroke-opacity:1"
   d="m 59.04,291.03 h -7.2" /><path
   inkscape:connector-curvature="0"
   id="path1049"
   style="fill:none;stroke:#000000;stroke-width:3.75;stroke-linecap:round;stroke-linejoin:round;stroke-miterlimit:10;stroke-dasharray:none;stroke-opacity:1"
   d="m 59.04,361.12 h -7.2" /><path
   inkscape:connector-curvature="0"
   id="path1051"
   style="fill:none;stroke:#000000;stroke-width:3.75;stroke-linecap:round;stroke-linejoin:round;stroke-miterlimit:10;stroke-dasharray:none;stroke-opacity:1"
   d="m 59.04,431.2 h -7.2" /><text
   id="text1055"
   style="font-variant:normal;font-weight:normal;font-size:12px;font-family:Helvetica;-inkscape-font-specification:Helvetica;writing-mode:lr-tb;fill:#000000;fill-opacity:1;fill-rule:nonzero;stroke:none;stroke-width:3.75;stroke-miterlimit:10;stroke-dasharray:none"
   transform="matrix(0,1,1,0,0,0)"
   x="72.440002"
   y="41.759998"><tspan
     id="tspan1053"
     sodipodi:role="line"
     y="41.759998"
     x="72.440002 79.112 82.447998">0.0</tspan></text>





<text
   id="text1059"
   style="font-variant:normal;font-weight:normal;font-size:12px;font-family:Helvetica;-inkscape-font-specification:Helvetica;writing-mode:lr-tb;fill:#000000;fill-opacity:1;fill-rule:nonzero;stroke:none;stroke-width:3.75;stroke-miterlimit:10;stroke-dasharray:none"
   transform="matrix(0,1,1,0,0,0)"
   x="142.53"
   y="41.759998"><tspan
     id="tspan1057"
     sodipodi:role="line"
     y="41.759998"
     x="142.53 149.202 152.53799">0.2</tspan></text>





<text
   id="text1063"
   style="font-variant:normal;font-weight:normal;font-size:12px;font-family:Helvetica;-inkscape-font-specification:Helvetica;writing-mode:lr-tb;fill:#000000;fill-opacity:1;fill-rule:nonzero;stroke:none;stroke-width:3.75;stroke-miterlimit:10;stroke-dasharray:none"
   transform="matrix(0,1,1,0,0,0)"
   x="212.61"
   y="41.759998"><tspan
     id="tspan1061"
     sodipodi:role="line"
     y="41.759998"
     x="212.61 219.282 222.618">0.4</tspan></text>





<text
   id="text1067"
   style="font-variant:normal;font-weight:normal;font-size:12px;font-family:Helvetica;-inkscape-font-specification:Helvetica;writing-mode:lr-tb;fill:#000000;fill-opacity:1;fill-rule:nonzero;stroke:none;stroke-width:3.75;stroke-miterlimit:10;stroke-dasharray:none"
   transform="matrix(0,1,1,0,0,0)"
   x="282.69"
   y="41.759998"><tspan
     id="tspan1065"
     sodipodi:role="line"
     y="41.759998"
     x="282.69 289.362 292.698">0.6</tspan></text>





<text
   id="text1071"
   style="font-variant:normal;font-weight:normal;font-size:12px;font-family:Helvetica;-inkscape-font-specification:Helvetica;writing-mode:lr-tb;fill:#000000;fill-opacity:1;fill-rule:nonzero;stroke:none;stroke-width:3.75;stroke-miterlimit:10;stroke-dasharray:none"
   transform="matrix(0,1,1,0,0,0)"
   x="352.78"
   y="41.759998"><tspan
     id="tspan1069"
     sodipodi:role="line"
     y="41.759998"
     x="352.78 359.452 362.78799">0.8</tspan></text>





<text
   id="text1075"
   style="font-variant:normal;font-weight:normal;font-size:12px;font-family:Helvetica;-inkscape-font-specification:Helvetica;writing-mode:lr-tb;fill:#000000;fill-opacity:1;fill-rule:nonzero;stroke:none;stroke-width:3.75;stroke-miterlimit:10;stroke-dasharray:none"
   transform="matrix(0,1,1,0,0,0)"
   x="422.85999"
   y="41.759998"><tspan
     id="tspan1073"
     sodipodi:role="line"
     y="41.759998"
     x="422.85999 429.53201 432.86801">1.0</tspan></text>





<path
   inkscape:connector-curvature="0"
   id="path1077"
   style="fill:none;stroke:#ce9326;stroke-width:3.75;stroke-linecap:round;stroke-linejoin:round;stroke-miterlimit:10;stroke-dasharray:none;stroke-opacity:1"
   d="M 59.04,73.44 H 473.76 V 444.96 H 59.04 V 73.44" /><g
   id="g1079"
   style="stroke-width:3.75;stroke-miterlimit:10;stroke-dasharray:none" /><g
   id="g5906"
   ns1:jacobian_sqrt="3.146075"
   inkscapeversion="0.92.5"
   ns1:alignment="middle center"
   ns1:scale="2.35955653969"
   ns1:preamble="/home/guindon/.config/inkscape/extensions/textext/default_packages.tex"
   ns1:text="$x$\n"
   ns1:pdfconverter="pdf2svg"
   ns1:texconverter="pdflatex"
   ns1:version="0.11.1"
   transform="matrix(3.146075,0,0,-3.146075,-207.02862,436.85727)"
   style="fill:#e0c593;fill-opacity:1"><g
   id="g5904"
   style="fill:#e0c593;fill-opacity:1">
<g
   id="g5902"
   style="fill:#e0c593;fill-opacity:1">
  <path
   id="path5900"
   transform="translate(148.712,134.765)"
   d="M 3.328125,-3.015625 C 3.390625,-3.265625 3.625,-4.1875 4.3125,-4.1875 c 0.046875,0 0.296875,0 0.5,0.125 C 4.53125,-4 4.34375,-3.765625 4.34375,-3.515625 c 0,0.15625 0.109375,0.34375 0.375,0.34375 0.21875,0 0.53125,-0.171875 0.53125,-0.578125 0,-0.515625 -0.578125,-0.65625 -0.921875,-0.65625 -0.578125,0 -0.921875,0.53125 -1.046875,0.75 -0.25,-0.65625 -0.78125,-0.75 -1.078125,-0.75 -1.03125,0 -1.609375,1.28125 -1.609375,1.53125 0,0.109375 0.109375,0.109375 0.125,0.109375 0.078125,0 0.109375,-0.03125 0.125,-0.109375 0.34375,-1.0625 1,-1.3125 1.34375,-1.3125 0.1875,0 0.53125,0.09375 0.53125,0.671875 0,0.3125 -0.171875,0.96875 -0.53125,2.375 -0.15625,0.609375 -0.515625,1.03125 -0.953125,1.03125 -0.0625,0 -0.28125,0 -0.5,-0.125 0.25,-0.0625 0.46875,-0.265625 0.46875,-0.546875 0,-0.265625 -0.21875,-0.34375 -0.359375,-0.34375 -0.3125,0 -0.546875,0.25 -0.546875,0.578125 0,0.453125 0.484375,0.65625 0.921875,0.65625 0.671875,0 1.03125,-0.703125 1.046875,-0.75 0.125,0.359375 0.484375,0.75 1.078125,0.75 1.03125,0 1.59375,-1.28125 1.59375,-1.53125 0,-0.109375 -0.078125,-0.109375 -0.109375,-0.109375 -0.09375,0 -0.109375,0.046875 -0.140625,0.109375 -0.328125,1.078125 -1,1.3125 -1.3125,1.3125 -0.390625,0 -0.546875,-0.3125 -0.546875,-0.65625 0,-0.21875 0.046875,-0.4375 0.15625,-0.875 z m 0,0"
   style="fill:#e0c593;fill-opacity:1;stroke:none;stroke-width:0"
   inkscape:connector-curvature="0" />
</g>
</g>
</g><rect
   style="opacity:1;fill:#90cc64;fill-opacity:1;fill-rule:nonzero;stroke:none;stroke-width:3.75;stroke-linecap:round;stroke-linejoin:round;stroke-miterlimit:10;stroke-dasharray:none;stroke-dashoffset:0;stroke-opacity:1;paint-order:fill markers stroke"
   id="rect6093"
   width="12.08074"
   height="240.10469"
   x="109.08726"
   y="-314.5509"
   transform="scale(1,-1)"
   rx="0.60000002"
   ry="0.67500001" /><g
   id="g6166"
   ns1:jacobian_sqrt="3.146075"
   inkscapeversion="0.92.5"
   ns1:alignment="middle center"
   ns1:scale="2.35955653969"
   ns1:preamble="/home/guindon/.config/inkscape/extensions/textext/default_packages.tex"
   ns1:text="$\\mathrm{d}x$\n"
   ns1:pdfconverter="pdf2svg"
   ns1:texconverter="pdflatex"
   ns1:version="0.11.1"
   transform="matrix(2.0641397,0,0,-2.0641397,-204.33069,330.85372)"
   style="fill:#90cc64;fill-opacity:1;stroke:#90cc64;stroke-opacity:1"><g
   id="g6164"
   style="fill:#90cc64;fill-opacity:1;stroke:#90cc64;stroke-opacity:1">
<g
   id="g6158"
   style="fill:#90cc64;fill-opacity:1;stroke:#90cc64;stroke-opacity:1">
  <path
   id="path6156"
   transform="translate(148.712,134.765)"
   d="m 3.78125,-0.546875 v 0.65625 L 5.25,0 v -0.3125 c -0.6875,0 -0.78125,-0.0625 -0.78125,-0.5625 V -6.921875 L 3.046875,-6.8125 V -6.5 c 0.6875,0 0.765625,0.0625 0.765625,0.5625 v 2.15625 c -0.28125,-0.359375 -0.71875,-0.625 -1.25,-0.625 -1.171875,0 -2.21875,0.984375 -2.21875,2.265625 0,1.265625 0.96875,2.25 2.109375,2.25 0.640625,0 1.078125,-0.34375 1.328125,-0.65625 z m 0,-2.671875 v 2.046875 c 0,0.171875 0,0.1875 -0.109375,0.359375 C 3.375,-0.328125 2.9375,-0.109375 2.5,-0.109375 2.046875,-0.109375 1.6875,-0.375 1.453125,-0.75 1.203125,-1.15625 1.171875,-1.71875 1.171875,-2.140625 1.171875,-2.5 1.1875,-3.09375 1.46875,-3.546875 1.6875,-3.859375 2.0625,-4.1875 2.609375,-4.1875 c 0.34375,0 0.765625,0.15625 1.0625,0.59375 0.109375,0.171875 0.109375,0.1875 0.109375,0.375 z m 0,0"
   style="fill:#90cc64;fill-opacity:1;stroke:#90cc64;stroke-width:0;stroke-opacity:1"
   inkscape:connector-curvature="0" />
</g>
<g
   id="g6162"
   style="fill:#90cc64;fill-opacity:1;stroke:#90cc64;stroke-opacity:1">
  <path
   id="path6160"
   transform="translate(154.247,134.765)"
   d="M 3.328125,-3.015625 C 3.390625,-3.265625 3.625,-4.1875 4.3125,-4.1875 c 0.046875,0 0.296875,0 0.5,0.125 C 4.53125,-4 4.34375,-3.765625 4.34375,-3.515625 c 0,0.15625 0.109375,0.34375 0.375,0.34375 0.21875,0 0.53125,-0.171875 0.53125,-0.578125 0,-0.515625 -0.578125,-0.65625 -0.921875,-0.65625 -0.578125,0 -0.921875,0.53125 -1.046875,0.75 -0.25,-0.65625 -0.78125,-0.75 -1.078125,-0.75 -1.03125,0 -1.609375,1.28125 -1.609375,1.53125 0,0.109375 0.109375,0.109375 0.125,0.109375 0.078125,0 0.109375,-0.03125 0.125,-0.109375 0.34375,-1.0625 1,-1.3125 1.34375,-1.3125 0.1875,0 0.53125,0.09375 0.53125,0.671875 0,0.3125 -0.171875,0.96875 -0.53125,2.375 -0.15625,0.609375 -0.515625,1.03125 -0.953125,1.03125 -0.0625,0 -0.28125,0 -0.5,-0.125 0.25,-0.0625 0.46875,-0.265625 0.46875,-0.546875 0,-0.265625 -0.21875,-0.34375 -0.359375,-0.34375 -0.3125,0 -0.546875,0.25 -0.546875,0.578125 0,0.453125 0.484375,0.65625 0.921875,0.65625 0.671875,0 1.03125,-0.703125 1.046875,-0.75 0.125,0.359375 0.484375,0.75 1.078125,0.75 1.03125,0 1.59375,-1.28125 1.59375,-1.53125 0,-0.109375 -0.078125,-0.109375 -0.109375,-0.109375 -0.09375,0 -0.109375,0.046875 -0.140625,0.109375 -0.328125,1.078125 -1,1.3125 -1.3125,1.3125 -0.390625,0 -0.546875,-0.3125 -0.546875,-0.65625 0,-0.21875 0.046875,-0.4375 0.15625,-0.875 z m 0,0"
   style="fill:#90cc64;fill-opacity:1;stroke:#90cc64;stroke-width:0;stroke-opacity:1"
   inkscape:connector-curvature="0" />
</g>
</g>
</g><g
   id="g34152"
   style="fill:#e0c593;fill-opacity:1"
   ns1:jacobian_sqrt="3.146075"
   inkscapeversion="0.92.5"
   ns1:alignment="middle center"
   ns1:scale="2.35955653969"
   ns1:preamble="/home/guindon/.config/inkscape/extensions/textext/default_packages.tex"
   ns1:text="$\\pi(x)$\n\n"
   ns1:pdfconverter="pdf2svg"
   ns1:texconverter="pdflatex"
   ns1:version="0.11.1"
   transform="matrix(0,3.146075,3.146075,0,-402.18876,-256.79032)"><g
     style="fill:#e0c593;fill-opacity:1"
     id="surface1"><g
       id="g34137"
       style="fill:#e0c593;fill-opacity:1"><path
         inkscape:connector-curvature="0"
         id="path34135"
         transform="translate(148.712,134.765)"
         d="m 2.640625,-3.71875 h 1.125 C 3.4375,-2.25 3.34375,-1.8125 3.34375,-1.140625 c 0,0.140625 0,0.40625 0.078125,0.75 0.109375,0.4375 0.21875,0.5 0.359375,0.5 0.203125,0 0.421875,-0.171875 0.421875,-0.375 0,-0.0625 0,-0.078125 -0.0625,-0.21875 -0.296875,-0.71875 -0.296875,-1.375 -0.296875,-1.65625 0,-0.515625 0.078125,-1.0625 0.1875,-1.578125 h 1.125 c 0.140625,0 0.5,0 0.5,-0.34375 0,-0.234375 -0.21875,-0.234375 -0.40625,-0.234375 H 1.90625 c -0.21875,0 -0.59375,0 -1.03125,0.46875 -0.34375,0.390625 -0.609375,0.84375 -0.609375,0.890625 0,0.015625 0,0.109375 0.125,0.109375 0.078125,0 0.09375,-0.046875 0.15625,-0.125 C 1.03125,-3.71875 1.609375,-3.71875 1.8125,-3.71875 H 2.375 C 2.0625,-2.515625 1.53125,-1.3125 1.109375,-0.40625 1.03125,-0.25 1.03125,-0.234375 1.03125,-0.15625 c 0,0.1875 0.15625,0.265625 0.28125,0.265625 0.296875,0 0.375,-0.28125 0.5,-0.640625 C 1.953125,-1 1.953125,-1.015625 2.078125,-1.515625 Z m 0,0"
         style="fill:#e0c593;fill-opacity:1;stroke:none;stroke-width:0" /></g><g
       id="g34141"
       style="fill:#e0c593;fill-opacity:1"><path
         inkscape:connector-curvature="0"
         id="path34139"
         transform="translate(154.749,134.765)"
         d="m 3.296875,2.390625 c 0,-0.03125 0,-0.046875 -0.171875,-0.21875 C 1.890625,0.921875 1.5625,-0.96875 1.5625,-2.5 c 0,-1.734375 0.375,-3.46875 1.609375,-4.703125 0.125,-0.125 0.125,-0.140625 0.125,-0.171875 0,-0.078125 -0.03125,-0.109375 -0.09375,-0.109375 -0.109375,0 -1,0.6875 -1.59375,1.953125 -0.5,1.09375 -0.625,2.203125 -0.625,3.03125 0,0.78125 0.109375,1.984375 0.65625,3.125 C 2.25,1.84375 3.09375,2.5 3.203125,2.5 c 0.0625,0 0.09375,-0.03125 0.09375,-0.109375 z m 0,0"
         style="fill:#e0c593;fill-opacity:1;stroke:none;stroke-width:0" /></g><g
       id="g34145"
       style="fill:#e0c593;fill-opacity:1"><path
         inkscape:connector-curvature="0"
         id="path34143"
         transform="translate(158.623,134.765)"
         d="M 3.328125,-3.015625 C 3.390625,-3.265625 3.625,-4.1875 4.3125,-4.1875 c 0.046875,0 0.296875,0 0.5,0.125 C 4.53125,-4 4.34375,-3.765625 4.34375,-3.515625 c 0,0.15625 0.109375,0.34375 0.375,0.34375 0.21875,0 0.53125,-0.171875 0.53125,-0.578125 0,-0.515625 -0.578125,-0.65625 -0.921875,-0.65625 -0.578125,0 -0.921875,0.53125 -1.046875,0.75 -0.25,-0.65625 -0.78125,-0.75 -1.078125,-0.75 -1.03125,0 -1.609375,1.28125 -1.609375,1.53125 0,0.109375 0.109375,0.109375 0.125,0.109375 0.078125,0 0.109375,-0.03125 0.125,-0.109375 0.34375,-1.0625 1,-1.3125 1.34375,-1.3125 0.1875,0 0.53125,0.09375 0.53125,0.671875 0,0.3125 -0.171875,0.96875 -0.53125,2.375 -0.15625,0.609375 -0.515625,1.03125 -0.953125,1.03125 -0.0625,0 -0.28125,0 -0.5,-0.125 0.25,-0.0625 0.46875,-0.265625 0.46875,-0.546875 0,-0.265625 -0.21875,-0.34375 -0.359375,-0.34375 -0.3125,0 -0.546875,0.25 -0.546875,0.578125 0,0.453125 0.484375,0.65625 0.921875,0.65625 0.671875,0 1.03125,-0.703125 1.046875,-0.75 0.125,0.359375 0.484375,0.75 1.078125,0.75 1.03125,0 1.59375,-1.28125 1.59375,-1.53125 0,-0.109375 -0.078125,-0.109375 -0.109375,-0.109375 -0.09375,0 -0.109375,0.046875 -0.140625,0.109375 -0.328125,1.078125 -1,1.3125 -1.3125,1.3125 -0.390625,0 -0.546875,-0.3125 -0.546875,-0.65625 0,-0.21875 0.046875,-0.4375 0.15625,-0.875 z m 0,0"
         style="fill:#e0c593;fill-opacity:1;stroke:none;stroke-width:0" /></g><g
       id="g34149"
       style="fill:#e0c593;fill-opacity:1"><path
         inkscape:connector-curvature="0"
         id="path34147"
         transform="translate(164.317,134.765)"
         d="m 2.875,-2.5 c 0,-0.765625 -0.109375,-1.96875 -0.65625,-3.109375 -0.59375,-1.21875 -1.453125,-1.875 -1.546875,-1.875 -0.0625,0 -0.109375,0.046875 -0.109375,0.109375 0,0.03125 0,0.046875 0.1875,0.234375 0.984375,0.984375 1.546875,2.5625 1.546875,4.640625 0,1.71875 -0.359375,3.46875 -1.59375,4.71875 C 0.5625,2.34375 0.5625,2.359375 0.5625,2.390625 0.5625,2.453125 0.609375,2.5 0.671875,2.5 0.765625,2.5 1.671875,1.8125 2.25,0.546875 2.765625,-0.546875 2.875,-1.65625 2.875,-2.5 Z m 0,0"
         style="fill:#e0c593;fill-opacity:1;stroke:none;stroke-width:0" /></g></g></g></g></svg>