<?xml version="1.0" encoding="UTF-8" standalone="no"?>
<!-- Created with Inkscape (http://www.inkscape.org/) -->

<svg
   xmlns:dc="http://purl.org/dc/elements/1.1/"
   xmlns:cc="http://creativecommons.org/ns#"
   xmlns:rdf="http://www.w3.org/1999/02/22-rdf-syntax-ns#"
   xmlns:svg="http://www.w3.org/2000/svg"
   xmlns="http://www.w3.org/2000/svg"
   xmlns:sodipodi="http://sodipodi.sourceforge.net/DTD/sodipodi-0.dtd"
   xmlns:inkscape="http://www.inkscape.org/namespaces/inkscape"
   id="svg11606"
   version="1.1"
   viewBox="0 0 264.58332 42.89286"
   height="162.11475"
   width="1000"
   inkscape:version="0.92.5 (2060ec1f9f, 2020-04-08)"
   sodipodi:docname="surveypdf.svg">
  <defs
     id="defs11600" />
  <sodipodi:namedview
     id="base"
     pagecolor="#ffffff"
     bordercolor="#666666"
     borderopacity="1.0"
     inkscape:pageopacity="0.0"
     inkscape:pageshadow="2"
     inkscape:zoom="1.979899"
     inkscape:cx="552.90973"
     inkscape:cy="73.348445"
     inkscape:document-units="mm"
     inkscape:current-layer="layer1"
     showgrid="false"
     inkscape:window-width="1848"
     inkscape:window-height="1016"
     inkscape:window-x="72"
     inkscape:window-y="27"
     inkscape:window-maximized="1"
     fit-margin-top="0"
     fit-margin-left="0"
     fit-margin-right="0"
     fit-margin-bottom="0"
     units="px" />
  <metadata
     id="metadata11603">
    <rdf:RDF>
      <cc:Work
         rdf:about="">
        <dc:format>image/svg+xml</dc:format>
        <dc:type
           rdf:resource="http://purl.org/dc/dcmitype/StillImage" />
        <dc:title></dc:title>
      </cc:Work>
    </rdf:RDF>
  </metadata>
  <g
     inkscape:label="Layer 1"
     inkscape:groupmode="layer"
     id="layer1"
     transform="translate(27.836239,-115.11648)">
    <g
       id="g14206"
       transform="matrix(3.0524595,0,0,3.0524595,-214.39052,-280.28987)">
      <path
         id="path12994"
         d="m 61.475798,138.30521 c -0.03671,0.16152 -0.05139,0.19089 -0.256959,0.19089 -0.05139,0 -0.102784,0 -0.102784,0.0881 0,0.0367 0.02202,0.0587 0.05873,0.0587 0.124808,0 0.264301,-0.0147 0.389109,-0.0147 0.161517,0 0.315693,0.0147 0.469868,0.0147 0.02202,0 0.08076,0 0.08076,-0.0954 0,-0.0514 -0.04405,-0.0514 -0.110126,-0.0514 -0.234934,0 -0.234934,-0.0294 -0.234934,-0.0734 0,-0.0587 0.198226,-0.82227 0.227593,-0.93974 0.05873,0.13949 0.190884,0.30101 0.433159,0.30101 0.543285,0 1.13062,-0.68278 1.13062,-1.37289 0,-0.4405 -0.271642,-0.74886 -0.624043,-0.74886 -0.234934,0 -0.462527,0.16886 -0.616702,0.35241 -0.04405,-0.25696 -0.249617,-0.35241 -0.418476,-0.35241 -0.220251,0 -0.308351,0.18355 -0.34506,0.2643 -0.0881,0.16152 -0.146833,0.44051 -0.146833,0.45519 0,0.0514 0.04405,0.0514 0.05139,0.0514 0.05139,0 0.05139,-0.007 0.08076,-0.11012 0.08076,-0.33038 0.176201,-0.55797 0.345059,-0.55797 0.08076,0 0.146834,0.0367 0.146834,0.21291 0,0.11012 -0.01468,0.16151 -0.03671,0.24227 z m 0.822269,-2.03365 c 0.02937,-0.1248 0.161517,-0.25695 0.242276,-0.33037 0.168858,-0.13949 0.301009,-0.1762 0.381767,-0.1762 0.183543,0 0.30101,0.16151 0.30101,0.4405 0,0.27898 -0.154176,0.81493 -0.242276,0.99113 -0.161517,0.33037 -0.381768,0.48455 -0.557968,0.48455 -0.308351,0 -0.367085,-0.38911 -0.367085,-0.41848 0,-0.007 0,-0.0147 0.01468,-0.0734 z m 0,0"
         style="fill:#d3cbb0;fill-opacity:1;stroke:#d3cbb0;stroke-width:0;stroke-opacity:1"
         inkscape:connector-curvature="0" />
      <path
         id="path12998"
         d="m 65.166963,138.85584 c 0,-0.0147 0,-0.022 -0.08076,-0.10279 -0.579993,-0.58733 -0.734168,-1.47567 -0.734168,-2.19516 0,-0.81493 0.1762,-1.62985 0.756194,-2.20985 0.05873,-0.0587 0.05873,-0.0661 0.05873,-0.0808 0,-0.0367 -0.01468,-0.0514 -0.04405,-0.0514 -0.05139,0 -0.469868,0.32304 -0.748852,0.91771 -0.234934,0.51392 -0.293668,1.03518 -0.293668,1.42429 0,0.36708 0.05139,0.93239 0.308351,1.46834 0.286326,0.57265 0.682777,0.881 0.734169,0.881 0.02937,0 0.04405,-0.0147 0.04405,-0.0514 z m 0,0"
         style="fill:#d3cbb0;fill-opacity:1;stroke:#d3cbb0;stroke-width:0;stroke-opacity:1"
         inkscape:connector-curvature="0" />
      <path
         id="path13002"
         d="m 66.487997,134.48019 -0.82961,0.0367 v 0.22025 c 0.293667,0 0.323034,0 0.323034,0.18354 v 2.59162 h -0.323034 v 0.22025 c 0.146833,-0.007 0.374426,-0.0147 0.572651,-0.0147 0.205567,0 0.418476,0.007 0.579994,0.0147 v -0.22025 h -0.323035 z m 0,0"
         style="fill:#d3cbb0;fill-opacity:1;stroke:#d3cbb0;stroke-width:0;stroke-opacity:1"
         inkscape:connector-curvature="0" />
      <path
         id="path13006"
         d="m 67.888145,137.72522 c 0,-0.30835 -0.117467,-0.49189 -0.301009,-0.49189 -0.154175,0 -0.249617,0.11746 -0.249617,0.24961 0,0.12481 0.09544,0.24962 0.249617,0.24962 0.05139,0 0.117467,-0.022 0.161517,-0.0587 0.01468,-0.0147 0.02202,-0.0147 0.02202,-0.0147 0.0073,0 0.0073,0 0.0073,0.0661 0,0.3524 -0.161517,0.63138 -0.315693,0.78556 -0.05139,0.0514 -0.05139,0.0587 -0.05139,0.0734 0,0.0367 0.02202,0.0514 0.04405,0.0514 0.05139,0 0.433159,-0.35975 0.433159,-0.91037 z m 0,0"
         style="fill:#d3cbb0;fill-opacity:1;stroke:#d3cbb0;stroke-width:0;stroke-opacity:1"
         inkscape:connector-curvature="0" />
      <path
         id="path13010"
         d="m 70.396117,135.98524 h 0.785561 c 0.05873,0 0.227592,0 0.227592,-0.16152 0,-0.11012 -0.09544,-0.11012 -0.190884,-0.11012 h -1.30682 c -0.09544,0 -0.278984,0 -0.484552,0.22025 -0.154175,0.16886 -0.286325,0.39645 -0.286325,0.41847 0,0.007 0,0.0514 0.05873,0.0514 0.03671,0 0.04405,-0.022 0.07342,-0.0587 0.227592,-0.35974 0.499235,-0.35974 0.594677,-0.35974 h 0.389109 l -0.455184,1.50504 c -0.02203,0.0514 -0.05139,0.15418 -0.05139,0.16886 0,0.0514 0.03671,0.13215 0.139492,0.13215 0.154175,0 0.1762,-0.13215 0.190884,-0.20556 z m 0,0"
         style="fill:#d3cbb0;fill-opacity:1;stroke:#d3cbb0;stroke-width:0;stroke-opacity:1"
         inkscape:connector-curvature="0" />
      <path
         id="path13014"
         d="m 72.332098,134.38475 c 0,-0.0808 0,-0.16886 -0.0881,-0.16886 -0.09544,0 -0.09544,0.0881 -0.09544,0.16886 v 4.35362 c 0,0.0808 0,0.16886 0.09544,0.16886 0.0881,0 0.0881,-0.0881 0.0881,-0.16886 z m 0,0"
         style="fill:#d3cbb0;fill-opacity:1;stroke:#d3cbb0;stroke-width:0;stroke-opacity:1"
         inkscape:connector-curvature="0" />
      <path
         id="path13018"
         d="m 75.313469,135.98524 c 0.06607,0 0.234934,0 0.234934,-0.16152 0,-0.11012 -0.102784,-0.11012 -0.183542,-0.11012 h -1.071887 c -0.704802,0 -1.226062,0.77087 -1.226062,1.32884 0,0.41114 0.278985,0.74151 0.704802,0.74151 0.550627,0 1.17467,-0.56531 1.17467,-1.28479 0,-0.0808 0,-0.30835 -0.146833,-0.51392 z m -1.534413,1.69593 c -0.234934,0 -0.418476,-0.16886 -0.418476,-0.50658 0,-0.13949 0.05139,-0.52126 0.220251,-0.80024 0.198225,-0.32304 0.477209,-0.38911 0.638726,-0.38911 0.38911,0 0.425818,0.30835 0.425818,0.45518 0,0.22025 -0.09544,0.60202 -0.249617,0.8443 -0.183542,0.27164 -0.440501,0.39645 -0.616702,0.39645 z m 0,0"
         style="fill:#d3cbb0;fill-opacity:1;stroke:#d3cbb0;stroke-width:0;stroke-opacity:1"
         inkscape:connector-curvature="0" />
      <path
         id="path13022"
         d="m 76.426295,137.72522 c 0,-0.30835 -0.117467,-0.49189 -0.301009,-0.49189 -0.154175,0 -0.249617,0.11746 -0.249617,0.24961 0,0.12481 0.09544,0.24962 0.249617,0.24962 0.05139,0 0.117467,-0.022 0.161517,-0.0587 0.01468,-0.0147 0.02202,-0.0147 0.02202,-0.0147 0.0073,0 0.0073,0 0.0073,0.0661 0,0.3524 -0.161517,0.63138 -0.315693,0.78556 -0.05139,0.0514 -0.05139,0.0587 -0.05139,0.0734 0,0.0367 0.02202,0.0514 0.04405,0.0514 0.05139,0 0.433159,-0.35975 0.433159,-0.91037 z m 0,0"
         style="fill:#d3cbb0;fill-opacity:1;stroke:#d3cbb0;stroke-width:0;stroke-opacity:1"
         inkscape:connector-curvature="0" />
      <path
         id="path13026"
         d="m 79.683119,135.39056 c 0,-0.30835 -0.08076,-0.96176 -0.557968,-0.96176 -0.65341,0 -1.372895,1.3215 -1.372895,2.39339 0,0.4405 0.13215,0.96176 0.557968,0.96176 0.660752,0 1.372895,-1.34353 1.372895,-2.39339 z m -1.43897,0.63873 c 0.08076,-0.29367 0.1762,-0.6681 0.367084,-1.00581 0.124809,-0.2276 0.293667,-0.4919 0.506576,-0.4919 0.227593,0 0.25696,0.30101 0.25696,0.56531 0,0.23494 -0.03671,0.46987 -0.146834,0.9324 z m 0.939736,0.15417 c -0.05139,0.21291 -0.146834,0.60936 -0.330376,0.94708 -0.161517,0.32304 -0.337718,0.55063 -0.543285,0.55063 -0.154176,0 -0.249618,-0.13949 -0.249618,-0.57265 0,-0.19823 0.02937,-0.46987 0.146834,-0.92506 z m 0,0"
         style="fill:#d3cbb0;fill-opacity:1;stroke:#d3cbb0;stroke-width:0;stroke-opacity:1"
         inkscape:connector-curvature="0" />
      <path
         id="path13030"
         d="m 80.836833,137.72522 c 0,-0.30835 -0.117467,-0.49189 -0.301009,-0.49189 -0.154175,0 -0.249617,0.11746 -0.249617,0.24961 0,0.12481 0.09544,0.24962 0.249617,0.24962 0.05139,0 0.117467,-0.022 0.161517,-0.0587 0.01468,-0.0147 0.02202,-0.0147 0.02202,-0.0147 0.0073,0 0.0073,0 0.0073,0.0661 0,0.3524 -0.161517,0.63138 -0.315693,0.78556 -0.05139,0.0514 -0.05139,0.0587 -0.05139,0.0734 0,0.0367 0.02202,0.0514 0.04405,0.0514 0.05139,0 0.433159,-0.35975 0.433159,-0.91037 z m 0,0"
         style="fill:#d3cbb0;fill-opacity:1;stroke:#d3cbb0;stroke-width:0;stroke-opacity:1"
         inkscape:connector-curvature="0" />
      <path
         id="path13034"
         d="m 84.127782,136.71207 c 0.102783,0 0.146834,0 0.146834,-0.12481 0,-0.14684 -0.02937,-0.4919 -0.264301,-0.72683 -0.168859,-0.16886 -0.418476,-0.24962 -0.741511,-0.24962 -0.748852,0 -1.159986,0.48455 -1.159986,1.06455 0,0.63138 0.469868,1.08657 1.226062,1.08657 0.74151,0 0.939736,-0.49924 0.939736,-0.58 0,-0.0808 -0.0881,-0.0808 -0.110126,-0.0808 -0.08076,0 -0.0881,0.022 -0.117467,0.0954 -0.09544,0.22759 -0.367084,0.37442 -0.668093,0.37442 -0.660752,0 -0.668094,-0.62404 -0.668094,-0.85897 z m -1.416946,-0.15418 c 0.0073,-0.18354 0.01468,-0.38177 0.110125,-0.53594 0.124809,-0.18355 0.315693,-0.24228 0.447843,-0.24228 0.550627,0 0.557969,0.6167 0.56531,0.77822 z m 0,0"
         style="fill:#d3cbb0;fill-opacity:1;stroke:#d3cbb0;stroke-width:0;stroke-opacity:1"
         inkscape:connector-curvature="0" />
      <path
         id="path13038"
         d="m 85.780131,136.55789 c 0,-0.35974 -0.05139,-0.92505 -0.30835,-1.461 -0.278985,-0.57265 -0.682777,-0.881 -0.726827,-0.881 -0.02937,0 -0.05139,0.022 -0.05139,0.0514 0,0.0147 0,0.022 0.0881,0.11013 0.462526,0.46253 0.726827,1.20404 0.726827,2.18048 0,0.80759 -0.168859,1.62985 -0.748852,2.21719 -0.06607,0.0587 -0.06607,0.0661 -0.06607,0.0808 0,0.0294 0.02202,0.0514 0.05139,0.0514 0.04405,0 0.469868,-0.32303 0.74151,-0.91771 0.242276,-0.51392 0.293667,-1.03518 0.293667,-1.43163 z m 0,0"
         style="fill:#d3cbb0;fill-opacity:1;stroke:#d3cbb0;stroke-width:0;stroke-opacity:1"
         inkscape:connector-curvature="0" />
      <path
         id="path13042"
         d="m 90.766751,136.19815 c 0.07342,0 0.161517,0 0.161517,-0.0881 0,-0.0954 -0.0881,-0.0954 -0.154175,-0.0954 h -2.804525 c -0.06607,0 -0.154175,0 -0.154175,0.0954 0,0.0881 0.0881,0.0881 0.154175,0.0881 z m 0.0073,0.91037 c 0.06608,0 0.154175,0 0.154175,-0.0954 0,-0.0881 -0.0881,-0.0881 -0.161517,-0.0881 h -2.797183 c -0.06607,0 -0.154175,0 -0.154175,0.0881 0,0.0954 0.0881,0.0954 0.154175,0.0954 z m 0,0"
         style="fill:#d3cbb0;fill-opacity:1;stroke:#d3cbb0;stroke-width:0;stroke-opacity:1"
         inkscape:connector-curvature="0" />
      <path
         id="path13046"
         d="m 94.605662,138.2883 c 0,-0.52126 -0.359743,-1.30682 -1.17467,-1.7253 0.506576,-0.27164 1.108595,-0.81493 1.167328,-1.68859 l 0.0073,-0.0294 v -3.24503 c 0,-0.38911 0,-0.46987 0.03671,-0.64607 0.08076,-0.38177 0.308351,-0.84429 0.903028,-1.19669 0.03671,-0.022 0.04405,-0.022 0.04405,-0.11013 0,-0.10278 -0.0073,-0.11012 -0.110125,-0.11012 -0.08076,0 -0.09544,0 -0.220251,0.0807 -1.049861,0.59468 -1.108595,1.461 -1.108595,1.62986 v 3.32578 c 0,0.33772 0,0.71949 -0.242275,1.15265 -0.220251,0.38177 -0.469868,0.57265 -0.675436,0.71214 -0.05873,0.0367 -0.06607,0.044 -0.06607,0.12481 0,0.0808 0.0073,0.0881 0.04405,0.11013 0.396452,0.2643 0.822269,0.68277 0.925053,1.44631 0.01468,0.10278 0.01468,0.11012 0.01468,0.16886 v 3.59742 c 0,0.37443 0.234934,1.15999 1.137962,1.64454 0.110125,0.0587 0.117467,0.0587 0.190884,0.0587 0.102783,0 0.110125,-0.007 0.110125,-0.11013 0,-0.0808 -0.0073,-0.0881 -0.02202,-0.0954 -0.205567,-0.12481 -0.814927,-0.49924 -0.947078,-1.31416 -0.01468,-0.11747 -0.01468,-0.13215 -0.01468,-0.19089 z m 0,0"
         style="fill:#d3cbb0;fill-opacity:1;stroke:#d3cbb0;stroke-width:0;stroke-opacity:1"
         inkscape:connector-curvature="0" />
      <path
         id="path13050"
         d="m 100.50051,131.3386 h 0.31569 c 0.0661,0 0.11013,0 0.11013,-0.0734 0,-0.044 -0.044,-0.044 -0.10279,-0.044 h -0.30101 c 0.0734,-0.41848 0.0954,-0.56531 0.12481,-0.66076 0.0147,-0.0734 0.0881,-0.13949 0.16886,-0.13949 0,0 0.0881,0 0.15418,0.0367 -0.1395,0.044 -0.14684,0.16152 -0.14684,0.1762 0,0.0734 0.0587,0.12481 0.13215,0.12481 0.0881,0 0.18354,-0.0734 0.18354,-0.19823 0,-0.15417 -0.15417,-0.23493 -0.32303,-0.23493 -0.14683,0 -0.30835,0.0808 -0.39645,0.24228 -0.0661,0.1248 -0.0881,0.27164 -0.16152,0.65341 h -0.25696 c -0.06607,0 -0.110122,0 -0.110122,0.0734 0,0.0441 0.04405,0.0441 0.102784,0.0441 h 0.242278 c 0,0.022 -0.20557,1.1967 -0.286328,1.5491 -0.01468,0.0734 -0.07342,0.31569 -0.227593,0.31569 -0.0073,0 -0.08076,0 -0.146833,-0.0367 0.13215,-0.0441 0.146833,-0.16151 0.146833,-0.1762 0,-0.0734 -0.05873,-0.12481 -0.13215,-0.12481 -0.0881,0 -0.183542,0.0734 -0.183542,0.19823 0,0.14683 0.154175,0.23493 0.315692,0.23493 0.205568,0 0.352401,-0.21291 0.389111,-0.28632 0.11747,-0.22025 0.19822,-0.62405 0.20557,-0.66075 z m 0,0"
         style="fill:#d3cbb0;fill-opacity:1;stroke:#d3cbb0;stroke-width:0;stroke-opacity:1"
         inkscape:connector-curvature="0" />
      <path
         id="path13054"
         d="m 102.51719,130.17862 c -0.61671,0.43316 -0.78556,1.13062 -0.78556,1.62985 0,0.46253 0.13949,1.18201 0.78556,1.6372 0.0294,0 0.0661,0 0.0661,-0.0367 0,-0.022 -0.007,-0.0294 -0.0294,-0.0514 -0.44051,-0.39645 -0.59468,-0.94708 -0.59468,-1.54176 0,-0.88834 0.33772,-1.3215 0.60202,-1.56378 0.0147,-0.0147 0.022,-0.022 0.022,-0.0367 0,-0.0367 -0.0367,-0.0367 -0.0661,-0.0367 z m 0,0"
         style="fill:#d3cbb0;fill-opacity:1;stroke:#d3cbb0;stroke-width:0;stroke-opacity:1"
         inkscape:connector-curvature="0" />
      <path
         id="path13058"
         d="m 103.6495,130.35482 -0.60936,0.0294 v 0.18355 c 0.19088,0 0.22025,0 0.22025,0.1248 v 1.75467 h -0.22025 v 0.18354 c 0.007,0 0.2643,-0.0147 0.41848,-0.0147 0.15417,0 0.40379,0.0147 0.41113,0.0147 v -0.18354 h -0.22025 z m 0,0"
         style="fill:#d3cbb0;fill-opacity:1;stroke:#d3cbb0;stroke-width:0;stroke-opacity:1"
         inkscape:connector-curvature="0" />
      <path
         id="path13062"
         d="m 104.64833,130.30343 c 0,-0.0514 0,-0.12481 -0.0808,-0.12481 -0.0808,0 -0.0808,0.0734 -0.0808,0.12481 v 3.01743 c 0,0.0514 0,0.12481 0.0734,0.12481 0.0881,0 0.0881,-0.0734 0.0881,-0.12481 z m 0,0"
         style="fill:#d3cbb0;fill-opacity:1;stroke:#d3cbb0;stroke-width:0;stroke-opacity:1"
         inkscape:connector-curvature="0" />
      <path
         id="path13066"
         d="m 106.24506,131.44139 h 0.60936 c 0.0367,0 0.1762,0 0.1762,-0.13215 0,-0.0881 -0.0881,-0.0881 -0.14683,-0.0881 h -1.02784 c -0.0954,0 -0.19823,0.007 -0.36709,0.16151 -0.0954,0.0881 -0.22025,0.25696 -0.22025,0.28633 0,0.0367 0.044,0.0367 0.0587,0.0367 0.0367,0 0.0367,-0.007 0.0587,-0.0367 0.16152,-0.22759 0.36709,-0.22759 0.4405,-0.22759 h 0.29367 l -0.33038,1.04986 c -0.0147,0.0514 -0.0147,0.0514 -0.0147,0.0734 0,0.0881 0.0808,0.10279 0.11013,0.10279 0.1248,0 0.14683,-0.11747 0.15417,-0.16152 z m 0,0"
         style="fill:#d3cbb0;fill-opacity:1;stroke:#d3cbb0;stroke-width:0;stroke-opacity:1"
         inkscape:connector-curvature="0" />
      <path
         id="path13070"
         d="m 107.71504,132.57935 c 0,0.1762 -0.0294,0.38911 -0.25696,0.59467 -0.007,0.0147 -0.022,0.0294 -0.022,0.044 0,0.022 0.0294,0.0441 0.044,0.0441 0.0514,0 0.33038,-0.26431 0.33038,-0.65342 0,-0.19822 -0.0808,-0.3524 -0.23493,-0.3524 -0.10279,0 -0.18355,0.0808 -0.18355,0.18355 0,0.10278 0.0734,0.19088 0.19089,0.19088 0.0808,0 0.13215,-0.0514 0.13215,-0.0514 z m 0,0"
         style="fill:#d3cbb0;fill-opacity:1;stroke:#d3cbb0;stroke-width:0;stroke-opacity:1"
         inkscape:connector-curvature="0" />
      <path
         id="path13072"
         d="m 110.05291,131.44139 c 0.0514,0 0.0881,0 0.11747,-0.022 0.044,-0.0367 0.0587,-0.0881 0.0587,-0.11012 0,-0.0881 -0.0881,-0.0881 -0.14683,-0.0881 h -0.83696 c -0.52126,0 -0.91771,0.51391 -0.91771,0.91037 0,0.301 0.2276,0.5286 0.56531,0.5286 0.41114,0 0.88101,-0.36709 0.88101,-0.87366 0,-0.0514 0,-0.19823 -0.0954,-0.34506 z m -1.15999,1.13062 c -0.1762,0 -0.32303,-0.11747 -0.32303,-0.3524 0,-0.0954 0.0587,-0.77822 0.62404,-0.77822 0.16152,0 0.33772,0.0661 0.33772,0.30835 0,0.0661 -0.0294,0.35974 -0.19088,0.57999 -0.1395,0.1762 -0.32304,0.24228 -0.44785,0.24228 z m 0,0"
         style="fill:#d3cbb0;fill-opacity:1;stroke:#d3cbb0;stroke-width:0;stroke-opacity:1"
         inkscape:connector-curvature="0" />
      <path
         id="path13076"
         d="m 110.71744,130.17862 c -0.022,0 -0.0587,0 -0.0587,0.0367 0,0.0147 0.007,0.022 0.0294,0.0514 0.27898,0.25696 0.59468,0.69746 0.59468,1.54175 0,0.68278 -0.21291,1.20404 -0.56531,1.51973 -0.0587,0.0587 -0.0587,0.0587 -0.0587,0.0808 0,0.0147 0.007,0.0367 0.0367,0.0367 0.044,0 0.3524,-0.21291 0.57265,-0.62405 0.1395,-0.27164 0.23494,-0.62404 0.23494,-1.00581 0,-0.46252 -0.13949,-1.18201 -0.78556,-1.63719 z m 0,0"
         style="fill:#d3cbb0;fill-opacity:1;stroke:#d3cbb0;stroke-width:0;stroke-opacity:1"
         inkscape:connector-curvature="0" />
      <path
         id="path13080"
         d="m 112.91431,130.4576 c 0,-0.007 0.007,-0.0514 0.007,-0.0514 0,-0.022 -0.007,-0.0514 -0.0514,-0.0514 -0.0661,0 -0.33772,0.0294 -0.41848,0.0367 -0.022,0 -0.0734,0.007 -0.0734,0.0734 0,0.044 0.0514,0.044 0.0881,0.044 0.15418,0 0.15418,0.0294 0.15418,0.0514 0,0.022 -0.007,0.044 -0.007,0.0734 l -0.46253,1.85011 c -0.022,0.0587 -0.022,0.0661 -0.022,0.0734 0,0.0514 0.044,0.10279 0.11746,0.10279 0.0367,0 0.0954,-0.0147 0.13215,-0.0808 0.007,-0.022 0.0367,-0.13949 0.0514,-0.20557 l 0.0808,-0.29367 c 0.007,-0.0514 0.044,-0.1762 0.0514,-0.22025 0.0294,-0.12481 0.0294,-0.13215 0.0954,-0.23493 0.11012,-0.16152 0.27164,-0.34506 0.5286,-0.34506 0.18354,0 0.19088,0.14683 0.19088,0.22759 0,0.19823 -0.13949,0.55797 -0.19088,0.69746 -0.0367,0.0954 -0.0514,0.12481 -0.0514,0.1762 0,0.1762 0.14683,0.27899 0.30835,0.27899 0.33037,0 0.47721,-0.44785 0.47721,-0.49924 0,-0.044 -0.044,-0.044 -0.0587,-0.044 -0.044,0 -0.044,0.022 -0.0587,0.0587 -0.0734,0.2643 -0.22025,0.39645 -0.34506,0.39645 -0.0734,0 -0.0881,-0.044 -0.0881,-0.11747 0,-0.0734 0.022,-0.11747 0.0808,-0.2643 0.0367,-0.10278 0.16886,-0.44784 0.16886,-0.63139 0,-0.0514 0,-0.19088 -0.11747,-0.28632 -0.0587,-0.0367 -0.15417,-0.0881 -0.30835,-0.0881 -0.23493,0 -0.41113,0.13215 -0.5286,0.27164 z m 0,0"
         style="fill:#d3cbb0;fill-opacity:1;stroke:#d3cbb0;stroke-width:0;stroke-opacity:1"
         inkscape:connector-curvature="0" />
      <path
         id="path13084"
         d="m 115.23792,130.17862 c -0.61671,0.43316 -0.78556,1.13062 -0.78556,1.62985 0,0.46253 0.13949,1.18201 0.78556,1.6372 0.0294,0 0.0661,0 0.0661,-0.0367 0,-0.022 -0.007,-0.0294 -0.0294,-0.0514 -0.44051,-0.39645 -0.59468,-0.94708 -0.59468,-1.54176 0,-0.88834 0.33772,-1.3215 0.60202,-1.56378 0.0147,-0.0147 0.022,-0.022 0.022,-0.0367 0,-0.0367 -0.0367,-0.0367 -0.0661,-0.0367 z m 0,0"
         style="fill:#d3cbb0;fill-opacity:1;stroke:#d3cbb0;stroke-width:0;stroke-opacity:1"
         inkscape:connector-curvature="0" />
      <path
         id="path13088"
         d="m 116.66438,131.44139 h 0.60936 c 0.0367,0 0.1762,0 0.1762,-0.13215 0,-0.0881 -0.0881,-0.0881 -0.14683,-0.0881 h -1.02784 c -0.0954,0 -0.19823,0.007 -0.36709,0.16151 -0.0954,0.0881 -0.22025,0.25696 -0.22025,0.28633 0,0.0367 0.044,0.0367 0.0587,0.0367 0.0367,0 0.0367,-0.007 0.0587,-0.0367 0.16152,-0.22759 0.36709,-0.22759 0.4405,-0.22759 h 0.29367 l -0.33038,1.04986 c -0.0147,0.0514 -0.0147,0.0514 -0.0147,0.0734 0,0.0881 0.0808,0.10279 0.11013,0.10279 0.1248,0 0.14683,-0.11747 0.15417,-0.16152 z m 0,0"
         style="fill:#d3cbb0;fill-opacity:1;stroke:#d3cbb0;stroke-width:0;stroke-opacity:1"
         inkscape:connector-curvature="0" />
      <path
         id="path13092"
         d="m 118.28484,130.30343 c 0,-0.0514 0,-0.12481 -0.0808,-0.12481 -0.0808,0 -0.0808,0.0734 -0.0808,0.12481 v 3.01743 c 0,0.0514 0,0.12481 0.0734,0.12481 0.0881,0 0.0881,-0.0734 0.0881,-0.12481 z m 0,0"
         style="fill:#d3cbb0;fill-opacity:1;stroke:#d3cbb0;stroke-width:0;stroke-opacity:1"
         inkscape:connector-curvature="0" />
      <path
         id="path13096"
         d="m 120.43172,131.03759 c 0,-0.34506 -0.13215,-0.71214 -0.45518,-0.71214 -0.49189,0 -1.01315,0.881 -1.01315,1.62985 0,0.38911 0.15417,0.70481 0.45518,0.70481 0.49189,0 1.01315,-0.88835 1.01315,-1.62252 z m -1.10125,0.39645 c 0.16886,-0.7048 0.45519,-1.01315 0.64607,-1.01315 0.20557,0 0.20557,0.35974 0.20557,0.41848 0,0.13215 -0.022,0.32303 -0.0881,0.59467 z m 0.73417,0.11747 c -0.0954,0.35974 -0.16886,0.53595 -0.27164,0.69746 -0.0954,0.16886 -0.22759,0.32304 -0.37443,0.32304 -0.1762,0 -0.20557,-0.24962 -0.20557,-0.42582 0,-0.21291 0.0587,-0.46987 0.0881,-0.59468 z m 0,0"
         style="fill:#d3cbb0;fill-opacity:1;stroke:#d3cbb0;stroke-width:0;stroke-opacity:1"
         inkscape:connector-curvature="0" />
      <path
         id="path13100"
         d="m 120.93519,130.17862 c -0.022,0 -0.0587,0 -0.0587,0.0367 0,0.0147 0.007,0.022 0.0294,0.0514 0.27898,0.25696 0.59468,0.69746 0.59468,1.54175 0,0.68278 -0.21291,1.20404 -0.56531,1.51973 -0.0587,0.0587 -0.0587,0.0587 -0.0587,0.0808 0,0.0147 0.007,0.0367 0.0367,0.0367 0.044,0 0.3524,-0.21291 0.57265,-0.62405 0.1395,-0.27164 0.23494,-0.62404 0.23494,-1.00581 0,-0.46252 -0.13949,-1.18201 -0.78556,-1.63719 z m 0,0"
         style="fill:#d3cbb0;fill-opacity:1;stroke:#d3cbb0;stroke-width:0;stroke-opacity:1"
         inkscape:connector-curvature="0" />
      <path
         inkscape:connector-curvature="0"
         style="fill:#d3cbb0;fill-opacity:1;stroke:#d3cbb0;stroke-width:0.18700747;stroke-linecap:butt;stroke-linejoin:miter;stroke-miterlimit:10;stroke-opacity:1"
         d="M 99.165217,133.73052 H 122.10432"
         id="path13104" />
      <path
         id="path13106"
         d="m 107.80337,134.40808 c 0.0294,-0.0294 0.044,-0.0514 0.044,-0.0954 0,-0.0367 -0.022,-0.0367 -0.0881,-0.0367 h -1.52707 c -0.0808,0 -0.0881,0.007 -0.11013,0.0661 l -0.18354,0.59468 c -0.007,0.0367 -0.007,0.0367 -0.007,0.0514 0,0.0147 0.007,0.044 0.0514,0.044 0.044,0 0.0514,-0.022 0.0587,-0.0514 0.16152,-0.46253 0.41114,-0.58734 0.83696,-0.58734 h 0.58733 l -1.90884,1.97492 c -0.022,0.022 -0.0514,0.0587 -0.0514,0.11012 0,0.0367 0.0294,0.0367 0.0881,0.0367 h 1.58581 c 0.0808,0 0.0881,0 0.10278,-0.0661 l 0.23493,-0.72682 c 0.0147,-0.044 0.0147,-0.0514 0.0147,-0.0587 0,0 0,-0.044 -0.0514,-0.044 -0.044,0 -0.0514,0.0147 -0.0734,0.0881 -0.14684,0.44785 -0.31569,0.67544 -0.88835,0.67544 h -0.62404 z m 0,0"
         style="fill:#cb5c70;fill-opacity:1;stroke:#d3cbb0;stroke-width:0;stroke-opacity:1"
         inkscape:connector-curvature="0" />
      <path
         id="path13110"
         d="m 109.18132,134.06302 c -0.61671,0.43316 -0.78556,1.13062 -0.78556,1.62985 0,0.46253 0.13949,1.18201 0.78556,1.6372 0.0294,0 0.0661,0 0.0661,-0.0367 0,-0.022 -0.007,-0.0294 -0.0294,-0.0514 -0.44051,-0.39645 -0.59468,-0.94708 -0.59468,-1.54176 0,-0.88834 0.33772,-1.3215 0.60202,-1.56378 0.0147,-0.0147 0.022,-0.022 0.022,-0.0367 0,-0.0367 -0.0367,-0.0367 -0.0661,-0.0367 z m 0,0"
         style="fill:#cb5c70;fill-opacity:1;stroke:#d3cbb0;stroke-width:0;stroke-opacity:1"
         inkscape:connector-curvature="0" />
      <path
         id="path13114"
         d="m 111.40021,135.32579 c 0.0514,0 0.0881,0 0.11747,-0.022 0.044,-0.0367 0.0587,-0.0881 0.0587,-0.11012 0,-0.0881 -0.0881,-0.0881 -0.14683,-0.0881 h -0.83696 c -0.52125,0 -0.91771,0.51391 -0.91771,0.91037 0,0.301 0.2276,0.5286 0.56531,0.5286 0.41114,0 0.88101,-0.36709 0.88101,-0.87366 0,-0.0514 0,-0.19823 -0.0954,-0.34506 z m -1.15999,1.13062 c -0.1762,0 -0.32303,-0.11747 -0.32303,-0.3524 0,-0.0954 0.0587,-0.77822 0.62404,-0.77822 0.16152,0 0.33772,0.0661 0.33772,0.30835 0,0.0661 -0.0294,0.35974 -0.19088,0.57999 -0.1395,0.1762 -0.32304,0.24228 -0.44785,0.24228 z m 0,0"
         style="fill:#cb5c70;fill-opacity:1;stroke:#d3cbb0;stroke-width:0;stroke-opacity:1"
         inkscape:connector-curvature="0" />
      <path
         id="path13118"
         d="m 112.25818,136.46375 c 0,0.1762 -0.0294,0.38911 -0.25696,0.59467 -0.007,0.0147 -0.022,0.0294 -0.022,0.044 0,0.022 0.0294,0.0441 0.044,0.0441 0.0514,0 0.33038,-0.26431 0.33038,-0.65342 0,-0.19822 -0.0808,-0.3524 -0.23493,-0.3524 -0.10279,0 -0.18355,0.0808 -0.18355,0.18355 0,0.10278 0.0734,0.19088 0.19089,0.19088 0.0808,0 0.13215,-0.0514 0.13215,-0.0514 z m 0,0"
         style="fill:#cb5c70;fill-opacity:1;stroke:#d3cbb0;stroke-width:0;stroke-opacity:1"
         inkscape:connector-curvature="0" />
      <path
         id="path13120"
         d="m 114.35376,134.92199 c 0,-0.34506 -0.13215,-0.71214 -0.45518,-0.71214 -0.49189,0 -1.01315,0.881 -1.01315,1.62985 0,0.38911 0.15417,0.70481 0.45518,0.70481 0.49189,0 1.01315,-0.88835 1.01315,-1.62252 z m -1.10125,0.39645 c 0.16886,-0.7048 0.45519,-1.01315 0.64607,-1.01315 0.20557,0 0.20557,0.35974 0.20557,0.41848 0,0.13215 -0.022,0.32303 -0.0881,0.59467 z m 0.73417,0.11747 c -0.0954,0.35974 -0.16886,0.53595 -0.27164,0.69746 -0.0954,0.16886 -0.22759,0.32304 -0.37443,0.32304 -0.1762,0 -0.20557,-0.24962 -0.20557,-0.42582 0,-0.21291 0.0587,-0.46987 0.0881,-0.59468 z m 0,0"
         style="fill:#cb5c70;fill-opacity:1;stroke:#d3cbb0;stroke-width:0;stroke-opacity:1"
         inkscape:connector-curvature="0" />
      <path
         id="path13124"
         d="m 114.85838,134.06302 c -0.022,0 -0.0587,0 -0.0587,0.0367 0,0.0147 0.007,0.022 0.0294,0.0514 0.27898,0.25696 0.59468,0.69746 0.59468,1.54175 0,0.68278 -0.21291,1.20404 -0.56531,1.51973 -0.0587,0.0587 -0.0587,0.0587 -0.0587,0.0808 0,0.0147 0.007,0.0367 0.0367,0.0367 0.044,0 0.3524,-0.21291 0.57265,-0.62405 0.1395,-0.27164 0.23494,-0.62404 0.23494,-1.00581 0,-0.46252 -0.13949,-1.18201 -0.78556,-1.63719 z m 0,0"
         style="fill:#cb5c70;fill-opacity:1;stroke:#d3cbb0;stroke-width:0;stroke-opacity:1"
         inkscape:connector-curvature="0" />
      <path
         id="path13128"
         d="m 123.6206,134.8938 c 0,-0.30835 -0.11747,-0.49189 -0.30101,-0.49189 -0.15418,0 -0.24962,0.11746 -0.24962,0.24961 0,0.12481 0.0954,0.24962 0.24962,0.24962 0.0514,0 0.11747,-0.022 0.16152,-0.0587 0.0147,-0.0147 0.022,-0.0147 0.022,-0.0147 0.007,0 0.007,0 0.007,0.0661 0,0.3524 -0.16151,0.63138 -0.31569,0.78556 -0.0514,0.0514 -0.0514,0.0587 -0.0514,0.0734 0,0.0367 0.022,0.0514 0.044,0.0514 0.0514,0 0.43316,-0.35975 0.43316,-0.91037 z m 0,0"
         style="fill:#d3cbb0;fill-opacity:1;stroke:#d3cbb0;stroke-width:0;stroke-opacity:1"
         inkscape:connector-curvature="0" />
      <path
         id="path13132"
         d="m 129.47721,132.83078 -0.65341,0.0514 v 0.14683 c 0.30101,0 0.34506,0.0294 0.34506,0.25696 v 1.26277 c 0,0.20557 -0.0514,0.20557 -0.36708,0.20557 v 0.14683 c 0.14683,-0.007 0.40379,-0.0147 0.51391,-0.0147 0.16886,0 0.33038,0.007 0.4919,0.0147 v -0.14683 c -0.3157,0 -0.33038,-0.022 -0.33038,-0.20557 z m 0.0147,-0.81492 c 0,-0.14684 -0.11012,-0.24962 -0.24227,-0.24962 -0.14684,0 -0.24962,0.12481 -0.24962,0.24962 0,0.12481 0.10278,0.24961 0.24962,0.24961 0.13215,0 0.24227,-0.10278 0.24227,-0.24961 z m 0,0"
         style="fill:#d3cbb0;fill-opacity:1;stroke:#d3cbb0;stroke-width:0;stroke-opacity:1"
         inkscape:connector-curvature="0" />
      <path
         id="path13134"
         d="m 130.77028,132.88218 v -0.54329 c 0,-0.41113 0.22025,-0.63873 0.42582,-0.63873 0.0147,0 0.0881,0 0.15417,0.0367 -0.0514,0.0147 -0.13949,0.0808 -0.13949,0.19823 0,0.10278 0.0734,0.19822 0.20557,0.19822 0.13215,0 0.20556,-0.0954 0.20556,-0.20556 0,-0.1762 -0.1762,-0.33038 -0.42581,-0.33038 -0.32304,0 -0.72683,0.24962 -0.72683,0.74885 v 0.53595 h -0.36708 v 0.14683 h 0.36708 v 1.51973 c 0,0.20557 -0.0514,0.20557 -0.35974,0.20557 v 0.14683 c 0.18354,-0.007 0.40379,-0.0147 0.5286,-0.0147 0.19088,0 0.41113,0 0.59468,0.0147 v -0.14683 h -0.0954 c -0.34506,0 -0.3524,-0.0514 -0.3524,-0.22025 V 133.029 h 0.5286 v -0.14683 z m 0,0"
         style="fill:#d3cbb0;fill-opacity:1;stroke:#d3cbb0;stroke-width:0;stroke-opacity:1"
         inkscape:connector-curvature="0" />
      <path
         id="path13138"
         d="m 133.98829,131.64877 -0.82961,0.0367 v 0.22025 c 0.29367,0 0.32303,0 0.32303,0.18354 v 2.59162 h -0.32303 v 0.22025 c 0.14683,-0.007 0.37443,-0.0147 0.57265,-0.0147 0.20557,0 0.41848,0.007 0.58,0.0147 v -0.22025 h -0.32304 z m 0,0"
         style="fill:#d3cbb0;fill-opacity:1;stroke:#d3cbb0;stroke-width:0;stroke-opacity:1"
         inkscape:connector-curvature="0" />
      <path
         id="path13142"
         d="m 138.94981,133.36673 c 0.0734,0 0.16152,0 0.16152,-0.0881 0,-0.0954 -0.0881,-0.0954 -0.15418,-0.0954 h -2.80452 c -0.0661,0 -0.15418,0 -0.15418,0.0954 0,0.0881 0.0881,0.0881 0.15418,0.0881 z m 0.007,0.91037 c 0.0661,0 0.15418,0 0.15418,-0.0954 0,-0.0881 -0.0881,-0.0881 -0.16152,-0.0881 h -2.79718 c -0.0661,0 -0.15418,0 -0.15418,0.0881 0,0.0954 0.0881,0.0954 0.15418,0.0954 z m 0,0"
         style="fill:#d3cbb0;fill-opacity:1;stroke:#d3cbb0;stroke-width:0;stroke-opacity:1"
         inkscape:connector-curvature="0" />
      <path
         id="path13146"
         d="m 142.84108,133.88065 c 0.10278,0 0.14683,0 0.14683,-0.12481 0,-0.14684 -0.0294,-0.4919 -0.2643,-0.72683 -0.16886,-0.16886 -0.41848,-0.24962 -0.74151,-0.24962 -0.74885,0 -1.15999,0.48455 -1.15999,1.06455 0,0.63138 0.46987,1.08657 1.22607,1.08657 0.74151,0 0.93973,-0.49924 0.93973,-0.58 0,-0.0808 -0.0881,-0.0808 -0.11012,-0.0808 -0.0808,0 -0.0881,0.022 -0.11747,0.0954 -0.0954,0.22759 -0.36709,0.37442 -0.66809,0.37442 -0.66076,0 -0.6681,-0.62404 -0.6681,-0.85897 z m -1.41695,-0.15418 c 0.007,-0.18354 0.0147,-0.38177 0.11013,-0.53594 0.12481,-0.18355 0.31569,-0.24228 0.44784,-0.24228 0.55063,0 0.55797,0.6167 0.56531,0.77822 z m 0,0"
         style="fill:#d3cbb0;fill-opacity:1;stroke:#d3cbb0;stroke-width:0;stroke-opacity:1"
         inkscape:connector-curvature="0" />
      <path
         id="path13150"
         d="m 100.75394,139.76874 c 0,-0.37443 -0.022,-0.74886 -0.18354,-1.09392 -0.21291,-0.45518 -0.602017,-0.5286 -0.792901,-0.5286 -0.286326,0 -0.624043,0.12481 -0.822269,0.55797 -0.146834,0.32304 -0.168859,0.69012 -0.168859,1.06455 0,0.3524 0.01468,0.77087 0.212909,1.13062 0.198226,0.37442 0.543285,0.46986 0.770877,0.46986 0.249613,0 0.609363,-0.0954 0.814923,-0.54328 0.14684,-0.32304 0.16886,-0.69012 0.16886,-1.0572 z m -0.983783,1.4977 c -0.183542,0 -0.462526,-0.11747 -0.543285,-0.56531 -0.05139,-0.27898 -0.05139,-0.71214 -0.05139,-0.99113 0,-0.30101 0,-0.60936 0.03671,-0.85898 0.0881,-0.55796 0.440501,-0.60201 0.557968,-0.60201 0.154176,0 0.46252,0.0881 0.55062,0.55062 0.0514,0.2643 0.0514,0.6167 0.0514,0.91037 0,0.3524 0,0.6681 -0.0514,0.9691 -0.0734,0.44785 -0.337711,0.58734 -0.55062,0.58734 z m 0,0"
         style="fill:#d3cbb0;fill-opacity:1;stroke:#d3cbb0;stroke-width:0;stroke-opacity:1"
         inkscape:connector-curvature="0" />
      <path
         id="path13154"
         d="m 130.84868,140.26063 c 0,-0.59468 -0.46253,-1.09391 -1.02784,-1.09391 -0.58734,0 -1.04252,0.51392 -1.04252,1.09391 0,0.60936 0.48455,1.0572 1.03518,1.0572 0.56531,0 1.03518,-0.46252 1.03518,-1.0572 z m -1.02784,0.93973 c -0.20557,0 -0.41113,-0.0954 -0.53594,-0.31569 -0.11747,-0.20557 -0.11747,-0.49189 -0.11747,-0.66075 0,-0.18354 0,-0.43316 0.11013,-0.63873 0.1248,-0.21291 0.34505,-0.31569 0.53594,-0.31569 0.20557,0 0.40379,0.10278 0.5286,0.30835 0.12481,0.19823 0.12481,0.46987 0.12481,0.64607 0,0.16886 0,0.42582 -0.10279,0.63139 -0.11012,0.2129 -0.31569,0.34505 -0.54328,0.34505 z m 0,0"
         style="fill:#d3cbb0;fill-opacity:1;stroke:#d3cbb0;stroke-width:0;stroke-opacity:1"
         inkscape:connector-curvature="0" />
      <path
         id="path13156"
         d="m 131.79432,139.39431 h 0.67543 v -0.14683 h -0.67543 v -0.85898 h -0.11747 c 0,0.38177 -0.13949,0.881 -0.60202,0.90303 v 0.10278 h 0.39645 v 1.29214 c 0,0.57265 0.4405,0.63138 0.60936,0.63138 0.33038,0 0.46253,-0.33037 0.46253,-0.63138 v -0.2643 h -0.11747 v 0.25695 c 0,0.34506 -0.13949,0.52126 -0.31569,0.52126 -0.31569,0 -0.31569,-0.42581 -0.31569,-0.50657 z m 0,0"
         style="fill:#d3cbb0;fill-opacity:1;stroke:#d3cbb0;stroke-width:0;stroke-opacity:1"
         inkscape:connector-curvature="0" />
      <path
         id="path13158"
         d="m 133.32113,140.91404 c 0,0.20557 -0.0514,0.20557 -0.36709,0.20557 v 0.14683 c 0.16886,-0.007 0.4038,-0.0147 0.53595,-0.0147 0.11746,0 0.35974,0.007 0.52126,0.0147 v -0.14683 c -0.3157,0 -0.36709,0 -0.36709,-0.20557 v -0.86632 c 0,-0.48455 0.33772,-0.74885 0.63139,-0.74885 0.30101,0 0.3524,0.24962 0.3524,0.52126 v 1.09391 c 0,0.20557 -0.0514,0.20557 -0.36709,0.20557 v 0.14683 c 0.16152,-0.007 0.4038,-0.0147 0.52861,-0.0147 0.11746,0 0.36708,0.007 0.52126,0.0147 v -0.14683 c -0.24228,0 -0.35975,0 -0.35975,-0.1395 v -0.89568 c 0,-0.40379 0,-0.54329 -0.14683,-0.71215 -0.0661,-0.0807 -0.22025,-0.1762 -0.49189,-0.1762 -0.39646,0 -0.60202,0.27899 -0.68278,0.46253 v -1.64454 l -0.67544,0.0514 v 0.14684 c 0.33038,0 0.36709,0.0294 0.36709,0.2643 z m 0,0"
         style="fill:#d3cbb0;fill-opacity:1;stroke:#d3cbb0;stroke-width:0;stroke-opacity:1"
         inkscape:connector-curvature="0" />
      <path
         id="path13160"
         d="m 135.92929,140.08443 c 0.0294,-0.69746 0.42582,-0.81493 0.58733,-0.81493 0.47721,0 0.52861,0.63139 0.52861,0.81493 z m 0,0.10278 h 1.30682 c 0.10278,0 0.11747,0 0.11747,-0.10278 0,-0.46253 -0.25696,-0.91771 -0.83696,-0.91771 -0.54328,0 -0.97644,0.48455 -0.97644,1.07188 0,0.62405 0.49189,1.07923 1.02784,1.07923 0.57265,0 0.78556,-0.52126 0.78556,-0.60936 0,-0.044 -0.0367,-0.0587 -0.0661,-0.0587 -0.0367,0 -0.0514,0.0294 -0.0587,0.0661 -0.16152,0.48455 -0.58734,0.48455 -0.63139,0.48455 -0.23493,0 -0.41847,-0.13949 -0.5286,-0.31569 -0.13949,-0.22025 -0.13949,-0.5286 -0.13949,-0.69746 z m 0,0"
         style="fill:#d3cbb0;fill-opacity:1;stroke:#d3cbb0;stroke-width:0;stroke-opacity:1"
         inkscape:connector-curvature="0" />
      <path
         id="path13162"
         d="m 138.27388,139.71 v -0.51392 l -0.65341,0.0514 v 0.14683 c 0.33038,0 0.36708,0.0294 0.36708,0.2643 v 1.25543 c 0,0.20557 -0.0514,0.20557 -0.36708,0.20557 v 0.14683 c 0.18354,-0.007 0.40379,-0.0147 0.53594,-0.0147 0.18355,0 0.4038,0 0.59468,0.0147 v -0.14683 h -0.10278 c -0.34506,0 -0.3524,-0.0514 -0.3524,-0.22025 v -0.71949 c 0,-0.46253 0.19822,-0.881 0.55062,-0.881 0.0294,0 0.044,0 0.0514,0.007 -0.0147,0 -0.11012,0.0587 -0.11012,0.18354 0,0.12481 0.10278,0.19823 0.20557,0.19823 0.0807,0 0.19822,-0.0587 0.19822,-0.20557 0,-0.14683 -0.14683,-0.28633 -0.34506,-0.28633 -0.34506,0 -0.51392,0.3157 -0.57265,0.51392 z m 0,0"
         style="fill:#d3cbb0;fill-opacity:1;stroke:#d3cbb0;stroke-width:0;stroke-opacity:1"
         inkscape:connector-curvature="0" />
      <path
         id="path13164"
         d="m 142.22187,139.69532 c 0.0808,-0.23494 0.22759,-0.30101 0.39645,-0.30101 v -0.14683 c -0.11013,0.007 -0.24228,0.0147 -0.34506,0.0147 -0.13949,0 -0.34506,-0.007 -0.43316,-0.0147 v 0.14683 c 0.16886,0 0.27164,0.0881 0.27164,0.22025 0,0.0294 0,0.044 -0.0294,0.10278 l -0.42581,1.1967 -0.46253,-1.30682 c -0.0147,-0.0587 -0.022,-0.0661 -0.022,-0.0881 0,-0.12481 0.18354,-0.12481 0.27898,-0.12481 v -0.14683 c -0.13949,0.007 -0.37443,0.0147 -0.49189,0.0147 -0.1395,0 -0.27165,-0.007 -0.41114,-0.0147 v 0.14683 c 0.16886,0 0.24228,0.007 0.29367,0.0661 0.022,0.0294 0.0734,0.16886 0.10278,0.25696 l -0.39645,1.13797 -0.44784,-1.24809 c -0.022,-0.0587 -0.022,-0.0661 -0.022,-0.0881 0,-0.12481 0.18355,-0.12481 0.27165,-0.12481 v -0.14683 c -0.1395,0.007 -0.4038,0.0147 -0.50658,0.0147 -0.022,0 -0.27164,-0.007 -0.4405,-0.0147 v 0.14683 c 0.23493,0 0.29367,0.0147 0.3524,0.16152 l 0.58733,1.65922 c 0.022,0.0661 0.0367,0.10278 0.0954,0.10278 0.0661,0 0.0734,-0.0294 0.0954,-0.0954 l 0.47721,-1.3215 0.47721,1.32884 c 0.0147,0.0514 0.0294,0.0881 0.0954,0.0881 0.0587,0 0.0734,-0.044 0.0881,-0.0881 z m 0,0"
         style="fill:#d3cbb0;fill-opacity:1;stroke:#d3cbb0;stroke-width:0;stroke-opacity:1"
         inkscape:connector-curvature="0" />
      <path
         id="path13166"
         d="m 143.53221,139.19608 -0.65341,0.0514 v 0.14683 c 0.30101,0 0.34506,0.0294 0.34506,0.25696 v 1.26277 c 0,0.20557 -0.0514,0.20557 -0.36708,0.20557 v 0.14683 c 0.14683,-0.007 0.40379,-0.0147 0.51391,-0.0147 0.16886,0 0.33038,0.007 0.4919,0.0147 v -0.14683 c -0.3157,0 -0.33038,-0.022 -0.33038,-0.20557 z m 0.0147,-0.81492 c 0,-0.14684 -0.11012,-0.24962 -0.24227,-0.24962 -0.14684,0 -0.24962,0.12481 -0.24962,0.24962 0,0.12481 0.10278,0.24961 0.24962,0.24961 0.13215,0 0.24227,-0.10278 0.24227,-0.24961 z m 0,0"
         style="fill:#d3cbb0;fill-opacity:1;stroke:#d3cbb0;stroke-width:0;stroke-opacity:1"
         inkscape:connector-curvature="0" />
      <path
         id="path13168"
         d="m 144.97945,140.35607 c 0.10279,0.022 0.48456,0.0954 0.48456,0.43316 0,0.23493 -0.16152,0.42582 -0.52861,0.42582 -0.39645,0 -0.56531,-0.2643 -0.65341,-0.6681 -0.0147,-0.0587 -0.0147,-0.0734 -0.0661,-0.0734 -0.0587,0 -0.0587,0.0294 -0.0587,0.11012 v 0.62405 c 0,0.0808 0,0.11012 0.0514,0.11012 0.022,0 0.0294,-0.007 0.11746,-0.0954 0.007,-0.007 0.007,-0.0147 0.0954,-0.10278 0.20556,0.19088 0.41847,0.19822 0.51391,0.19822 0.53595,0 0.7562,-0.31569 0.7562,-0.65341 0,-0.24227 -0.13949,-0.38911 -0.19823,-0.4405 -0.15417,-0.15418 -0.33772,-0.19088 -0.53594,-0.22759 -0.2643,-0.0514 -0.57265,-0.11013 -0.57265,-0.38177 0,-0.16886 0.11746,-0.35974 0.52126,-0.35974 0.51392,0 0.54328,0.42582 0.55062,0.56531 0,0.044 0.044,0.044 0.0514,0.044 0.0661,0 0.0661,-0.022 0.0661,-0.11013 v -0.47721 c 0,-0.0734 0,-0.11012 -0.0514,-0.11012 -0.022,0 -0.0367,0 -0.0954,0.0587 -0.0147,0.0147 -0.0587,0.0587 -0.0808,0.0734 -0.1762,-0.13215 -0.36709,-0.13215 -0.4405,-0.13215 -0.57265,0 -0.74885,0.31569 -0.74885,0.57999 0,0.16152 0.0734,0.29367 0.19822,0.39645 0.15418,0.11747 0.28633,0.14684 0.62404,0.21291 z m 0,0"
         style="fill:#d3cbb0;fill-opacity:1;stroke:#d3cbb0;stroke-width:0;stroke-opacity:1"
         inkscape:connector-curvature="0" />
      <path
         id="path13170"
         d="m 146.3705,140.08443 c 0.0294,-0.69746 0.42582,-0.81493 0.58733,-0.81493 0.47721,0 0.52861,0.63139 0.52861,0.81493 z m 0,0.10278 h 1.30682 c 0.10278,0 0.11747,0 0.11747,-0.10278 0,-0.46253 -0.25696,-0.91771 -0.83696,-0.91771 -0.54328,0 -0.97644,0.48455 -0.97644,1.07188 0,0.62405 0.49189,1.07923 1.02784,1.07923 0.57265,0 0.78556,-0.52126 0.78556,-0.60936 0,-0.044 -0.0367,-0.0587 -0.0661,-0.0587 -0.0367,0 -0.0514,0.0294 -0.0587,0.0661 -0.16152,0.48455 -0.58734,0.48455 -0.63139,0.48455 -0.23493,0 -0.41847,-0.13949 -0.5286,-0.31569 -0.13949,-0.22025 -0.13949,-0.5286 -0.13949,-0.69746 z m 0,0"
         style="fill:#d3cbb0;fill-opacity:1;stroke:#d3cbb0;stroke-width:0;stroke-opacity:1"
         inkscape:connector-curvature="0" />
    </g>
  </g>
</svg>
