<?xml version="1.0" encoding="UTF-8" standalone="no"?>
<!-- Created with Inkscape (http://www.inkscape.org/) -->

<svg
   xmlns:ns1="http://www.iki.fi/pav/software/textext/"
   xmlns:dc="http://purl.org/dc/elements/1.1/"
   xmlns:cc="http://creativecommons.org/ns#"
   xmlns:rdf="http://www.w3.org/1999/02/22-rdf-syntax-ns#"
   xmlns:svg="http://www.w3.org/2000/svg"
   xmlns="http://www.w3.org/2000/svg"
   xmlns:sodipodi="http://sodipodi.sourceforge.net/DTD/sodipodi-0.dtd"
   xmlns:inkscape="http://www.inkscape.org/namespaces/inkscape"
   version="1.1"
   id="svg983"
   xml:space="preserve"
   width="685.83728"
   height="570.97064"
   viewBox="0 0 685.83729 570.97064"
   sodipodi:docname="expdenscdf5.svg"
   inkscape:version="0.92.5 (2060ec1f9f, 2020-04-08)"><metadata
     id="metadata989"><rdf:RDF><cc:Work
         rdf:about=""><dc:format>image/svg+xml</dc:format><dc:type
           rdf:resource="http://purl.org/dc/dcmitype/StillImage" /><dc:title></dc:title></cc:Work></rdf:RDF></metadata><defs
     id="defs987"><marker
       inkscape:stockid="Arrow1Lend"
       orient="auto"
       refY="0"
       refX="0"
       id="marker19328"
       style="overflow:visible"
       inkscape:isstock="true"><path
         id="path19326"
         d="M 0,0 5,-5 -12.5,0 5,5 Z"
         style="fill:#32ff00;fill-opacity:0.70588235;fill-rule:evenodd;stroke:#32ff00;stroke-width:1.00000003pt;stroke-opacity:1"
         transform="matrix(-0.8,0,0,-0.8,-10,0)"
         inkscape:connector-curvature="0" /></marker><marker
       inkscape:isstock="true"
       style="overflow:visible"
       id="marker19084"
       refX="0"
       refY="0"
       orient="auto"
       inkscape:stockid="Arrow1Lend"
       inkscape:collect="always"><path
         inkscape:connector-curvature="0"
         transform="matrix(-0.8,0,0,-0.8,-10,0)"
         style="fill:#32ff00;fill-opacity:0.70588235;fill-rule:evenodd;stroke:#32ff00;stroke-width:1.00000003pt;stroke-opacity:1"
         d="M 0,0 5,-5 -12.5,0 5,5 Z"
         id="path19082" /></marker><marker
       inkscape:stockid="Arrow1Lend"
       orient="auto"
       refY="0"
       refX="0"
       id="marker18844"
       style="overflow:visible"
       inkscape:isstock="true"
       inkscape:collect="always"><path
         id="path18842"
         d="M 0,0 5,-5 -12.5,0 5,5 Z"
         style="fill:#32ff00;fill-opacity:0.70588235;fill-rule:evenodd;stroke:#32ff00;stroke-width:1.00000003pt;stroke-opacity:1"
         transform="matrix(-0.8,0,0,-0.8,-10,0)"
         inkscape:connector-curvature="0" /></marker><marker
       inkscape:stockid="Arrow1Lend"
       orient="auto"
       refY="0"
       refX="0"
       id="marker18636"
       style="overflow:visible"
       inkscape:isstock="true"><path
         id="path18634"
         d="M 0,0 5,-5 -12.5,0 5,5 Z"
         style="fill:#32ff00;fill-opacity:0.70588235;fill-rule:evenodd;stroke:#32ff00;stroke-width:1.00000003pt;stroke-opacity:1"
         transform="matrix(-0.8,0,0,-0.8,-10,0)"
         inkscape:connector-curvature="0" /></marker><marker
       inkscape:stockid="Arrow1Lend"
       orient="auto"
       refY="0"
       refX="0"
       id="marker18434"
       style="overflow:visible"
       inkscape:isstock="true"><path
         id="path18432"
         d="M 0,0 5,-5 -12.5,0 5,5 Z"
         style="fill:#32ff00;fill-opacity:0.70588235;fill-rule:evenodd;stroke:#32ff00;stroke-width:1.00000003pt;stroke-opacity:1"
         transform="matrix(-0.8,0,0,-0.8,-10,0)"
         inkscape:connector-curvature="0" /></marker><marker
       inkscape:stockid="Arrow1Lend"
       orient="auto"
       refY="0"
       refX="0"
       id="marker18238"
       style="overflow:visible"
       inkscape:isstock="true"><path
         id="path18236"
         d="M 0,0 5,-5 -12.5,0 5,5 Z"
         style="fill:#32ff00;fill-opacity:0.70588235;fill-rule:evenodd;stroke:#32ff00;stroke-width:1.00000003pt;stroke-opacity:1"
         transform="matrix(-0.8,0,0,-0.8,-10,0)"
         inkscape:connector-curvature="0" /></marker><marker
       inkscape:stockid="Arrow1Lend"
       orient="auto"
       refY="0"
       refX="0"
       id="marker18048"
       style="overflow:visible"
       inkscape:isstock="true"><path
         id="path18046"
         d="M 0,0 5,-5 -12.5,0 5,5 Z"
         style="fill:#32ff00;fill-opacity:0.70588235;fill-rule:evenodd;stroke:#32ff00;stroke-width:1.00000003pt;stroke-opacity:1"
         transform="matrix(-0.8,0,0,-0.8,-10,0)"
         inkscape:connector-curvature="0" /></marker><marker
       inkscape:stockid="Arrow1Lend"
       orient="auto"
       refY="0"
       refX="0"
       id="marker17864"
       style="overflow:visible"
       inkscape:isstock="true"><path
         id="path17862"
         d="M 0,0 5,-5 -12.5,0 5,5 Z"
         style="fill:#32ff00;fill-opacity:0.70588235;fill-rule:evenodd;stroke:#32ff00;stroke-width:1.00000003pt;stroke-opacity:1"
         transform="matrix(-0.8,0,0,-0.8,-10,0)"
         inkscape:connector-curvature="0" /></marker><marker
       inkscape:stockid="Arrow1Lend"
       orient="auto"
       refY="0"
       refX="0"
       id="marker17686"
       style="overflow:visible"
       inkscape:isstock="true"><path
         id="path17684"
         d="M 0,0 5,-5 -12.5,0 5,5 Z"
         style="fill:#32ff00;fill-opacity:0.70588235;fill-rule:evenodd;stroke:#32ff00;stroke-width:1.00000003pt;stroke-opacity:1"
         transform="matrix(-0.8,0,0,-0.8,-10,0)"
         inkscape:connector-curvature="0" /></marker><marker
       inkscape:stockid="Arrow1Lend"
       orient="auto"
       refY="0"
       refX="0"
       id="marker17514"
       style="overflow:visible"
       inkscape:isstock="true"><path
         id="path17512"
         d="M 0,0 5,-5 -12.5,0 5,5 Z"
         style="fill:#32ff00;fill-opacity:0.70588235;fill-rule:evenodd;stroke:#32ff00;stroke-width:1.00000003pt;stroke-opacity:1"
         transform="matrix(-0.8,0,0,-0.8,-10,0)"
         inkscape:connector-curvature="0" /></marker><marker
       inkscape:stockid="Arrow1Lstart"
       orient="auto"
       refY="0"
       refX="0"
       id="Arrow1Lstart"
       style="overflow:visible"
       inkscape:isstock="true"><path
         id="path6387"
         d="M 0,0 5,-5 -12.5,0 5,5 Z"
         style="fill:#000000;fill-opacity:1;fill-rule:evenodd;stroke:#000000;stroke-width:1.00000003pt;stroke-opacity:1"
         transform="matrix(0.8,0,0,0.8,10,0)"
         inkscape:connector-curvature="0" /></marker><clipPath
       clipPathUnits="userSpaceOnUse"
       id="clipPath1001"><path
         d="M 59.04,73.44 H 473.76 V 444.96 H 59.04 Z"
         id="path999"
         inkscape:connector-curvature="0" /></clipPath><marker
       inkscape:isstock="true"
       style="overflow:visible"
       id="marker8344-6"
       refX="0"
       refY="0"
       orient="auto"
       inkscape:stockid="Arrow1Lend"><path
         inkscape:connector-curvature="0"
         transform="matrix(-0.8,0,0,-0.8,-10,0)"
         style="fill:#32ff00;fill-opacity:0.70588235;fill-rule:evenodd;stroke:#32ff00;stroke-width:1.00000003pt;stroke-opacity:1"
         d="M 0,0 5,-5 -12.5,0 5,5 Z"
         id="path8342-7" /></marker><marker
       inkscape:isstock="true"
       style="overflow:visible"
       id="marker8344-6-3"
       refX="0"
       refY="0"
       orient="auto"
       inkscape:stockid="Arrow1Lend"><path
         inkscape:connector-curvature="0"
         transform="matrix(-0.8,0,0,-0.8,-10,0)"
         style="fill:#32ff00;fill-opacity:0.70588235;fill-rule:evenodd;stroke:#32ff00;stroke-width:1.00000003pt;stroke-opacity:1"
         d="M 0,0 5,-5 -12.5,0 5,5 Z"
         id="path8342-7-5" /></marker><marker
       inkscape:isstock="true"
       style="overflow:visible"
       id="marker8344-3"
       refX="0"
       refY="0"
       orient="auto"
       inkscape:stockid="Arrow1Lend"><path
         inkscape:connector-curvature="0"
         transform="matrix(-0.8,0,0,-0.8,-10,0)"
         style="fill:#32ff00;fill-opacity:0.70588235;fill-rule:evenodd;stroke:#32ff00;stroke-width:1.00000003pt;stroke-opacity:1"
         d="M 0,0 5,-5 -12.5,0 5,5 Z"
         id="path8342-75" /></marker><marker
       inkscape:isstock="true"
       style="overflow:visible"
       id="marker8344-8"
       refX="0"
       refY="0"
       orient="auto"
       inkscape:stockid="Arrow1Lend"><path
         inkscape:connector-curvature="0"
         transform="matrix(-0.8,0,0,-0.8,-10,0)"
         style="fill:#32ff00;fill-opacity:0.70588235;fill-rule:evenodd;stroke:#32ff00;stroke-width:1.00000003pt;stroke-opacity:1"
         d="M 0,0 5,-5 -12.5,0 5,5 Z"
         id="path8342-9" /></marker><marker
       inkscape:isstock="true"
       style="overflow:visible"
       id="marker8344-1"
       refX="0"
       refY="0"
       orient="auto"
       inkscape:stockid="Arrow1Lend"><path
         inkscape:connector-curvature="0"
         transform="matrix(-0.8,0,0,-0.8,-10,0)"
         style="fill:#32ff00;fill-opacity:0.70588235;fill-rule:evenodd;stroke:#32ff00;stroke-width:1.00000003pt;stroke-opacity:1"
         d="M 0,0 5,-5 -12.5,0 5,5 Z"
         id="path8342-2" /></marker><marker
       inkscape:isstock="true"
       style="overflow:visible"
       id="marker8344-4"
       refX="0"
       refY="0"
       orient="auto"
       inkscape:stockid="Arrow1Lend"><path
         inkscape:connector-curvature="0"
         transform="matrix(-0.8,0,0,-0.8,-10,0)"
         style="fill:#32ff00;fill-opacity:0.70588235;fill-rule:evenodd;stroke:#32ff00;stroke-width:1.00000003pt;stroke-opacity:1"
         d="M 0,0 5,-5 -12.5,0 5,5 Z"
         id="path8342-78" /></marker><marker
       inkscape:isstock="true"
       style="overflow:visible"
       id="marker8344-61"
       refX="0"
       refY="0"
       orient="auto"
       inkscape:stockid="Arrow1Lend"><path
         inkscape:connector-curvature="0"
         transform="matrix(-0.8,0,0,-0.8,-10,0)"
         style="fill:#32ff00;fill-opacity:0.70588235;fill-rule:evenodd;stroke:#32ff00;stroke-width:1.00000003pt;stroke-opacity:1"
         d="M 0,0 5,-5 -12.5,0 5,5 Z"
         id="path8342-0" /></marker><marker
       inkscape:isstock="true"
       style="overflow:visible"
       id="marker8344-615"
       refX="0"
       refY="0"
       orient="auto"
       inkscape:stockid="Arrow1Lend"><path
         inkscape:connector-curvature="0"
         transform="matrix(-0.8,0,0,-0.8,-10,0)"
         style="fill:#32ff00;fill-opacity:0.70588235;fill-rule:evenodd;stroke:#32ff00;stroke-width:1.00000003pt;stroke-opacity:1"
         d="M 0,0 5,-5 -12.5,0 5,5 Z"
         id="path8342-5" /></marker><marker
       inkscape:isstock="true"
       style="overflow:visible"
       id="marker8344-69"
       refX="0"
       refY="0"
       orient="auto"
       inkscape:stockid="Arrow1Lend"><path
         inkscape:connector-curvature="0"
         transform="matrix(-0.8,0,0,-0.8,-10,0)"
         style="fill:#32ff00;fill-opacity:0.70588235;fill-rule:evenodd;stroke:#32ff00;stroke-width:1.00000003pt;stroke-opacity:1"
         d="M 0,0 5,-5 -12.5,0 5,5 Z"
         id="path8342-3" /></marker><marker
       inkscape:isstock="true"
       style="overflow:visible"
       id="marker8344-7"
       refX="0"
       refY="0"
       orient="auto"
       inkscape:stockid="Arrow1Lend"><path
         inkscape:connector-curvature="0"
         transform="matrix(-0.8,0,0,-0.8,-10,0)"
         style="fill:#32ff00;fill-opacity:0.70588235;fill-rule:evenodd;stroke:#32ff00;stroke-width:1.00000003pt;stroke-opacity:1"
         d="M 0,0 5,-5 -12.5,0 5,5 Z"
         id="path8342-4" /></marker><marker
       inkscape:isstock="true"
       style="overflow:visible"
       id="marker8344-86"
       refX="0"
       refY="0"
       orient="auto"
       inkscape:stockid="Arrow1Lend"><path
         inkscape:connector-curvature="0"
         transform="matrix(-0.8,0,0,-0.8,-10,0)"
         style="fill:#32ff00;fill-opacity:0.70588235;fill-rule:evenodd;stroke:#32ff00;stroke-width:1.00000003pt;stroke-opacity:1"
         d="M 0,0 5,-5 -12.5,0 5,5 Z"
         id="path8342-8" /></marker><marker
       inkscape:isstock="true"
       style="overflow:visible"
       id="marker8344-49"
       refX="0"
       refY="0"
       orient="auto"
       inkscape:stockid="Arrow1Lend"><path
         inkscape:connector-curvature="0"
         transform="matrix(-0.8,0,0,-0.8,-10,0)"
         style="fill:#32ff00;fill-opacity:0.70588235;fill-rule:evenodd;stroke:#32ff00;stroke-width:1.00000003pt;stroke-opacity:1"
         d="M 0,0 5,-5 -12.5,0 5,5 Z"
         id="path8342-20" /></marker><marker
       inkscape:isstock="true"
       style="overflow:visible"
       id="marker8344-6-3-6"
       refX="0"
       refY="0"
       orient="auto"
       inkscape:stockid="Arrow1Lend"><path
         inkscape:connector-curvature="0"
         transform="matrix(-0.8,0,0,-0.8,-10,0)"
         style="fill:#32ff00;fill-opacity:0.70588235;fill-rule:evenodd;stroke:#32ff00;stroke-width:1.00000003pt;stroke-opacity:1"
         d="M 0,0 5,-5 -12.5,0 5,5 Z"
         id="path8342-7-5-4" /></marker><marker
       inkscape:isstock="true"
       style="overflow:visible"
       id="marker8344-6-3-4"
       refX="0"
       refY="0"
       orient="auto"
       inkscape:stockid="Arrow1Lend"><path
         inkscape:connector-curvature="0"
         transform="matrix(-0.8,0,0,-0.8,-10,0)"
         style="fill:#32ff00;fill-opacity:0.70588235;fill-rule:evenodd;stroke:#32ff00;stroke-width:1.00000003pt;stroke-opacity:1"
         d="M 0,0 5,-5 -12.5,0 5,5 Z"
         id="path8342-7-5-8" /></marker><marker
       inkscape:isstock="true"
       style="overflow:visible"
       id="marker8344-6-3-2"
       refX="0"
       refY="0"
       orient="auto"
       inkscape:stockid="Arrow1Lend"><path
         inkscape:connector-curvature="0"
         transform="matrix(-0.8,0,0,-0.8,-10,0)"
         style="fill:#32ff00;fill-opacity:0.70588235;fill-rule:evenodd;stroke:#32ff00;stroke-width:1.00000003pt;stroke-opacity:1"
         d="M 0,0 5,-5 -12.5,0 5,5 Z"
         id="path8342-7-5-7" /></marker><marker
       inkscape:isstock="true"
       style="overflow:visible"
       id="marker8344-6-3-1"
       refX="0"
       refY="0"
       orient="auto"
       inkscape:stockid="Arrow1Lend"><path
         inkscape:connector-curvature="0"
         transform="matrix(-0.8,0,0,-0.8,-10,0)"
         style="fill:#32ff00;fill-opacity:0.70588235;fill-rule:evenodd;stroke:#32ff00;stroke-width:1.00000003pt;stroke-opacity:1"
         d="M 0,0 5,-5 -12.5,0 5,5 Z"
         id="path8342-7-5-0" /></marker><marker
       inkscape:isstock="true"
       style="overflow:visible"
       id="marker8344-6-3-49"
       refX="0"
       refY="0"
       orient="auto"
       inkscape:stockid="Arrow1Lend"><path
         inkscape:connector-curvature="0"
         transform="matrix(-0.8,0,0,-0.8,-10,0)"
         style="fill:#32ff00;fill-opacity:0.70588235;fill-rule:evenodd;stroke:#32ff00;stroke-width:1.00000003pt;stroke-opacity:1"
         d="M 0,0 5,-5 -12.5,0 5,5 Z"
         id="path8342-7-5-09" /></marker><marker
       inkscape:isstock="true"
       style="overflow:visible"
       id="marker8344-6-3-15"
       refX="0"
       refY="0"
       orient="auto"
       inkscape:stockid="Arrow1Lend"><path
         inkscape:connector-curvature="0"
         transform="matrix(-0.8,0,0,-0.8,-10,0)"
         style="fill:#32ff00;fill-opacity:0.70588235;fill-rule:evenodd;stroke:#32ff00;stroke-width:1.00000003pt;stroke-opacity:1"
         d="M 0,0 5,-5 -12.5,0 5,5 Z"
         id="path8342-7-5-9" /></marker><marker
       inkscape:isstock="true"
       style="overflow:visible"
       id="marker8344-6-3-65"
       refX="0"
       refY="0"
       orient="auto"
       inkscape:stockid="Arrow1Lend"><path
         inkscape:connector-curvature="0"
         transform="matrix(-0.8,0,0,-0.8,-10,0)"
         style="fill:#32ff00;fill-opacity:0.70588235;fill-rule:evenodd;stroke:#32ff00;stroke-width:1.00000003pt;stroke-opacity:1"
         d="M 0,0 5,-5 -12.5,0 5,5 Z"
         id="path8342-7-5-6" /></marker><marker
       inkscape:isstock="true"
       style="overflow:visible"
       id="marker8344-6-3-8"
       refX="0"
       refY="0"
       orient="auto"
       inkscape:stockid="Arrow1Lend"><path
         inkscape:connector-curvature="0"
         transform="matrix(-0.8,0,0,-0.8,-10,0)"
         style="fill:#32ff00;fill-opacity:0.70588235;fill-rule:evenodd;stroke:#32ff00;stroke-width:1.00000003pt;stroke-opacity:1"
         d="M 0,0 5,-5 -12.5,0 5,5 Z"
         id="path8342-7-5-1" /></marker><marker
       inkscape:isstock="true"
       style="overflow:visible"
       id="marker8344-6-3-88"
       refX="0"
       refY="0"
       orient="auto"
       inkscape:stockid="Arrow1Lend"><path
         inkscape:connector-curvature="0"
         transform="matrix(-0.8,0,0,-0.8,-10,0)"
         style="fill:#32ff00;fill-opacity:0.70588235;fill-rule:evenodd;stroke:#32ff00;stroke-width:1.00000003pt;stroke-opacity:1"
         d="M 0,0 5,-5 -12.5,0 5,5 Z"
         id="path8342-7-5-5" /></marker><marker
       inkscape:isstock="true"
       style="overflow:visible"
       id="marker8344-6-3-49-5"
       refX="0"
       refY="0"
       orient="auto"
       inkscape:stockid="Arrow1Lend"><path
         inkscape:connector-curvature="0"
         transform="matrix(-0.8,0,0,-0.8,-10,0)"
         style="fill:#32ff00;fill-opacity:0.70588235;fill-rule:evenodd;stroke:#32ff00;stroke-width:1.00000003pt;stroke-opacity:1"
         d="M 0,0 5,-5 -12.5,0 5,5 Z"
         id="path8342-7-5-09-6" /></marker><marker
       inkscape:isstock="true"
       style="overflow:visible"
       id="marker8344-6-3-49-9"
       refX="0"
       refY="0"
       orient="auto"
       inkscape:stockid="Arrow1Lend"><path
         inkscape:connector-curvature="0"
         transform="matrix(-0.8,0,0,-0.8,-10,0)"
         style="fill:#32ff00;fill-opacity:0.70588235;fill-rule:evenodd;stroke:#32ff00;stroke-width:1.00000003pt;stroke-opacity:1"
         d="M 0,0 5,-5 -12.5,0 5,5 Z"
         id="path8342-7-5-09-8" /></marker><marker
       inkscape:isstock="true"
       style="overflow:visible"
       id="marker8344-6-3-49-9-0"
       refX="0"
       refY="0"
       orient="auto"
       inkscape:stockid="Arrow1Lend"><path
         inkscape:connector-curvature="0"
         transform="matrix(-0.8,0,0,-0.8,-10,0)"
         style="fill:#32ff00;fill-opacity:0.70588235;fill-rule:evenodd;stroke:#32ff00;stroke-width:1.00000003pt;stroke-opacity:1"
         d="M 0,0 5,-5 -12.5,0 5,5 Z"
         id="path8342-7-5-09-8-3" /></marker></defs><sodipodi:namedview
     pagecolor="#ffffff"
     bordercolor="#666666"
     borderopacity="1"
     objecttolerance="10"
     gridtolerance="10"
     guidetolerance="10"
     inkscape:pageopacity="0"
     inkscape:pageshadow="2"
     inkscape:window-width="1848"
     inkscape:window-height="1016"
     id="namedview985"
     showgrid="false"
     inkscape:zoom="0.70238095"
     inkscape:cx="35.681474"
     inkscape:cy="219.35686"
     inkscape:window-x="1992"
     inkscape:window-y="27"
     inkscape:window-maximized="1"
     inkscape:current-layer="g991"
     fit-margin-top="0"
     fit-margin-left="0"
     fit-margin-right="0"
     fit-margin-bottom="0" /><g
     id="g991"
     inkscape:groupmode="layer"
     inkscape:label="expdens"
     transform="matrix(1.3333333,0,0,-1.3333333,-803.38149,586.94095)"><g
   id="g993"
   style="stroke-width:3.75;stroke-miterlimit:10;stroke-dasharray:none" />











































<g
   id="g1079"
   style="stroke-width:3.75;stroke-miterlimit:10;stroke-dasharray:none" /><g
   transform="translate(583.61804,-4.4937022)"
   id="g895"
   style="stroke-width:3.75;stroke-miterlimit:10;stroke-dasharray:none" /><path
   d="m 715.67906,80.57071 3.84,13.740003 3.84,13.200007 3.84,12.69 3.84,12.18 3.84,11.71 3.84,11.25 3.84,10.80999 3.84,10.38 3.84,9.98001 3.84,9.58999 3.84,9.21 3.84,8.85 3.84,8.50001 3.84,8.17 3.84,7.83999 3.84,7.55001 3.84,7.23999 3.84,6.96 3.84,6.69 3.84,6.43001 3.84,6.16999 3.84,5.93001 3.84,5.7 3.84,5.47999 3.84,5.26001 3.84,5.05 3.84,4.86 3.84,4.65999 3.83999,4.49001 3.84,4.29999 3.84,4.14 3.84,3.98001 3.84,3.81999 3.84,3.67001 3.84001,3.52999 3.84,3.38001 3.84,3.26 3.84,3.13 3.84,3 3.84,2.88999 3.84,2.77001 3.84,2.67 3.84,2.56 3.84,2.46 3.84,2.36 3.84,2.28 3.84,2.18 3.84,2.09 3.84,2.02 3.84,1.93 3.84,1.86 3.84,1.79 3.84,1.72 3.84,1.65 3.84,1.58 3.84,1.52 3.84,1.47 3.84,1.4 3.84,1.35 3.84,1.3 3.84,1.25 3.84,1.19 3.84,1.15 3.84,1.11 3.84,1.06 3.84,1.02 3.84,0.98 3.84,0.94 3.84,0.91 3.84,0.87 3.84,0.83 3.84,0.81 3.84,0.77 3.84,0.74 3.84004,0.71 3.84,0.69 3.84,0.65 3.84,0.63 3.84,0.61 3.84,0.58 3.84,0.56 3.84,0.54 3.84,0.52 3.84,0.5 3.84,0.47 3.84,0.46 3.84,0.44 3.84,0.43 3.84,0.4 3.84,0.39 3.84,0.38 3.84,0.36 3.84,0.35 3.84,0.33 3.84,0.32 3.84,0.31 3.84,0.29 3.84,0.29 3.84,0.27 3.84,0.26"
   style="fill:none;stroke:#ce9326;stroke-width:3.75;stroke-linecap:round;stroke-linejoin:round;stroke-miterlimit:10;stroke-dasharray:none;stroke-opacity:1"
   id="path905"
   inkscape:connector-curvature="0" /><path
   inkscape:connector-curvature="0"
   id="path909"
   style="fill:none;stroke:#000000;stroke-width:3.75;stroke-linecap:round;stroke-linejoin:round;stroke-miterlimit:10;stroke-dasharray:none;stroke-opacity:1"
   d="M 715.67906,66.810707 H 1099.6791" /><path
   inkscape:connector-curvature="0"
   id="path911"
   style="fill:none;stroke:#000000;stroke-width:3.75;stroke-linecap:round;stroke-linejoin:round;stroke-miterlimit:10;stroke-dasharray:none;stroke-opacity:1"
   d="m 715.67906,66.810707 v -7.2" /><path
   inkscape:connector-curvature="0"
   id="path913"
   style="fill:none;stroke:#000000;stroke-width:3.75;stroke-linecap:round;stroke-linejoin:round;stroke-miterlimit:10;stroke-dasharray:none;stroke-opacity:1"
   d="m 811.67906,66.810707 v -7.2" /><path
   inkscape:connector-curvature="0"
   id="path915"
   style="fill:none;stroke:#000000;stroke-width:3.75;stroke-linecap:round;stroke-linejoin:round;stroke-miterlimit:10;stroke-dasharray:none;stroke-opacity:1"
   d="m 907.67906,66.810707 v -7.2" /><path
   inkscape:connector-curvature="0"
   id="path917"
   style="fill:none;stroke:#000000;stroke-width:3.75;stroke-linecap:round;stroke-linejoin:round;stroke-miterlimit:10;stroke-dasharray:none;stroke-opacity:1"
   d="m 1003.6791,66.810707 v -7.2" /><path
   inkscape:connector-curvature="0"
   id="path919"
   style="fill:none;stroke:#000000;stroke-width:3.75;stroke-linecap:round;stroke-linejoin:round;stroke-miterlimit:10;stroke-dasharray:none;stroke-opacity:1"
   d="m 1099.6791,66.810707 v -7.2" /><text
   id="text923"
   style="font-variant:normal;font-weight:normal;font-size:12px;font-family:Helvetica;-inkscape-font-specification:Helvetica;writing-mode:lr-tb;fill:#000000;fill-opacity:1;fill-rule:nonzero;stroke:none;stroke-width:3.75;stroke-miterlimit:10;stroke-dasharray:none"
   x="712.33905"
   y="-40.890709"
   transform="scale(1,-1)"><tspan
     style="stroke-width:3.75;stroke-miterlimit:10;stroke-dasharray:none"
     id="tspan921"
     y="-40.890709"
     x="712.33905">0</tspan></text>
<text
   id="text927"
   style="font-variant:normal;font-weight:normal;font-size:12px;font-family:Helvetica;-inkscape-font-specification:Helvetica;writing-mode:lr-tb;fill:#000000;fill-opacity:1;fill-rule:nonzero;stroke:none;stroke-width:3.75;stroke-miterlimit:10;stroke-dasharray:none"
   x="808.33905"
   y="-40.890709"
   transform="scale(1,-1)"><tspan
     style="stroke-width:3.75;stroke-miterlimit:10;stroke-dasharray:none"
     id="tspan925"
     y="-40.890709"
     x="808.33905">1</tspan></text>
<text
   id="text931"
   style="font-variant:normal;font-weight:normal;font-size:12px;font-family:Helvetica;-inkscape-font-specification:Helvetica;writing-mode:lr-tb;fill:#000000;fill-opacity:1;fill-rule:nonzero;stroke:none;stroke-width:3.75;stroke-miterlimit:10;stroke-dasharray:none"
   x="904.33899"
   y="-40.890709"
   transform="scale(1,-1)"><tspan
     style="stroke-width:3.75;stroke-miterlimit:10;stroke-dasharray:none"
     id="tspan929"
     y="-40.890709"
     x="904.33899">2</tspan></text>
<text
   id="text935"
   style="font-variant:normal;font-weight:normal;font-size:12px;font-family:Helvetica;-inkscape-font-specification:Helvetica;writing-mode:lr-tb;fill:#000000;fill-opacity:1;fill-rule:nonzero;stroke:none;stroke-width:3.75;stroke-miterlimit:10;stroke-dasharray:none"
   x="1000.3391"
   y="-40.890709"
   transform="scale(1,-1)"><tspan
     style="stroke-width:3.75;stroke-miterlimit:10;stroke-dasharray:none"
     id="tspan933"
     y="-40.890709"
     x="1000.3391">3</tspan></text>
<text
   id="text939"
   style="font-variant:normal;font-weight:normal;font-size:12px;font-family:Helvetica;-inkscape-font-specification:Helvetica;writing-mode:lr-tb;fill:#000000;fill-opacity:1;fill-rule:nonzero;stroke:none;stroke-width:3.75;stroke-miterlimit:10;stroke-dasharray:none"
   x="1096.339"
   y="-40.890709"
   transform="scale(1,-1)"><tspan
     style="stroke-width:3.75;stroke-miterlimit:10;stroke-dasharray:none"
     id="tspan937"
     y="-40.890709"
     x="1096.339">4</tspan></text>
<path
   inkscape:connector-curvature="0"
   id="path941"
   style="fill:none;stroke:#000000;stroke-width:3.75;stroke-linecap:round;stroke-linejoin:round;stroke-miterlimit:10;stroke-dasharray:none;stroke-opacity:1"
   d="M 700.31906,80.57071 V 430.99072" /><path
   inkscape:connector-curvature="0"
   id="path943"
   style="fill:none;stroke:#000000;stroke-width:3.75;stroke-linecap:round;stroke-linejoin:round;stroke-miterlimit:10;stroke-dasharray:none;stroke-opacity:1"
   d="m 700.31906,80.57071 h -7.2" /><path
   inkscape:connector-curvature="0"
   id="path945"
   style="fill:none;stroke:#000000;stroke-width:3.75;stroke-linecap:round;stroke-linejoin:round;stroke-miterlimit:10;stroke-dasharray:none;stroke-opacity:1"
   d="m 700.31906,150.65072 h -7.2" /><path
   inkscape:connector-curvature="0"
   id="path947"
   style="fill:none;stroke:#000000;stroke-width:3.75;stroke-linecap:round;stroke-linejoin:round;stroke-miterlimit:10;stroke-dasharray:none;stroke-opacity:1"
   d="m 700.31906,220.74072 h -7.2" /><path
   inkscape:connector-curvature="0"
   id="path949"
   style="fill:none;stroke:#000000;stroke-width:3.75;stroke-linecap:round;stroke-linejoin:round;stroke-miterlimit:10;stroke-dasharray:none;stroke-opacity:1"
   d="m 700.31906,290.82071 h -7.2" /><path
   inkscape:connector-curvature="0"
   id="path951"
   style="fill:none;stroke:#000000;stroke-width:3.75;stroke-linecap:round;stroke-linejoin:round;stroke-miterlimit:10;stroke-dasharray:none;stroke-opacity:1"
   d="m 700.31906,360.90071 h -7.2" /><path
   inkscape:connector-curvature="0"
   id="path953"
   style="fill:none;stroke:#000000;stroke-width:3.75;stroke-linecap:round;stroke-linejoin:round;stroke-miterlimit:10;stroke-dasharray:none;stroke-opacity:1"
   d="m 700.31906,430.99072 h -7.2" /><text
   id="text957"
   style="font-variant:normal;font-weight:normal;font-size:12px;font-family:Helvetica;-inkscape-font-specification:Helvetica;writing-mode:lr-tb;fill:#000000;fill-opacity:1;fill-rule:nonzero;stroke:none;stroke-width:3.75;stroke-miterlimit:10;stroke-dasharray:none"
   transform="matrix(0,1,1,0,0,0)"
   x="72.230698"
   y="683.039"><tspan
     style="stroke-width:3.75"
     id="tspan955"
     sodipodi:role="line"
     y="683.039"
     x="72.230698 78.902695 82.238716">0.0</tspan></text>
<text
   id="text961"
   style="font-variant:normal;font-weight:normal;font-size:12px;font-family:Helvetica;-inkscape-font-specification:Helvetica;writing-mode:lr-tb;fill:#000000;fill-opacity:1;fill-rule:nonzero;stroke:none;stroke-width:3.75;stroke-miterlimit:10;stroke-dasharray:none"
   transform="matrix(0,1,1,0,0,0)"
   x="142.31071"
   y="683.039"><tspan
     style="stroke-width:3.75"
     id="tspan959"
     sodipodi:role="line"
     y="683.039"
     x="142.31071 148.98271 152.31871">0.2</tspan></text>
<text
   id="text965"
   style="font-variant:normal;font-weight:normal;font-size:12px;font-family:Helvetica;-inkscape-font-specification:Helvetica;writing-mode:lr-tb;fill:#000000;fill-opacity:1;fill-rule:nonzero;stroke:none;stroke-width:3.75;stroke-miterlimit:10;stroke-dasharray:none"
   transform="matrix(0,1,1,0,0,0)"
   x="212.40071"
   y="683.039"><tspan
     style="stroke-width:3.75"
     id="tspan963"
     sodipodi:role="line"
     y="683.039"
     x="212.40071 219.07271 222.40871">0.4</tspan></text>
<text
   id="text969"
   style="font-variant:normal;font-weight:normal;font-size:12px;font-family:Helvetica;-inkscape-font-specification:Helvetica;writing-mode:lr-tb;fill:#000000;fill-opacity:1;fill-rule:nonzero;stroke:none;stroke-width:3.75;stroke-miterlimit:10;stroke-dasharray:none"
   transform="matrix(0,1,1,0,0,0)"
   x="282.48071"
   y="683.039"><tspan
     style="stroke-width:3.75"
     id="tspan967"
     sodipodi:role="line"
     y="683.039"
     x="282.48071 289.15274 292.48874">0.6</tspan></text>
<text
   id="text973"
   style="font-variant:normal;font-weight:normal;font-size:12px;font-family:Helvetica;-inkscape-font-specification:Helvetica;writing-mode:lr-tb;fill:#000000;fill-opacity:1;fill-rule:nonzero;stroke:none;stroke-width:3.75;stroke-miterlimit:10;stroke-dasharray:none"
   transform="matrix(0,1,1,0,0,0)"
   x="352.56073"
   y="683.039"><tspan
     style="stroke-width:3.75"
     id="tspan971"
     sodipodi:role="line"
     y="683.039"
     x="352.56073 359.23273 362.56873">0.8</tspan></text>
<text
   id="text977"
   style="font-variant:normal;font-weight:normal;font-size:12px;font-family:Helvetica;-inkscape-font-specification:Helvetica;writing-mode:lr-tb;fill:#000000;fill-opacity:1;fill-rule:nonzero;stroke:none;stroke-width:3.75;stroke-miterlimit:10;stroke-dasharray:none"
   transform="matrix(0,1,1,0,0,0)"
   x="422.65073"
   y="683.039"><tspan
     style="stroke-width:3.75"
     id="tspan975"
     sodipodi:role="line"
     y="683.039"
     x="422.65073 429.32272 432.65872">1.0</tspan></text>
<path
   inkscape:connector-curvature="0"
   id="path979"
   style="fill:none;stroke:#ce9326;stroke-width:3.75;stroke-linecap:round;stroke-linejoin:round;stroke-miterlimit:10;stroke-dasharray:none;stroke-opacity:1"
   d="M 700.31906,66.810707 H 1115.0391 V 438.33072 H 700.31906 V 66.810707" /><g
   transform="translate(583.61804,-4.4937022)"
   id="g981"
   style="stroke-width:3.75;stroke-miterlimit:10;stroke-dasharray:none" /><g
   id="g5651"
   ns1:jacobian_sqrt="3.146075"
   inkscapeversion="0.92.5"
   ns1:alignment="middle center"
   ns1:scale="2.35955653969"
   ns1:preamble="/home/guindon/.config/inkscape/extensions/textext/default_packages.tex"
   ns1:text="$x$\n"
   ns1:pdfconverter="pdf2svg"
   ns1:texconverter="pdflatex"
   ns1:version="0.11.1"
   transform="matrix(3.146075,0,0,-3.146075,430.62909,436.30264)"
   style="fill:#e0c593;fill-opacity:1"><g
     id="g5649"
     style="fill:#e0c593;fill-opacity:1"><g
       id="g5647"
       style="fill:#e0c593;fill-opacity:1"><path
         id="path5645"
         transform="translate(148.712,134.765)"
         d="M 3.328125,-3.015625 C 3.390625,-3.265625 3.625,-4.1875 4.3125,-4.1875 c 0.046875,0 0.296875,0 0.5,0.125 C 4.53125,-4 4.34375,-3.765625 4.34375,-3.515625 c 0,0.15625 0.109375,0.34375 0.375,0.34375 0.21875,0 0.53125,-0.171875 0.53125,-0.578125 0,-0.515625 -0.578125,-0.65625 -0.921875,-0.65625 -0.578125,0 -0.921875,0.53125 -1.046875,0.75 -0.25,-0.65625 -0.78125,-0.75 -1.078125,-0.75 -1.03125,0 -1.609375,1.28125 -1.609375,1.53125 0,0.109375 0.109375,0.109375 0.125,0.109375 0.078125,0 0.109375,-0.03125 0.125,-0.109375 0.34375,-1.0625 1,-1.3125 1.34375,-1.3125 0.1875,0 0.53125,0.09375 0.53125,0.671875 0,0.3125 -0.171875,0.96875 -0.53125,2.375 -0.15625,0.609375 -0.515625,1.03125 -0.953125,1.03125 -0.0625,0 -0.28125,0 -0.5,-0.125 0.25,-0.0625 0.46875,-0.265625 0.46875,-0.546875 0,-0.265625 -0.21875,-0.34375 -0.359375,-0.34375 -0.3125,0 -0.546875,0.25 -0.546875,0.578125 0,0.453125 0.484375,0.65625 0.921875,0.65625 0.671875,0 1.03125,-0.703125 1.046875,-0.75 0.125,0.359375 0.484375,0.75 1.078125,0.75 1.03125,0 1.59375,-1.28125 1.59375,-1.53125 0,-0.109375 -0.078125,-0.109375 -0.109375,-0.109375 -0.09375,0 -0.109375,0.046875 -0.140625,0.109375 -0.328125,1.078125 -1,1.3125 -1.3125,1.3125 -0.390625,0 -0.546875,-0.3125 -0.546875,-0.65625 0,-0.21875 0.046875,-0.4375 0.15625,-0.875 z m 0,0"
         style="fill:#e0c593;fill-opacity:1;stroke:none;stroke-width:0"
         inkscape:connector-curvature="0" /></g></g></g><path
   style="fill:#32ff00;fill-opacity:0.70588235;stroke:#32ff00;stroke-width:0.75px;stroke-linecap:butt;stroke-linejoin:miter;stroke-opacity:1;marker-end:url(#marker17864)"
   d="M 782.95045,257.11845 782.50816,68.76506"
   id="path8334-5"
   inkscape:connector-curvature="0"
   sodipodi:nodetypes="cc" /><path
   style="fill:#32ff00;fill-opacity:0.70588235;stroke:#32ff00;stroke-width:0.75px;stroke-linecap:butt;stroke-linejoin:miter;stroke-opacity:1"
   d="M 782.95045,257.11845 703.48397,256.3917"
   id="path8334-5-6"
   inkscape:connector-curvature="0"
   sodipodi:nodetypes="cc" /><path
   style="fill:#32ff00;fill-opacity:0.70588235;stroke:#32ff00;stroke-width:0.75px;stroke-linecap:butt;stroke-linejoin:miter;stroke-opacity:1;marker-end:url(#marker18048)"
   d="M 803.69226,291.13247 V 68.764048"
   id="path8334-5-5"
   inkscape:connector-curvature="0"
   sodipodi:nodetypes="cc" /><path
   style="fill:#32ff00;fill-opacity:0.70588235;stroke:#32ff00;stroke-width:0.75px;stroke-linecap:butt;stroke-linejoin:miter;stroke-opacity:1"
   d="m 803.69226,291.13247 -99.85273,1.16087"
   id="path8334-5-6-0"
   inkscape:connector-curvature="0"
   sodipodi:nodetypes="cc" /><path
   style="fill:#32ff00;fill-opacity:0.70588235;stroke:#32ff00;stroke-width:0.75px;stroke-linecap:butt;stroke-linejoin:miter;stroke-opacity:1;marker-end:url(#marker18434)"
   d="M 904.11342,384.7582 V 69.519094"
   id="path8334-5-1"
   inkscape:connector-curvature="0"
   sodipodi:nodetypes="cc" /><path
   style="fill:#32ff00;fill-opacity:0.70588235;stroke:#32ff00;stroke-width:0.75px;stroke-linecap:butt;stroke-linejoin:miter;stroke-opacity:1"
   d="m 904.11342,384.7582 -201.02893,0.40582"
   id="path8334-5-6-7"
   inkscape:connector-curvature="0"
   sodipodi:nodetypes="cc" /><path
   style="fill:#32ff00;fill-opacity:0.70588235;stroke:#32ff00;stroke-width:0.75px;stroke-linecap:butt;stroke-linejoin:miter;stroke-opacity:1;marker-end:url(#marker19328)"
   d="m 729.69773,125.77733 10e-6,-57.202044"
   id="path8334-5-15"
   inkscape:connector-curvature="0"
   sodipodi:nodetypes="cc" /><path
   style="fill:#32ff00;fill-opacity:0.70588235;stroke:#32ff00;stroke-width:0.75px;stroke-linecap:butt;stroke-linejoin:miter;stroke-opacity:1"
   d="m 729.69773,125.77733 -26.99076,-0.72674"
   id="path8334-5-6-9"
   inkscape:connector-curvature="0"
   sodipodi:nodetypes="cc" /><path
   style="fill:#32ff00;fill-opacity:0.70588235;stroke:#32ff00;stroke-width:0.75px;stroke-linecap:butt;stroke-linejoin:miter;stroke-opacity:1"
   d="M 745.5537,175.61039 744.98741,68.764049"
   id="path8334-5-7"
   inkscape:connector-curvature="0"
   sodipodi:nodetypes="cc" /><path
   style="fill:#32ff00;fill-opacity:0.70588235;stroke:#32ff00;stroke-width:0.75px;stroke-linecap:butt;stroke-linejoin:miter;stroke-opacity:1"
   d="m 745.5537,175.61039 -42.09169,-0.72675"
   id="path8334-5-6-71"
   inkscape:connector-curvature="0"
   sodipodi:nodetypes="cc" /><path
   style="fill:#32ff00;fill-opacity:0.70588235;stroke:#32ff00;stroke-width:0.75px;stroke-linecap:butt;stroke-linejoin:miter;stroke-opacity:1;marker-end:url(#marker18636)"
   d="M 995.474,411.93986 994.71896,68.009002"
   id="path8334-5-67"
   inkscape:connector-curvature="0"
   sodipodi:nodetypes="cc" /><path
   style="fill:#32ff00;fill-opacity:0.70588235;stroke:#32ff00;stroke-width:0.75px;stroke-linecap:butt;stroke-linejoin:miter;stroke-opacity:1"
   d="m 995.474,411.93986 -292.01199,0.0283"
   id="path8334-5-6-3"
   inkscape:connector-curvature="0"
   sodipodi:nodetypes="cc" /><path
   style="fill:#32ff00;fill-opacity:0.70588235;stroke:#32ff00;stroke-width:0.75px;stroke-linecap:butt;stroke-linejoin:miter;stroke-opacity:1;marker-end:url(#marker18238)"
   d="M 823.32346,317.55908 V 68.009001"
   id="path8334-5-3"
   inkscape:connector-curvature="0"
   sodipodi:nodetypes="cc" /><path
   style="fill:#32ff00;fill-opacity:0.70588235;stroke:#32ff00;stroke-width:0.75px;stroke-linecap:butt;stroke-linejoin:miter;stroke-opacity:1"
   d="m 823.32346,317.55908 -119.10641,0.0283"
   id="path8334-5-6-90"
   inkscape:connector-curvature="0"
   sodipodi:nodetypes="cc" /><path
   style="fill:#32ff00;fill-opacity:0.70588235;stroke:#32ff00;stroke-width:0.75px;stroke-linecap:butt;stroke-linejoin:miter;stroke-opacity:1;marker-end:url(#marker18844)"
   d="m 731.20783,134.08284 0.56629,-65.507553"
   id="path8334-5-96"
   inkscape:connector-curvature="0"
   sodipodi:nodetypes="cc" /><path
   style="fill:#32ff00;fill-opacity:0.70588235;stroke:#32ff00;stroke-width:0.75px;stroke-linecap:butt;stroke-linejoin:miter;stroke-opacity:1"
   d="M 731.20783,134.08284 701.95192,133.3561"
   id="path8334-5-6-38"
   inkscape:connector-curvature="0"
   sodipodi:nodetypes="cc" /><path
   sodipodi:nodetypes="cc"
   inkscape:connector-curvature="0"
   id="path8334-5-7-1"
   d="m 746.68616,182.30132 -10e-6,-113.452991"
   style="fill:#32ff00;fill-opacity:0.70588235;stroke:#32ff00;stroke-width:0.75px;stroke-linecap:butt;stroke-linejoin:miter;stroke-opacity:1;marker-end:url(#marker17514)" /><path
   sodipodi:nodetypes="cc"
   inkscape:connector-curvature="0"
   id="path8334-5-6-71-5"
   d="m 746.68616,182.30132 -42.09169,-0.72675"
   style="fill:#32ff00;fill-opacity:0.70588235;stroke:#32ff00;stroke-width:0.75px;stroke-linecap:butt;stroke-linejoin:miter;stroke-opacity:1" /><path
   sodipodi:nodetypes="cc"
   inkscape:connector-curvature="0"
   id="path8334-5-7-8"
   d="M 755.55871,200.37226 V 69.364436"
   style="fill:#32ff00;fill-opacity:0.70588235;stroke:#32ff00;stroke-width:0.75px;stroke-linecap:butt;stroke-linejoin:miter;stroke-opacity:1;marker-end:url(#marker19084)" /><path
   sodipodi:nodetypes="cc"
   inkscape:connector-curvature="0"
   id="path8334-5-6-71-1"
   d="M 755.55871,200.37226 703.2739,200.02303"
   style="fill:#32ff00;fill-opacity:0.70588235;stroke:#32ff00;stroke-width:0.75px;stroke-linecap:butt;stroke-linejoin:miter;stroke-opacity:1" /><path
   sodipodi:nodetypes="cc"
   inkscape:connector-curvature="0"
   id="path8334-5-7-8-4"
   d="M 759.95248,210.41709 V 69.21615"
   style="fill:#32ff00;fill-opacity:0.70588235;stroke:#32ff00;stroke-width:0.75px;stroke-linecap:butt;stroke-linejoin:miter;stroke-opacity:1;marker-end:url(#marker17686)" /><path
   sodipodi:nodetypes="cc"
   inkscape:connector-curvature="0"
   id="path8334-5-6-71-1-4"
   d="m 759.95248,210.41709 -56.06005,0.40582"
   style="fill:#32ff00;fill-opacity:0.70588235;stroke:#32ff00;stroke-width:0.75px;stroke-linecap:butt;stroke-linejoin:miter;stroke-opacity:1" /><rect
   style="opacity:1;fill:none;fill-opacity:0.70588235;fill-rule:nonzero;stroke:#33ff00;stroke-width:3.4770534;stroke-linecap:round;stroke-linejoin:round;stroke-miterlimit:4;stroke-dasharray:none;stroke-dashoffset:0;stroke-opacity:0.23529412;paint-order:fill markers stroke"
   id="rect17320"
   width="48.941593"
   height="25.450066"
   x="608.5459"
   y="-435.80444"
   transform="scale(1,-1)"
   rx="0.67074424"
   ry="0.67033654" /><rect
   style="opacity:1;fill:none;fill-opacity:0.70588235;fill-rule:nonzero;stroke:#33ff00;stroke-width:3.30000019;stroke-linecap:round;stroke-linejoin:round;stroke-miterlimit:4;stroke-dasharray:none;stroke-dashoffset:0;stroke-opacity:0.23529412;paint-order:fill markers stroke"
   id="rect17320-4"
   width="43.779663"
   height="25.627119"
   x="613.79633"
   y="-410.26587"
   rx="0.60000002"
   ry="0.67500001"
   transform="scale(1,-1)" /><rect
   style="opacity:1;fill:none;fill-opacity:0.70588235;fill-rule:nonzero;stroke:#33ff00;stroke-width:3.03192663;stroke-linecap:round;stroke-linejoin:round;stroke-miterlimit:4;stroke-dasharray:none;stroke-dashoffset:0;stroke-opacity:0.23529412;paint-order:fill markers stroke"
   id="rect17320-47"
   width="36.573162"
   height="25.895193"
   x="621.13684"
   y="-384.7728"
   rx="0.50123495"
   ry="0.6820609"
   transform="scale(1,-1)" /><rect
   style="opacity:1;fill:none;fill-opacity:0.70588235;fill-rule:nonzero;stroke:#33ff00;stroke-width:3.52815723;stroke-linecap:round;stroke-linejoin:round;stroke-miterlimit:4;stroke-dasharray:none;stroke-dashoffset:0;stroke-opacity:0.23529412;paint-order:fill markers stroke"
   id="rect17320-6"
   width="50.492184"
   height="25.398962"
   x="606.96973"
   y="-358.89758"
   rx="0.69199508"
   ry="0.66899049"
   transform="scale(1,-1)" /><rect
   style="opacity:1;fill:none;fill-opacity:0.70588235;fill-rule:nonzero;stroke:#33ff00;stroke-width:3.44248986;stroke-linecap:round;stroke-linejoin:round;stroke-miterlimit:4;stroke-dasharray:none;stroke-dashoffset:0;stroke-opacity:0.23529412;paint-order:fill markers stroke"
   id="rect17320-3"
   width="47.90836"
   height="25.484629"
   x="609.59637"
   y="-333.31329"
   rx="0.65658379"
   ry="0.67124695"
   transform="scale(1,-1)" /><rect
   style="opacity:1;fill:none;fill-opacity:0.70588235;fill-rule:nonzero;stroke:#33ff00;stroke-width:3.30000019;stroke-linecap:round;stroke-linejoin:round;stroke-miterlimit:4;stroke-dasharray:none;stroke-dashoffset:0;stroke-opacity:0.23529412;paint-order:fill markers stroke"
   id="rect17320-1"
   width="43.779663"
   height="25.627119"
   x="613.79633"
   y="-307.75745"
   rx="0.60000002"
   ry="0.67500001"
   transform="scale(1,-1)" /><rect
   style="opacity:1;fill:none;fill-opacity:0.70588235;fill-rule:nonzero;stroke:#33ff00;stroke-width:2.66508842;stroke-linecap:round;stroke-linejoin:round;stroke-miterlimit:4;stroke-dasharray:none;stroke-dashoffset:0;stroke-opacity:0.23529412;paint-order:fill markers stroke"
   id="rect17320-7"
   width="27.863728"
   height="26.262032"
   x="630.02972"
   y="-282.44778"
   rx="0.38187221"
   ry="0.69172311"
   transform="scale(1,-1)" /><rect
   style="opacity:1;fill:none;fill-opacity:0.70588235;fill-rule:nonzero;stroke:#33ff00;stroke-width:3.61144853;stroke-linecap:round;stroke-linejoin:round;stroke-miterlimit:4;stroke-dasharray:none;stroke-dashoffset:0;stroke-opacity:0.23529412;paint-order:fill markers stroke"
   id="rect17320-5"
   width="53.078384"
   height="25.31567"
   x="604.34186"
   y="-256.3475"
   rx="0.72743893"
   ry="0.66679668"
   transform="scale(1,-1)" /><rect
   style="opacity:1;fill:none;fill-opacity:0.70588235;fill-rule:nonzero;stroke:#33ff00;stroke-width:2.8443234;stroke-linecap:round;stroke-linejoin:round;stroke-miterlimit:4;stroke-dasharray:none;stroke-dashoffset:0;stroke-opacity:0.23529412;paint-order:fill markers stroke"
   id="rect17320-9"
   width="31.955679"
   height="26.082796"
   x="625.84814"
   y="-231.10396"
   rx="0.4379524"
   ry="0.68700224"
   transform="scale(1,-1)" /><rect
   style="opacity:1;fill:none;fill-opacity:0.70588235;fill-rule:nonzero;stroke:#33ff00;stroke-width:3.30000019;stroke-linecap:round;stroke-linejoin:round;stroke-miterlimit:4;stroke-dasharray:none;stroke-dashoffset:0;stroke-opacity:0.23529412;paint-order:fill markers stroke"
   id="rect17320-62"
   width="43.779663"
   height="25.627119"
   x="613.79633"
   y="-205.24899"
   rx="0.60000002"
   ry="0.67500001"
   transform="scale(1,-1)" /><rect
   style="opacity:1;fill:none;fill-opacity:0.70588235;fill-rule:nonzero;stroke:#33ff00;stroke-width:3.54499984;stroke-linecap:round;stroke-linejoin:round;stroke-miterlimit:4;stroke-dasharray:none;stroke-dashoffset:0;stroke-opacity:0.23529412;paint-order:fill markers stroke"
   id="rect17320-17"
   width="51.009239"
   height="25.38212"
   x="606.44427"
   y="-179.49937"
   rx="0.6990813"
   ry="0.66854692"
   transform="scale(1,-1)" /><rect
   style="opacity:1;fill:none;fill-opacity:0.70588235;fill-rule:nonzero;stroke:#33ff00;stroke-width:3.05196977;stroke-linecap:round;stroke-linejoin:round;stroke-miterlimit:4;stroke-dasharray:none;stroke-dashoffset:0;stroke-opacity:0.23529412;paint-order:fill markers stroke"
   id="rect17320-8"
   width="37.087017"
   height="25.875149"
   x="620.61298"
   y="-154.11876"
   rx="0.5082773"
   ry="0.68153298"
   transform="scale(1,-1)" /><rect
   style="opacity:1;fill:none;fill-opacity:0.70588235;fill-rule:nonzero;stroke:#33ff00;stroke-width:3.30000019;stroke-linecap:round;stroke-linejoin:round;stroke-miterlimit:4;stroke-dasharray:none;stroke-dashoffset:0;stroke-opacity:0.23529412;paint-order:fill markers stroke"
   id="rect17320-57"
   width="43.779663"
   height="25.627119"
   x="613.79633"
   y="-128.36763"
   rx="0.60000002"
   ry="0.67500001"
   transform="scale(1,-1)" /><rect
   style="opacity:1;fill:none;fill-opacity:0.70588235;fill-rule:nonzero;stroke:#33ff00;stroke-width:3.49418545;stroke-linecap:round;stroke-linejoin:round;stroke-miterlimit:4;stroke-dasharray:none;stroke-dashoffset:0;stroke-opacity:0.23529412;paint-order:fill markers stroke"
   id="rect17320-41"
   width="49.458359"
   height="25.432934"
   x="608.02051"
   y="-102.64342"
   rx="0.67782652"
   ry="0.66988534"
   transform="scale(1,-1)" /></g></svg>