<?xml version="1.0" encoding="UTF-8" standalone="no"?>
<!-- Created with Inkscape (http://www.inkscape.org/) -->

<svg
   xmlns:dc="http://purl.org/dc/elements/1.1/"
   xmlns:cc="http://creativecommons.org/ns#"
   xmlns:rdf="http://www.w3.org/1999/02/22-rdf-syntax-ns#"
   xmlns:svg="http://www.w3.org/2000/svg"
   xmlns="http://www.w3.org/2000/svg"
   xmlns:sodipodi="http://sodipodi.sourceforge.net/DTD/sodipodi-0.dtd"
   xmlns:inkscape="http://www.inkscape.org/namespaces/inkscape"
   version="1.1"
   id="svg2"
   xml:space="preserve"
   width="492.78275"
   height="394.55548"
   viewBox="0 0 492.78275 394.55548"
   sodipodi:docname="structcoal.svg"
   inkscape:version="0.92.5 (2060ec1f9f, 2020-04-08)"><metadata
     id="metadata8"><rdf:RDF><cc:Work
         rdf:about=""><dc:format>image/svg+xml</dc:format><dc:type
           rdf:resource="http://purl.org/dc/dcmitype/StillImage" /><dc:title /></cc:Work></rdf:RDF></metadata><defs
     id="defs6"><marker
       inkscape:stockid="Arrow1Lend"
       orient="auto"
       refY="0"
       refX="0"
       id="Arrow1Lend"
       style="overflow:visible"
       inkscape:isstock="true"><path
         id="path1443"
         d="M 0,0 5,-5 -12.5,0 5,5 Z"
         style="fill:#ff0000;fill-opacity:1;fill-rule:evenodd;stroke:#ff0000;stroke-width:1.00000003pt;stroke-opacity:1"
         transform="matrix(-0.8,0,0,-0.8,-10,0)"
         inkscape:connector-curvature="0" /></marker><marker
       inkscape:stockid="Arrow1Lstart"
       orient="auto"
       refY="0"
       refX="0"
       id="Arrow1Lstart"
       style="overflow:visible"
       inkscape:isstock="true"><path
         id="path1440"
         d="M 0,0 5,-5 -12.5,0 5,5 Z"
         style="fill:#ff0000;fill-opacity:1;fill-rule:evenodd;stroke:#ff0000;stroke-width:1.00000003pt;stroke-opacity:1"
         transform="matrix(0.8,0,0,0.8,10,0)"
         inkscape:connector-curvature="0" /></marker><inkscape:path-effect
       effect="spiro"
       id="path-effect1438"
       is_visible="true" /><clipPath
       clipPathUnits="userSpaceOnUse"
       id="clipPath20"><path
         d="M 0,0 H 341 V 371 H 0 Z"
         id="path18"
         inkscape:connector-curvature="0" /></clipPath><clipPath
       clipPathUnits="userSpaceOnUse"
       id="clipPath24"><path
         d="M 0,0 H 341 V 371 H 0 Z"
         id="path22"
         inkscape:connector-curvature="0" /></clipPath><clipPath
       clipPathUnits="userSpaceOnUse"
       id="clipPath28"><path
         d="M 31.703,50.355 H 341 V 371 H 31.703 Z"
         id="path26"
         inkscape:connector-curvature="0" /></clipPath><clipPath
       clipPathUnits="userSpaceOnUse"
       id="clipPath32"><path
         d="M 0,0 H 341 V 371 H 0 Z"
         id="path30"
         inkscape:connector-curvature="0" /></clipPath><clipPath
       clipPathUnits="userSpaceOnUse"
       id="clipPath36"><path
         d="M 0,0 H 341 V 371 H 0 Z"
         id="path34"
         inkscape:connector-curvature="0" /></clipPath><clipPath
       clipPathUnits="userSpaceOnUse"
       id="clipPath40"><path
         d="M 31.703,50.355 H 341 V 370.574 H 31.703 Z"
         id="path38"
         inkscape:connector-curvature="0" /></clipPath><clipPath
       clipPathUnits="userSpaceOnUse"
       id="clipPath44"><path
         d="M 0,0 H 341 V 371 H 0 Z"
         id="path42"
         inkscape:connector-curvature="0" /></clipPath><clipPath
       clipPathUnits="userSpaceOnUse"
       id="clipPath48"><path
         d="M 31.703,50.355 H 341 V 370.574 H 31.703 Z"
         id="path46"
         inkscape:connector-curvature="0" /></clipPath><marker
       inkscape:stockid="Arrow1Lstart"
       orient="auto"
       refY="0"
       refX="0"
       id="Arrow1Lstart-5"
       style="overflow:visible"
       inkscape:isstock="true"><path
         inkscape:connector-curvature="0"
         id="path1440-3"
         d="M 0,0 5,-5 -12.5,0 5,5 Z"
         style="fill:#ff0000;fill-opacity:1;fill-rule:evenodd;stroke:#ff0000;stroke-width:1.00000003pt;stroke-opacity:1"
         transform="matrix(0.8,0,0,0.8,10,0)" /></marker><marker
       inkscape:stockid="Arrow1Lend"
       orient="auto"
       refY="0"
       refX="0"
       id="Arrow1Lend-5"
       style="overflow:visible"
       inkscape:isstock="true"><path
         inkscape:connector-curvature="0"
         id="path1443-6"
         d="M 0,0 5,-5 -12.5,0 5,5 Z"
         style="fill:#ff0000;fill-opacity:1;fill-rule:evenodd;stroke:#ff0000;stroke-width:1.00000003pt;stroke-opacity:1"
         transform="matrix(-0.8,0,0,-0.8,-10,0)" /></marker><inkscape:path-effect
       effect="spiro"
       id="path-effect1438-2"
       is_visible="true" /><marker
       inkscape:stockid="Arrow1Lstart"
       orient="auto"
       refY="0"
       refX="0"
       id="Arrow1Lstart-1"
       style="overflow:visible"
       inkscape:isstock="true"><path
         inkscape:connector-curvature="0"
         id="path1440-2"
         d="M 0,0 5,-5 -12.5,0 5,5 Z"
         style="fill:#ff0000;fill-opacity:1;fill-rule:evenodd;stroke:#ff0000;stroke-width:1.00000003pt;stroke-opacity:1"
         transform="matrix(0.8,0,0,0.8,10,0)" /></marker><marker
       inkscape:stockid="Arrow1Lend"
       orient="auto"
       refY="0"
       refX="0"
       id="Arrow1Lend-7"
       style="overflow:visible"
       inkscape:isstock="true"><path
         inkscape:connector-curvature="0"
         id="path1443-0"
         d="M 0,0 5,-5 -12.5,0 5,5 Z"
         style="fill:#ff0000;fill-opacity:1;fill-rule:evenodd;stroke:#ff0000;stroke-width:1.00000003pt;stroke-opacity:1"
         transform="matrix(-0.8,0,0,-0.8,-10,0)" /></marker><inkscape:path-effect
       effect="spiro"
       id="path-effect1438-9"
       is_visible="true" /><marker
       inkscape:stockid="Arrow1Lstart"
       orient="auto"
       refY="0"
       refX="0"
       id="Arrow1Lstart-6"
       style="overflow:visible"
       inkscape:isstock="true"><path
         inkscape:connector-curvature="0"
         id="path1440-0"
         d="M 0,0 5,-5 -12.5,0 5,5 Z"
         style="fill:#ff0000;fill-opacity:1;fill-rule:evenodd;stroke:#ff0000;stroke-width:1.00000003pt;stroke-opacity:1"
         transform="matrix(0.8,0,0,0.8,10,0)" /></marker><marker
       inkscape:stockid="Arrow1Lend"
       orient="auto"
       refY="0"
       refX="0"
       id="Arrow1Lend-6"
       style="overflow:visible"
       inkscape:isstock="true"><path
         inkscape:connector-curvature="0"
         id="path1443-2"
         d="M 0,0 5,-5 -12.5,0 5,5 Z"
         style="fill:#ff0000;fill-opacity:1;fill-rule:evenodd;stroke:#ff0000;stroke-width:1.00000003pt;stroke-opacity:1"
         transform="matrix(-0.8,0,0,-0.8,-10,0)" /></marker><inkscape:path-effect
       effect="spiro"
       id="path-effect1438-6"
       is_visible="true" /><marker
       inkscape:stockid="Arrow1Lstart"
       orient="auto"
       refY="0"
       refX="0"
       id="Arrow1Lstart-8"
       style="overflow:visible"
       inkscape:isstock="true"><path
         inkscape:connector-curvature="0"
         id="path1440-7"
         d="M 0,0 5,-5 -12.5,0 5,5 Z"
         style="fill:#ff0000;fill-opacity:1;fill-rule:evenodd;stroke:#ff0000;stroke-width:1.00000003pt;stroke-opacity:1"
         transform="matrix(0.8,0,0,0.8,10,0)" /></marker><marker
       inkscape:stockid="Arrow1Lend"
       orient="auto"
       refY="0"
       refX="0"
       id="Arrow1Lend-9"
       style="overflow:visible"
       inkscape:isstock="true"><path
         inkscape:connector-curvature="0"
         id="path1443-20"
         d="M 0,0 5,-5 -12.5,0 5,5 Z"
         style="fill:#ff0000;fill-opacity:1;fill-rule:evenodd;stroke:#ff0000;stroke-width:1.00000003pt;stroke-opacity:1"
         transform="matrix(-0.8,0,0,-0.8,-10,0)" /></marker><inkscape:path-effect
       effect="spiro"
       id="path-effect1438-23"
       is_visible="true" /><marker
       inkscape:stockid="Arrow1Lstart"
       orient="auto"
       refY="0"
       refX="0"
       id="Arrow1Lstart-59"
       style="overflow:visible"
       inkscape:isstock="true"><path
         inkscape:connector-curvature="0"
         id="path1440-22"
         d="M 0,0 5,-5 -12.5,0 5,5 Z"
         style="fill:#ff0000;fill-opacity:1;fill-rule:evenodd;stroke:#ff0000;stroke-width:1.00000003pt;stroke-opacity:1"
         transform="matrix(0.8,0,0,0.8,10,0)" /></marker><marker
       inkscape:stockid="Arrow1Lend"
       orient="auto"
       refY="0"
       refX="0"
       id="Arrow1Lend-8"
       style="overflow:visible"
       inkscape:isstock="true"><path
         inkscape:connector-curvature="0"
         id="path1443-9"
         d="M 0,0 5,-5 -12.5,0 5,5 Z"
         style="fill:#ff0000;fill-opacity:1;fill-rule:evenodd;stroke:#ff0000;stroke-width:1.00000003pt;stroke-opacity:1"
         transform="matrix(-0.8,0,0,-0.8,-10,0)" /></marker><inkscape:path-effect
       effect="spiro"
       id="path-effect1438-7"
       is_visible="true" /></defs><sodipodi:namedview
     pagecolor="#ffffff"
     bordercolor="#666666"
     borderopacity="1"
     objecttolerance="10"
     gridtolerance="10"
     guidetolerance="10"
     inkscape:pageopacity="0"
     inkscape:pageshadow="2"
     inkscape:window-width="1848"
     inkscape:window-height="1016"
     id="namedview4"
     showgrid="false"
     fit-margin-top="0"
     fit-margin-left="0"
     fit-margin-right="0"
     fit-margin-bottom="0"
     inkscape:zoom="1.9116758"
     inkscape:cx="62.207706"
     inkscape:cy="275.9321"
     inkscape:window-x="72"
     inkscape:window-y="27"
     inkscape:window-maximized="1"
     inkscape:current-layer="g10" /><g
     id="g10"
     inkscape:groupmode="layer"
     inkscape:label="mugration"
     transform="matrix(1.3333333,0,0,1.3333333,0,1.1685597)"><path
       d="m 72.48,281.348 c 2.079,-9.438 4.157,-18.871 8.075,-27.184 3.918,-8.316 9.675,-15.512 15.429,-22.707"
       style="fill:none;stroke:#2b87e3;stroke-width:5.66929102;stroke-linecap:round;stroke-linejoin:miter;stroke-miterlimit:4;stroke-dasharray:none;stroke-opacity:1"
       id="path106"
       inkscape:connector-curvature="0" /><path
       d="m 122.852,278.949 c -3.2,-11.195 -6.399,-22.387 -10.875,-30.304 -4.477,-7.915 -10.235,-12.551 -15.993,-17.188"
       style="fill:none;stroke:#2b87e3;stroke-width:5.66929102;stroke-linecap:round;stroke-linejoin:miter;stroke-miterlimit:4;stroke-dasharray:none;stroke-opacity:1"
       id="path110"
       inkscape:connector-curvature="0" /><path
       d="m 145.398,277.508 c -7.043,-26.86 -14.082,-53.723 -17.601,-73.11 -3.52,-19.382 -3.52,-31.289 -3.52,-43.199"
       style="fill:none;stroke:#2b87e3;stroke-width:5.66929102;stroke-linecap:round;stroke-linejoin:miter;stroke-miterlimit:4;stroke-dasharray:none;stroke-opacity:1"
       id="path114"
       inkscape:connector-curvature="0" /><path
       d="M 232.73236,193.43558 C 228.00861,173.7244 216.85987,140.34258 208.69152,119.18923 191.12835,89.349561 177.54084,81.271195 165.066,69.309"
       style="fill:none;stroke:#99b681;stroke-width:5.66929102;stroke-linecap:round;stroke-linejoin:miter;stroke-miterlimit:4;stroke-dasharray:none;stroke-opacity:1"
       id="path118"
       inkscape:connector-curvature="0"
       sodipodi:nodetypes="ccc" /><path
       d="M 276.12344,270.02183 C 276.92044,261.22883 222.793,109.285 224.391,102.328 c 1.601,-6.953 4,-12.07 6.398,-17.187"
       style="fill:none;stroke:#d7dc7d;stroke-width:5.66929102;stroke-linecap:round;stroke-linejoin:miter;stroke-miterlimit:4;stroke-dasharray:none;stroke-opacity:0.95283"
       id="path122"
       inkscape:connector-curvature="0"
       sodipodi:nodetypes="ccc" /><path
       d="m 158.43048,275.90149 c 1.68,-9.117 5.0205,-49.85546 -10.01615,-107.6654 C 143.92051,129.84129 152.672,87.699 156.43,81.062"
       style="fill:none;stroke:#e17c2f;stroke-width:5.66929102;stroke-linecap:round;stroke-linejoin:miter;stroke-miterlimit:4;stroke-dasharray:none;stroke-opacity:0.64622599"
       id="path126"
       inkscape:connector-curvature="0"
       sodipodi:nodetypes="ccc" /><path
       d="m 156.43,81.062 c 1.601,-2.39 3.199,-4.785 4.64,-6.742 1.438,-1.961 2.719,-3.488 3.996,-5.011"
       style="fill:none;stroke:#99b681;stroke-width:5.66929102;stroke-linecap:butt;stroke-linejoin:miter;stroke-miterlimit:4;stroke-dasharray:none;stroke-opacity:0.971698"
       id="path130"
       inkscape:connector-curvature="0" /><path
       d="m 130.047,106.246 c 4.398,-18.23 8.793,-36.457 16.949,-53.687 8.156,-17.231 20.07,-33.461 31.981,-49.692"
       style="fill:none;stroke:#99b681;stroke-width:5.66929102;stroke-linecap:round;stroke-linejoin:miter;stroke-miterlimit:4;stroke-dasharray:none;stroke-opacity:0.962264"
       id="path134"
       inkscape:connector-curvature="0" /><path
       d="m 281.76563,188.44593 c -0.16,-7.914 -31.39063,-79.07893 -34.70663,-85.75493 -3.317,-6.675 -9.793,-12.113 -16.27,-17.55"
       style="fill:none;stroke:#d7dc7d;stroke-width:5.66929102;stroke-linecap:round;stroke-linejoin:miter;stroke-miterlimit:4;stroke-dasharray:none;stroke-opacity:0.811321"
       id="path138"
       inkscape:connector-curvature="0"
       sodipodi:nodetypes="ccc" /><path
       d="m 230.789,85.141 c -2.398,-6.797 -4.797,-13.594 -8.355,-21.028 -3.559,-7.437 -8.278,-15.511 -12.993,-23.586"
       style="fill:none;stroke:#d7dc7d;stroke-width:5.66929102;stroke-linecap:round;stroke-linejoin:miter;stroke-miterlimit:4;stroke-dasharray:none;stroke-opacity:0.938679"
       id="path142"
       inkscape:connector-curvature="0" /><path
       d="m 165.066,69.309 c 3.039,-9.754 6.079,-19.508 10.633,-26.786 4.559,-7.273 10.637,-12.074 16.711,-16.871"
       style="fill:none;stroke:#85b762;stroke-width:5.66929102;stroke-linecap:round;stroke-linejoin:miter;stroke-miterlimit:4;stroke-dasharray:none;stroke-opacity:0.89150899"
       id="path146"
       inkscape:connector-curvature="0" /><path
       d="m 192.41,25.652 c -0.32,-4.554 -0.64,-9.113 -2.879,-12.91 -2.238,-3.797 -6.394,-6.836 -10.554,-9.875"
       style="fill:none;stroke:#85b762;stroke-width:5.66929102;stroke-linecap:round;stroke-linejoin:miter;stroke-miterlimit:4;stroke-dasharray:none;stroke-opacity:0.89622599"
       id="path150"
       inkscape:connector-curvature="0" /><path
       d="m 95.984,231.457 c -0.957,-22.23 -1.918,-44.457 0.028,-60.633 1.945,-16.176 6.797,-26.297 11.644,-36.422"
       style="fill:none;stroke:#2b87e3;stroke-width:5.66929102;stroke-linecap:round;stroke-linejoin:miter;stroke-miterlimit:4;stroke-dasharray:none;stroke-opacity:0.82547201"
       id="path154"
       inkscape:connector-curvature="0" /><path
       d="m 107.656,134.402 c 3.516,-6.379 7.032,-12.757 10.762,-17.449 3.734,-4.695 7.68,-7.699 11.629,-10.707"
       style="fill:none;stroke:#99b681;stroke-width:5.66929102;stroke-linecap:butt;stroke-linejoin:miter;stroke-miterlimit:4;stroke-dasharray:none;stroke-opacity:0.933962"
       id="path158"
       inkscape:connector-curvature="0" /><path
       d="m 124.277,161.199 c 0.246,-12.152 0.489,-24.308 1.45,-33.469 0.961,-9.156 2.64,-15.32 4.32,-21.484"
       style="fill:none;stroke:#99b681;stroke-width:5.66929102;stroke-linecap:butt;stroke-linejoin:miter;stroke-miterlimit:4;stroke-dasharray:none;stroke-opacity:1"
       id="path162"
       inkscape:connector-curvature="0" /><path
       d="m 192.41,25.652 c 3.598,1.848 7.195,3.692 10.035,6.172 2.836,2.477 4.918,5.59 6.996,8.703"
       style="fill:none;stroke:#85b762;stroke-width:5.66929102;stroke-linecap:butt;stroke-linejoin:miter;stroke-miterlimit:4;stroke-dasharray:none;stroke-opacity:0.995283"
       id="path166"
       inkscape:connector-curvature="0" /><g
       id="g15710"
       transform="matrix(1,0,0,-1,0,277.03599)"><path
         inkscape:connector-curvature="0"
         id="path170"
         style="fill:#e07c2e;fill-opacity:0.64705882;stroke:#e07c2e;stroke-width:0.75118101;stroke-linecap:butt;stroke-linejoin:miter;stroke-miterlimit:4;stroke-dasharray:none;stroke-opacity:0.64705882"
         d="M 35.63066,234.2149 V 41.3629" /><path
         inkscape:connector-curvature="0"
         id="path174"
         style="fill:#e07c2e;fill-opacity:0.64705882;fill-rule:evenodd;stroke:#e07c2e;stroke-width:0.80125999;stroke-linecap:butt;stroke-linejoin:miter;stroke-miterlimit:4;stroke-dasharray:none;stroke-opacity:0.64705882"
         d="m 35.630658,226.7029 -3.004,-3.008 3.004,10.52 3.008,-10.52 z" /></g><path
       inkscape:connector-curvature="0"
       id="path176"
       style="fill:#e07c2e;fill-opacity:1;fill-rule:nonzero;stroke:#e07c2e;stroke-opacity:1"
       d="m 7.7676576,147.0779 v 15.77 l 5.8200004,0.484 v -0.648 c -4.1640004,-0.363 -5.0110004,-0.727 -5.0110004,-4.649 0,-0.445 0,-1.132 0.039,-1.375 0.121,-0.566 0.406,-0.566 0.972,-0.566 H 23.212658 c 0.848,0 1.211,0 1.211,2.711 v 1.051 h 0.809 c -0.082,-1.051 -0.082,-3.68 -0.082,-4.895 0,-1.172 0,-3.84 0.082,-4.89 h -0.809 v 1.05 c 0,2.711 -0.363,2.711 -1.211,2.711 H 9.5876576 c -0.484,0 -0.851,0 -0.972,-0.488 -0.039,-0.281 -0.039,-0.969 -0.039,-1.453 0,-3.922 0.847,-4.285 5.0110004,-4.649 v -0.648 z" /><path
       inkscape:connector-curvature="0"
       id="path178"
       style="fill:#e07c2e;fill-opacity:1;fill-rule:nonzero;stroke:#e07c2e;stroke-opacity:1"
       d="m 13.829658,141.0779 0.286,3.598 h 0.808 c 0,-1.66 0.16,-1.902 1.414,-1.902 h 6.953 c 1.133,0 1.133,0.285 1.133,2.023 h 0.809 c -0.039,-0.809 -0.082,-2.226 -0.082,-2.832 0,-0.93 0.043,-1.82 0.082,-2.707 h -0.809 c 0,1.738 -0.121,1.82 -1.133,1.82 z m -4.4840004,-0.082 c -0.808,0 -1.375,0.606 -1.375,1.332 0,0.809 0.688,1.375 1.375,1.375 0.6880004,0 1.3750004,-0.566 1.3750004,-1.375 0,-0.726 -0.566,-1.332 -1.3750004,-1.332 z" /><path
       inkscape:connector-curvature="0"
       id="path180"
       style="fill:#e07c2e;fill-opacity:1;fill-rule:nonzero;stroke:#e07c2e;stroke-opacity:1"
       d="m 16.380658,135.6529 h 6.91 c 1.133,0 1.133,0.285 1.133,2.023 h 0.809 c -0.039,-0.93 -0.082,-2.223 -0.082,-2.953 0,-0.645 0.043,-1.981 0.082,-2.871 h -0.809 c 0,1.738 0,2.023 -1.133,2.023 h -4.769 c -2.668,0 -4.125,-1.859 -4.125,-3.476 0,-1.661 1.375,-1.942 2.871,-1.942 h 6.023 c 1.133,0 1.133,0.281 1.133,2.024 h 0.809 c -0.039,-0.891 -0.082,-2.227 -0.082,-2.914 0,-0.645 0.043,-2.02 0.082,-2.872 h -0.809 c 0,1.7 0,1.985 -1.133,1.985 h -4.769 c -2.668,0 -4.125,-1.82 -4.125,-3.477 0,-1.617 1.375,-1.902 2.871,-1.902 h 6.023 c 1.133,0 1.133,0.285 1.133,2.023 h 0.809 c -0.039,-0.89 -0.082,-2.226 -0.082,-2.914 0,-0.687 0.043,-2.019 0.082,-2.91 h -0.809 c 0,1.336 0,1.981 -0.769,2.024 h -4.93 c -2.223,0 -2.992,0 -3.922,0.808 -0.445,0.363 -0.973,1.211 -0.973,2.707 0,2.145 1.54,3.317 2.551,3.719 -2.265,0.363 -2.551,2.266 -2.551,3.437 0,1.903 1.094,3.114 2.711,3.84 h -2.711 l 0.286,3.641 h 0.808 c 0,-1.82 0.16,-2.023 1.457,-2.023 z" /><path
       inkscape:connector-curvature="0"
       id="path182"
       style="fill:#e07c2e;fill-opacity:1;fill-rule:nonzero;stroke:#e07c2e;stroke-opacity:1"
       d="m 18.724658,114.1329 c -3.84,-0.164 -4.488,-2.344 -4.488,-3.234 0,-2.629 3.476,-2.911 4.488,-2.911 z m 0.566,0 v -7.195 c 0,-0.567 0,-0.649 -0.566,-0.649 -2.547,0 -5.055,1.414 -5.055,4.61 0,2.992 2.668,5.375 5.903,5.375 3.437,0 5.945,-2.707 5.945,-5.661 0,-3.152 -2.871,-4.324 -3.355,-4.324 -0.247,0 -0.325,0.203 -0.325,0.364 0,0.203 0.16,0.285 0.364,0.324 2.668,0.89 2.668,3.234 2.668,3.476 0,1.293 -0.77,2.305 -1.739,2.91 -1.215,0.77 -2.91,0.77 -3.84,0.77 z" /><rect
       style="opacity:1;fill:#2b87e3;fill-opacity:1;fill-rule:nonzero;stroke:#2a0c2c;stroke-width:0.85039371;stroke-linecap:round;stroke-linejoin:round;stroke-miterlimit:4;stroke-dasharray:none;stroke-dashoffset:0;stroke-opacity:1;paint-order:fill markers stroke"
       id="rect1407"
       width="45.218864"
       height="36.064125"
       x="263.82294"
       y="4.7209506"
       rx="0.60000002"
       ry="0.67500001" /><rect
       style="opacity:1;fill:#e07c2e;fill-opacity:0.64705882;fill-rule:nonzero;stroke:#2a0c2c;stroke-width:0.85039371;stroke-linecap:round;stroke-linejoin:round;stroke-miterlimit:4;stroke-dasharray:none;stroke-dashoffset:0;stroke-opacity:1;paint-order:fill markers stroke"
       id="rect1407-3"
       width="24.998812"
       height="16.398905"
       x="337.87744"
       y="4.5665698"
       rx="0.3317042"
       ry="0.30693275" /><rect
       style="opacity:1;fill:#d7dc7d;fill-opacity:0.95294118;fill-rule:nonzero;stroke:#2a0c2c;stroke-width:0.85039371;stroke-linecap:round;stroke-linejoin:round;stroke-miterlimit:4;stroke-dasharray:none;stroke-dashoffset:0;stroke-opacity:1;paint-order:fill markers stroke"
       id="rect1407-6"
       width="29.776667"
       height="21.454178"
       x="263.08286"
       y="47.951336"
       rx="0.39510062"
       ry="0.40155056" /><rect
       style="opacity:1;fill:#99b681;fill-opacity:1;fill-rule:nonzero;stroke:#2a0c2c;stroke-width:0.85039371;stroke-linecap:round;stroke-linejoin:round;stroke-miterlimit:4;stroke-dasharray:none;stroke-dashoffset:0;stroke-opacity:1;paint-order:fill markers stroke"
       id="rect1407-7"
       width="45.218864"
       height="36.064125"
       x="317.50302"
       y="48.275311"
       rx="0.60000002"
       ry="0.67500001" /><path
       style="fill:none;stroke:#ff0000;stroke-width:0.49425;stroke-linecap:butt;stroke-linejoin:miter;stroke-miterlimit:4;stroke-dasharray:none;stroke-opacity:1;marker-start:url(#Arrow1Lstart);marker-end:url(#Arrow1Lend)"
       d="M 337.87744,4.5665698 C 333.08398,2.4629239 327.82008,1.4395073 322.58761,1.5938903 317.92539,1.731448 313.29255,2.8009447 309.04181,4.7209506"
       id="path1436"
       inkscape:connector-curvature="0"
       inkscape:path-effect="#path-effect1438"
       inkscape:original-d="M 337.87744,4.5665698 C 335.10403,13.628087 319.76203,10.64124 322.58761,1.5938903 325.5975,-8.0436614 307.09313,-1.537854 309.04181,4.7209506"
       sodipodi:nodetypes="csc" /><path
       transform="translate(40.103031,33.506866)"
       style="fill:none;stroke:#ff0000;stroke-width:0.49425;stroke-linecap:butt;stroke-linejoin:miter;stroke-miterlimit:4;stroke-dasharray:none;stroke-opacity:1;marker-start:url(#Arrow1Lstart-5);marker-end:url(#Arrow1Lend-5)"
       d="m 322.61886,14.768445 c 3.13116,-4.064253 4.81215,-9.2227919 4.67666,-14.35153258 -0.12277,-4.64709272 -1.727,-9.24389532 -4.5223,-12.95830342"
       id="path1436-9"
       inkscape:connector-curvature="0"
       inkscape:path-effect="#path-effect1438-2"
       inkscape:original-d="m 322.61886,14.768445 c -2.77341,9.061517 1.85108,-5.3041825 4.67666,-14.35153258 3.00989,-9.63755172 -6.47098,-19.21710842 -4.5223,-12.95830342"
       sodipodi:nodetypes="csc" /><path
       transform="translate(11.976934,41.276091)"
       style="fill:none;stroke:#ff0000;stroke-width:0.49425;stroke-linecap:butt;stroke-linejoin:miter;stroke-miterlimit:4;stroke-dasharray:none;stroke-opacity:1;marker-start:url(#Arrow1Lstart-1);marker-end:url(#Arrow1Lend-7)"
       d="m 325.90051,-20.310616 c -3.8731,5.476676 -8.42304,10.4741847 -13.51337,14.8426391 -8.81547,7.5653188 -19.26176,13.2206059 -30.41582,16.4661429"
       id="path1436-3"
       inkscape:connector-curvature="0"
       inkscape:path-effect="#path-effect1438-9"
       inkscape:original-d="m 325.90051,-20.310616 c -2.77341,9.061517 -16.33895,23.8899892 -13.51337,14.8426391 3.00989,-9.6375521 -32.3645,10.2073381 -30.41582,16.4661429"
       sodipodi:nodetypes="csc" /><path
       transform="translate(-7.2470377,28.329335)"
       style="fill:none;stroke:#ff0000;stroke-width:0.49425;stroke-linecap:butt;stroke-linejoin:miter;stroke-miterlimit:4;stroke-dasharray:none;stroke-opacity:1;marker-start:url(#Arrow1Lstart-6);marker-end:url(#Arrow1Lend-6)"
       d="M 345.58525,19.522553 C 342.9648,13.286886 339.12935,7.5644832 334.35739,2.7708681 329.29025,-2.3192736 323.16988,-6.3562526 316.496,-9.0104578"
       id="path1436-1"
       inkscape:connector-curvature="0"
       inkscape:path-effect="#path-effect1438-6"
       inkscape:original-d="M 345.58525,19.522553 C 342.81184,28.58407 331.53181,11.818218 334.35739,2.7708681 337.36728,-6.8666836 314.54732,-15.269262 316.496,-9.0104578"
       sodipodi:nodetypes="csc" /><path
       transform="translate(-19.016816,66.384952)"
       style="fill:none;stroke:#ff0000;stroke-width:0.49425;stroke-linecap:butt;stroke-linejoin:miter;stroke-miterlimit:4;stroke-dasharray:none;stroke-opacity:1;marker-start:url(#Arrow1Lstart-8);marker-end:url(#Arrow1Lend-9)"
       d="m 336.35165,4.5665698 c -4.33614,-0.1095091 -8.65587,-0.8489893 -12.78153,-2.1880276 -4.11394,-1.3352346 -8.03398,-3.26629778 -11.5998,-5.7142145"
       id="path1436-7"
       inkscape:connector-curvature="0"
       inkscape:path-effect="#path-effect1438-23"
       inkscape:original-d="M 336.35165,4.5665698 C 333.57824,13.628087 312.14464,1.8550285 323.57012,2.3785422 333.65617,2.8406828 310.02164,-9.5944769 311.97032,-3.3356723"
       sodipodi:nodetypes="csc" /><path
       transform="translate(-68.842212,35.783528)"
       style="fill:none;stroke:#ff0000;stroke-width:0.49425;stroke-linecap:butt;stroke-linejoin:miter;stroke-miterlimit:4;stroke-dasharray:none;stroke-opacity:1;marker-start:url(#Arrow1Lstart-59);marker-end:url(#Arrow1Lend-8)"
       d="m 332.38488,-13.480424 c -5.97628,4.5391598 -9.55333,12.0719439 -9.29412,19.5721219 0.23357,6.7580391 3.54188,13.3499391 8.82086,17.5758081"
       id="path1436-36"
       inkscape:connector-curvature="0"
       inkscape:path-effect="#path-effect1438-7"
       inkscape:original-d="m 332.38488,-13.480424 c -2.77341,9.0615172 -10.21697,29.005403 -9.29412,19.5721219 0.92927,-9.4988435 3.26577,9.6525061 8.82086,17.5758081"
       sodipodi:nodetypes="csc" /></g></svg>